<svg width="398" height="52" viewBox="0 0 398 52" fill="none" xmlns="http://www.w3.org/2000/svg">
<path d="M5.33316 2.66602C5.33316 4.13877 4.13925 5.33268 2.6665 5.33268C1.19376 5.33268 -0.000152588 4.13877 -0.000152588 2.66602C-0.000152588 1.19326 1.19376 -0.000651121 2.6665 -0.000651121C4.13925 -0.000651121 5.33316 1.19326 5.33316 2.66602ZM397.833 49.166C397.833 50.6388 396.639 51.8327 395.167 51.8327C393.694 51.8327 392.5 50.6388 392.5 49.166C392.5 47.6933 393.694 46.4993 395.167 46.4993C396.639 46.4993 397.833 47.6933 397.833 49.166ZM243.555 2.66602V2.16602C243.605 2.16602 243.654 2.17342 243.702 2.18799L243.555 2.66602ZM2.6665 2.66602V2.16602H243.555V2.66602V3.16602H2.6665V2.66602ZM243.555 2.66602L243.702 2.18799L395.313 48.688L395.167 49.166L395.02 49.644L243.409 3.14404L243.555 2.66602Z" fill="white"/>
</svg>
