<svg xmlns="http://www.w3.org/2000/svg" width="15" height="14" viewBox="0 0 15 14" fill="none">
    <path d="M14.5236 7.37629C14.7111 7.18876 14.8164 6.93445 14.8164 6.66929C14.8164 6.40412 14.7111 6.14982 14.5236 5.96229L8.86662 0.305288C8.77437 0.209778 8.66403 0.133596 8.54202 0.0811866C8.42002 0.0287776 8.2888 0.00119129 8.15602 3.74652e-05C8.02324 -0.00111636 7.89156 0.0241856 7.76867 0.0744665C7.64577 0.124747 7.53412 0.199 7.44023 0.292893C7.34633 0.386786 7.27208 0.498437 7.2218 0.621334C7.17152 0.74423 7.14621 0.87591 7.14737 1.00869C7.14852 1.14147 7.17611 1.27269 7.22852 1.39469C7.28093 1.5167 7.35711 1.62704 7.45262 1.71929L11.4026 5.66929L-1.84038 5.66929C-2.1056 5.66929 -2.35995 5.77464 -2.54749 5.96218C-2.73502 6.14972 -2.84038 6.40407 -2.84038 6.66929C-2.84038 6.9345 -2.73502 7.18886 -2.54749 7.37639C-2.35995 7.56393 -2.1056 7.66929 -1.84038 7.66929L11.4026 7.66929L7.45262 11.6193C7.27046 11.8079 7.16967 12.0605 7.17195 12.3227C7.17422 12.5849 7.27939 12.8357 7.4648 13.0211C7.65021 13.2065 7.90102 13.3117 8.16322 13.314C8.42542 13.3162 8.67802 13.2154 8.86662 13.0333L14.5236 7.37629Z" fill="currentColor"/>
</svg>