<svg width="350" height="78" viewBox="0 0 350 78" fill="none" xmlns="http://www.w3.org/2000/svg">
<path d="M344 2.66602C344 4.13877 345.194 5.33268 346.667 5.33268C348.139 5.33268 349.333 4.13877 349.333 2.66602C349.333 1.19326 348.139 -0.000651121 346.667 -0.000651121C345.194 -0.000651121 344 1.19326 344 2.66602ZM163.167 75.1821V75.6821C163.229 75.6821 163.292 75.6703 163.35 75.6471L163.167 75.1821ZM-0.00016284 75.1821C-0.00016284 76.6549 1.19374 77.8488 2.6665 77.8488C4.13926 77.8488 5.33317 76.6549 5.33317 75.1821C5.33317 73.7094 4.13926 72.5155 2.6665 72.5155C1.19374 72.5155 -0.00016284 73.7094 -0.00016284 75.1821ZM346.667 2.66602L346.483 2.20101L162.983 74.7171L163.167 75.1821L163.35 75.6471L346.85 3.13102L346.667 2.66602ZM163.167 75.1821V74.6821H2.6665V75.1821V75.6821H163.167V75.1821Z" fill="white"/>
</svg>
