<svg xmlns="http://www.w3.org/2000/svg" width="18" height="18" viewBox="0 0 18 18" fill="none">
    <path d="M6.1282 12.8567L12.0208 12.8567C12.1304 12.8543 12.2386 12.8303 12.339 12.786C12.5414 12.7015 12.7023 12.5406 12.7868 12.3382C12.8311 12.2378 12.8551 12.1297 12.8575 12.02L12.8575 6.12743C12.8575 6.01755 12.8359 5.90874 12.7938 5.80723C12.7518 5.70571 12.6901 5.61347 12.6124 5.53577C12.4555 5.37885 12.2427 5.29069 12.0208 5.29069C11.7988 5.29069 11.586 5.37885 11.4291 5.53577C11.2722 5.69269 11.184 5.90552 11.184 6.12743L11.1899 10.0106L6.71746 5.53818C6.56118 5.3819 6.34922 5.2941 6.1282 5.2941C5.90719 5.2941 5.69523 5.3819 5.53895 5.53818C5.38267 5.69446 5.29487 5.90642 5.29487 6.12743C5.29487 6.34845 5.38267 6.56041 5.53895 6.71669L10.0114 11.1891L6.1282 11.1832C6.01819 11.1828 5.90919 11.2041 5.80746 11.246C5.70574 11.2879 5.61332 11.3495 5.53553 11.4273C5.45774 11.5051 5.39613 11.5975 5.35424 11.6992C5.31235 11.801 5.29101 11.91 5.29146 12.02C5.29101 12.13 5.31234 12.239 5.35424 12.3407C5.39613 12.4425 5.45774 12.5349 5.53553 12.6127C5.61332 12.6904 5.70574 12.7521 5.80746 12.794C5.90918 12.8358 6.0182 12.8572 6.1282 12.8567Z" fill="#1E558E"/>
</svg>