<svg width="258" height="8" viewBox="0 0 258 8" fill="none" xmlns="http://www.w3.org/2000/svg">
<path d="M256.557 0.605343C257.695 1.53989 257.86 3.22023 256.926 4.3585C255.991 5.49677 254.311 5.66192 253.173 4.72737C252.034 3.79283 251.869 2.11248 252.804 0.974217C253.738 -0.16405 255.419 -0.329201 256.557 0.605343ZM4.35871 2.93934C5.49698 3.87388 5.66213 5.55422 4.72758 6.69249C3.79305 7.83075 2.1127 7.9959 0.974437 7.06136C-0.16383 6.12682 -0.328981 4.44648 0.605554 3.30822C1.5401 2.16995 3.22044 2.00479 4.35871 2.93934ZM254.865 2.66636L254.869 3.16633L2.6712 5.50033L2.66657 5.00036L2.66195 4.50037L254.86 2.16637L254.865 2.66636Z" fill="white"/>
</svg>
