<svg width="32" height="32" viewBox="0 0 32 32" fill="none" xmlns="http://www.w3.org/2000/svg">
<path d="M18.6667 21.3331C17.549 21.3331 16.4437 21.0988 15.4221 20.6455C14.4005 20.1921 13.4852 19.5298 12.7353 18.7011C11.9853 17.8723 11.4173 16.8957 11.0679 15.834C10.7185 14.7723 10.5955 13.6492 10.7067 12.5371C9.70538 12.9665 8.82456 13.6348 8.14127 14.4834C7.45797 15.332 6.99302 16.3351 6.78709 17.4049C6.58115 18.4748 6.6405 19.5788 6.95995 20.6204C7.2794 21.662 7.84921 22.6095 8.61954 23.3799C9.38987 24.1504 10.3373 24.7203 11.3788 25.0399C12.4204 25.3595 13.5244 25.4191 14.5943 25.2133C15.6642 25.0075 16.6673 24.5427 17.516 23.8596C18.3647 23.1764 19.0331 22.2957 19.4627 21.2944C19.1987 21.3202 18.9333 21.3331 18.6667 21.3331Z" fill="#0071E3"/>
<path d="M18.6663 20.0013C14.9844 20.0013 11.9997 17.0165 11.9997 13.3346C11.9997 9.65274 14.9844 6.66797 18.6663 6.66797C22.3482 6.66797 25.333 9.65274 25.333 13.3346C25.333 17.0165 22.3482 20.0013 18.6663 20.0013Z" fill="#0071E3"/>
</svg>
