<svg width="151" height="54" viewBox="0 0 151 54" fill="none" xmlns="http://www.w3.org/2000/svg">
<rect width="151" height="54" rx="27" fill="#262B3A"/>
<path d="M18.998 35.5004V18.5004C18.998 17.9104 19.338 17.3904 19.838 17.1504L29.688 27.0004L19.838 36.8504C19.338 36.6004 18.998 36.0904 18.998 35.5004ZM32.808 30.1204L22.048 36.3404L30.538 27.8504L32.808 30.1204ZM36.158 25.8104C36.498 26.0804 36.748 26.5004 36.748 27.0004C36.748 27.5004 36.528 27.9004 36.178 28.1804L33.888 29.5004L31.388 27.0004L33.888 24.5004L36.158 25.8104ZM22.048 17.6604L32.808 23.8804L30.538 26.1504L22.048 17.6604Z" fill="white"/>
<path d="M44.56 21.5V15.74H46.308C46.3693 15.74 46.4733 15.7413 46.62 15.744C46.7693 15.7467 46.912 15.7573 47.048 15.776C47.4853 15.8373 47.8507 16 48.144 16.264C48.4373 16.528 48.6573 16.864 48.804 17.272C48.9507 17.68 49.024 18.1293 49.024 18.62C49.024 19.1107 48.9507 19.56 48.804 19.968C48.6573 20.376 48.4373 20.712 48.144 20.976C47.8507 21.24 47.4853 21.4027 47.048 21.464C46.9147 21.48 46.772 21.4907 46.62 21.496C46.468 21.4987 46.364 21.5 46.308 21.5H44.56ZM45.168 20.936H46.308C46.4173 20.936 46.5347 20.9333 46.66 20.928C46.788 20.92 46.8973 20.9067 46.988 20.888C47.324 20.8293 47.5947 20.6933 47.8 20.48C48.008 20.2667 48.16 20 48.256 19.68C48.352 19.3573 48.4 19.004 48.4 18.62C48.4 18.2333 48.352 17.8787 48.256 17.556C48.16 17.2333 48.008 16.9667 47.8 16.756C47.592 16.5453 47.3213 16.4107 46.988 16.352C46.8973 16.3333 46.7867 16.3213 46.656 16.316C46.528 16.308 46.412 16.304 46.308 16.304H45.168V20.936ZM51.739 21.62C51.3097 21.62 50.943 21.5227 50.639 21.328C50.335 21.1333 50.1017 20.864 49.939 20.52C49.7763 20.176 49.695 19.7813 49.695 19.336C49.695 18.8827 49.7777 18.4853 49.943 18.144C50.1083 17.8027 50.343 17.5373 50.647 17.348C50.9537 17.156 51.3177 17.06 51.739 17.06C52.171 17.06 52.539 17.1573 52.843 17.352C53.1497 17.544 53.383 17.812 53.543 18.156C53.7057 18.4973 53.787 18.8907 53.787 19.336C53.787 19.7893 53.7057 20.188 53.543 20.532C53.3803 20.8733 53.1457 21.14 52.839 21.332C52.5323 21.524 52.1657 21.62 51.739 21.62ZM51.739 21.056C52.219 21.056 52.5763 20.8973 52.811 20.58C53.0457 20.26 53.163 19.8453 53.163 19.336C53.163 18.8133 53.0443 18.3973 52.807 18.088C52.5723 17.7787 52.2163 17.624 51.739 17.624C51.4163 17.624 51.1497 17.6973 50.939 17.844C50.731 17.988 50.575 18.1893 50.471 18.448C50.3697 18.704 50.319 19 50.319 19.336C50.319 19.856 50.439 20.2733 50.679 20.588C50.919 20.9 51.2723 21.056 51.739 21.056ZM55.4331 21.5L54.1131 17.176L54.7011 17.18L55.7251 20.536L56.7531 17.18H57.2891L58.3171 20.536L59.3491 17.18H59.9331L58.6131 21.5H58.1011L57.0211 18.06L55.9451 21.5H55.4331ZM63.7738 21.5V19.296C63.7738 19.056 63.7511 18.836 63.7058 18.636C63.6604 18.4333 63.5871 18.2573 63.4858 18.108C63.3871 17.956 63.2578 17.8387 63.0978 17.756C62.9404 17.6733 62.7484 17.632 62.5218 17.632C62.3138 17.632 62.1298 17.668 61.9698 17.74C61.8124 17.812 61.6791 17.916 61.5698 18.052C61.4631 18.1853 61.3818 18.348 61.3258 18.54C61.2698 18.732 61.2418 18.9507 61.2418 19.196L60.8258 19.104C60.8258 18.6613 60.9031 18.2893 61.0578 17.988C61.2124 17.6867 61.4258 17.4587 61.6978 17.304C61.9698 17.1493 62.2818 17.072 62.6338 17.072C62.8924 17.072 63.1178 17.112 63.3098 17.192C63.5044 17.272 63.6684 17.38 63.8018 17.516C63.9378 17.652 64.0471 17.808 64.1298 17.984C64.2124 18.1573 64.2724 18.3427 64.3098 18.54C64.3471 18.7347 64.3658 18.9293 64.3658 19.124V21.5H63.7738ZM60.6498 21.5V17.18H61.1818V18.244H61.2418V21.5H60.6498ZM65.4838 21.5V15.62H66.0718V21.5H65.4838ZM69.0749 21.62C68.6456 21.62 68.2789 21.5227 67.9749 21.328C67.6709 21.1333 67.4376 20.864 67.2749 20.52C67.1123 20.176 67.0309 19.7813 67.0309 19.336C67.0309 18.8827 67.1136 18.4853 67.2789 18.144C67.4443 17.8027 67.6789 17.5373 67.9829 17.348C68.2896 17.156 68.6536 17.06 69.0749 17.06C69.5069 17.06 69.8749 17.1573 70.1789 17.352C70.4856 17.544 70.7189 17.812 70.8789 18.156C71.0416 18.4973 71.1229 18.8907 71.1229 19.336C71.1229 19.7893 71.0416 20.188 70.8789 20.532C70.7163 20.8733 70.4816 21.14 70.1749 21.332C69.8683 21.524 69.5016 21.62 69.0749 21.62ZM69.0749 21.056C69.5549 21.056 69.9123 20.8973 70.1469 20.58C70.3816 20.26 70.4989 19.8453 70.4989 19.336C70.4989 18.8133 70.3803 18.3973 70.1429 18.088C69.9083 17.7787 69.5523 17.624 69.0749 17.624C68.7523 17.624 68.4856 17.6973 68.2749 17.844C68.0669 17.988 67.9109 18.1893 67.8069 18.448C67.7056 18.704 67.6549 19 67.6549 19.336C67.6549 19.856 67.7749 20.2733 68.0149 20.588C68.2549 20.9 68.6083 21.056 69.0749 21.056ZM73.2413 21.62C72.916 21.62 72.6426 21.5613 72.4213 21.444C72.2026 21.3267 72.0386 21.1707 71.9293 20.976C71.82 20.7813 71.7653 20.5693 71.7653 20.34C71.7653 20.1053 71.812 19.9053 71.9053 19.74C72.0013 19.572 72.1306 19.4347 72.2933 19.328C72.4586 19.2213 72.6493 19.14 72.8653 19.084C73.084 19.0307 73.3253 18.984 73.5893 18.944C73.856 18.9013 74.116 18.8653 74.3693 18.836C74.6253 18.804 74.8493 18.7733 75.0413 18.744L74.8333 18.872C74.8413 18.4453 74.7586 18.1293 74.5853 17.924C74.412 17.7187 74.1106 17.616 73.6813 17.616C73.3853 17.616 73.1346 17.6827 72.9293 17.816C72.7266 17.9493 72.584 18.16 72.5013 18.448L71.9293 18.28C72.028 17.8933 72.2266 17.5933 72.5253 17.38C72.824 17.1667 73.212 17.06 73.6893 17.06C74.084 17.06 74.4186 17.1347 74.6933 17.284C74.9706 17.4307 75.1666 17.644 75.2813 17.924C75.3346 18.0493 75.3693 18.1893 75.3853 18.344C75.4013 18.4987 75.4093 18.656 75.4093 18.816V21.5H74.8853V20.416L75.0373 20.48C74.8906 20.8507 74.6626 21.1333 74.3533 21.328C74.044 21.5227 73.6733 21.62 73.2413 21.62ZM73.3093 21.112C73.584 21.112 73.824 21.0627 74.0293 20.964C74.2346 20.8653 74.4 20.7307 74.5253 20.56C74.6506 20.3867 74.732 20.192 74.7693 19.976C74.8013 19.8373 74.8186 19.6853 74.8213 19.52C74.824 19.352 74.8253 19.2267 74.8253 19.144L75.0493 19.26C74.8493 19.2867 74.632 19.3133 74.3973 19.34C74.1653 19.3667 73.936 19.3973 73.7093 19.432C73.4853 19.4667 73.2826 19.508 73.1013 19.556C72.9786 19.5907 72.86 19.64 72.7453 19.704C72.6306 19.7653 72.536 19.848 72.4613 19.952C72.3893 20.056 72.3533 20.1853 72.3533 20.34C72.3533 20.4653 72.384 20.5867 72.4453 20.704C72.5093 20.8213 72.6106 20.9187 72.7493 20.996C72.8906 21.0733 73.0773 21.112 73.3093 21.112ZM78.1266 21.62C77.724 21.62 77.38 21.52 77.0946 21.32C76.8093 21.1173 76.5906 20.844 76.4386 20.5C76.2866 20.156 76.2106 19.768 76.2106 19.336C76.2106 18.9067 76.2853 18.52 76.4346 18.176C76.5866 17.832 76.804 17.56 77.0866 17.36C77.3693 17.16 77.708 17.06 78.1026 17.06C78.508 17.06 78.8493 17.1587 79.1266 17.356C79.404 17.5533 79.6133 17.824 79.7546 18.168C79.8986 18.5093 79.9706 18.8987 79.9706 19.336C79.9706 19.7653 79.9 20.1533 79.7586 20.5C79.6173 20.844 79.4093 21.1173 79.1346 21.32C78.86 21.52 78.524 21.62 78.1266 21.62ZM78.1866 21.072C78.4933 21.072 78.7466 20.9973 78.9466 20.848C79.1466 20.6987 79.296 20.4933 79.3946 20.232C79.4933 19.968 79.5426 19.6693 79.5426 19.336C79.5426 18.9973 79.4933 18.6987 79.3946 18.44C79.296 18.1787 79.1466 17.9747 78.9466 17.828C78.7493 17.6813 78.5 17.608 78.1986 17.608C77.8893 17.608 77.6333 17.684 77.4306 17.836C77.228 17.988 77.0773 18.1947 76.9786 18.456C76.8826 18.7173 76.8346 19.0107 76.8346 19.336C76.8346 19.664 76.884 19.96 76.9826 20.224C77.084 20.4853 77.2346 20.692 77.4346 20.844C77.6346 20.996 77.8853 21.072 78.1866 21.072ZM79.5426 21.5V18.248H79.4786V15.74H80.0706V21.5H79.5426ZM84.5984 21.62C84.169 21.62 83.8024 21.5227 83.4984 21.328C83.1944 21.1333 82.961 20.864 82.7984 20.52C82.6357 20.176 82.5544 19.7813 82.5544 19.336C82.5544 18.8827 82.637 18.4853 82.8024 18.144C82.9677 17.8027 83.2024 17.5373 83.5064 17.348C83.813 17.156 84.177 17.06 84.5984 17.06C85.0304 17.06 85.3984 17.1573 85.7024 17.352C86.009 17.544 86.2424 17.812 86.4024 18.156C86.565 18.4973 86.6464 18.8907 86.6464 19.336C86.6464 19.7893 86.565 20.188 86.4024 20.532C86.2397 20.8733 86.005 21.14 85.6984 21.332C85.3917 21.524 85.025 21.62 84.5984 21.62ZM84.5984 21.056C85.0784 21.056 85.4357 20.8973 85.6704 20.58C85.905 20.26 86.0224 19.8453 86.0224 19.336C86.0224 18.8133 85.9037 18.3973 85.6664 18.088C85.4317 17.7787 85.0757 17.624 84.5984 17.624C84.2757 17.624 84.009 17.6973 83.7984 17.844C83.5904 17.988 83.4344 18.1893 83.3304 18.448C83.229 18.704 83.1784 19 83.1784 19.336C83.1784 19.856 83.2984 20.2733 83.5384 20.588C83.7784 20.9 84.1317 21.056 84.5984 21.056ZM90.6488 21.5V19.296C90.6488 19.056 90.6261 18.836 90.5808 18.636C90.5354 18.4333 90.4621 18.2573 90.3608 18.108C90.2621 17.956 90.1328 17.8387 89.9728 17.756C89.8154 17.6733 89.6234 17.632 89.3968 17.632C89.1888 17.632 89.0048 17.668 88.8448 17.74C88.6874 17.812 88.5541 17.916 88.4448 18.052C88.3381 18.1853 88.2568 18.348 88.2008 18.54C88.1448 18.732 88.1168 18.9507 88.1168 19.196L87.7008 19.104C87.7008 18.6613 87.7781 18.2893 87.9328 17.988C88.0874 17.6867 88.3008 17.4587 88.5728 17.304C88.8448 17.1493 89.1568 17.072 89.5088 17.072C89.7674 17.072 89.9928 17.112 90.1848 17.192C90.3794 17.272 90.5434 17.38 90.6768 17.516C90.8128 17.652 90.9221 17.808 91.0048 17.984C91.0874 18.1573 91.1474 18.3427 91.1848 18.54C91.2221 18.7347 91.2408 18.9293 91.2408 19.124V21.5H90.6488ZM87.5248 21.5V17.18H88.0568V18.244H88.1168V21.5H87.5248ZM96.2323 21.5C95.9896 21.5507 95.7496 21.5707 95.5123 21.56C95.2776 21.5493 95.067 21.4987 94.8803 21.408C94.6963 21.3173 94.5563 21.176 94.4603 20.984C94.383 20.824 94.3403 20.6627 94.3323 20.5C94.327 20.3347 94.3243 20.1467 94.3243 19.936V15.98H94.9083V19.912C94.9083 20.0933 94.9096 20.2453 94.9123 20.368C94.9176 20.488 94.9456 20.5947 94.9963 20.688C95.0923 20.8667 95.2443 20.9733 95.4523 21.008C95.663 21.0427 95.923 21.0347 96.2323 20.984V21.5ZM93.4003 17.684V17.18H96.2323V17.684H93.4003ZM100.203 21.5V19.296C100.203 19.056 100.181 18.836 100.135 18.636C100.09 18.4333 100.017 18.2573 99.9154 18.108C99.8168 17.956 99.6874 17.8387 99.5274 17.756C99.3701 17.6733 99.1781 17.632 98.9514 17.632C98.7434 17.632 98.5594 17.668 98.3994 17.74C98.2421 17.812 98.1088 17.916 97.9994 18.052C97.8928 18.1853 97.8114 18.348 97.7554 18.54C97.6994 18.732 97.6714 18.9507 97.6714 19.196L97.2554 19.104C97.2554 18.6613 97.3328 18.2893 97.4874 17.988C97.6421 17.6867 97.8554 17.4587 98.1274 17.304C98.3994 17.1493 98.7114 17.072 99.0634 17.072C99.3221 17.072 99.5474 17.112 99.7394 17.192C99.9341 17.272 100.098 17.38 100.231 17.516C100.367 17.652 100.477 17.808 100.559 17.984C100.642 18.1573 100.702 18.3427 100.739 18.54C100.777 18.7347 100.795 18.9293 100.795 19.124V21.5H100.203ZM97.0794 21.5V15.74H97.6114V18.992H97.6714V21.5H97.0794ZM103.661 21.62C103.24 21.62 102.875 21.5267 102.565 21.34C102.259 21.1533 102.02 20.8907 101.849 20.552C101.679 20.2133 101.593 19.816 101.593 19.36C101.593 18.888 101.677 18.48 101.845 18.136C102.013 17.792 102.249 17.5267 102.553 17.34C102.86 17.1533 103.221 17.06 103.637 17.06C104.064 17.06 104.428 17.1587 104.729 17.356C105.031 17.5507 105.259 17.8307 105.413 18.196C105.568 18.5613 105.639 18.9973 105.625 19.504H105.025V19.296C105.015 18.736 104.893 18.3133 104.661 18.028C104.432 17.7427 104.096 17.6 103.653 17.6C103.189 17.6 102.833 17.7507 102.585 18.052C102.34 18.3533 102.217 18.7827 102.217 19.34C102.217 19.884 102.34 20.3067 102.585 20.608C102.833 20.9067 103.184 21.056 103.637 21.056C103.947 21.056 104.216 20.9853 104.445 20.844C104.677 20.7 104.86 20.4933 104.993 20.224L105.541 20.436C105.371 20.812 105.119 21.104 104.785 21.312C104.455 21.5173 104.08 21.62 103.661 21.62ZM102.009 19.504V19.012H105.309V19.504H102.009ZM106.833 20.86V20.176H107.517V20.86H106.833ZM106.837 18.504V17.82H107.521V18.504H106.837Z" fill="#8A8484"/>
<path d="M48.374 38.68C47.794 38.68 47.26 38.58 46.772 38.38C46.284 38.176 45.86 37.88 45.5 37.492C45.14 37.104 44.86 36.632 44.66 36.076C44.46 35.52 44.36 34.888 44.36 34.18C44.36 33.248 44.53 32.448 44.87 31.78C45.21 31.108 45.682 30.592 46.286 30.232C46.89 29.868 47.586 29.686 48.374 29.686C49.39 29.686 50.2 29.922 50.804 30.394C51.412 30.866 51.826 31.518 52.046 32.35L50.774 32.578C50.598 32.062 50.314 31.65 49.922 31.342C49.53 31.034 49.038 30.878 48.446 30.874C47.834 30.87 47.324 31.006 46.916 31.282C46.512 31.558 46.208 31.946 46.004 32.446C45.8 32.942 45.696 33.52 45.692 34.18C45.688 34.84 45.788 35.418 45.992 35.914C46.196 36.406 46.502 36.79 46.91 37.066C47.322 37.342 47.834 37.482 48.446 37.486C48.938 37.494 49.36 37.404 49.712 37.216C50.068 37.024 50.35 36.744 50.558 36.376C50.766 36.008 50.9 35.556 50.96 35.02H49.28V34.012H52.292C52.3 34.084 52.306 34.18 52.31 34.3C52.314 34.416 52.316 34.49 52.316 34.522C52.316 35.322 52.162 36.036 51.854 36.664C51.546 37.292 51.098 37.786 50.51 38.146C49.922 38.502 49.21 38.68 48.374 38.68ZM56.3259 38.68C55.6779 38.68 55.1159 38.534 54.6399 38.242C54.1639 37.95 53.7959 37.548 53.5359 37.036C53.2799 36.52 53.1519 35.926 53.1519 35.254C53.1519 34.578 53.2839 33.984 53.5479 33.472C53.8119 32.956 54.1819 32.556 54.6579 32.272C55.1339 31.984 55.6899 31.84 56.3259 31.84C56.9739 31.84 57.5359 31.986 58.0119 32.278C58.4879 32.57 58.8559 32.972 59.1159 33.484C59.3759 33.996 59.5059 34.586 59.5059 35.254C59.5059 35.93 59.3739 36.526 59.1099 37.042C58.8499 37.554 58.4819 37.956 58.0059 38.248C57.5299 38.536 56.9699 38.68 56.3259 38.68ZM56.3259 37.498C56.9459 37.498 57.4079 37.29 57.7119 36.874C58.0199 36.454 58.1739 35.914 58.1739 35.254C58.1739 34.578 58.0179 34.038 57.7059 33.634C57.3979 33.226 56.9379 33.022 56.3259 33.022C55.9059 33.022 55.5599 33.118 55.2879 33.31C55.0159 33.498 54.8139 33.76 54.6819 34.096C54.5499 34.428 54.4839 34.814 54.4839 35.254C54.4839 35.934 54.6399 36.478 54.9519 36.886C55.2639 37.294 55.7219 37.498 56.3259 37.498ZM63.6384 38.68C62.9904 38.68 62.4284 38.534 61.9524 38.242C61.4764 37.95 61.1084 37.548 60.8484 37.036C60.5924 36.52 60.4644 35.926 60.4644 35.254C60.4644 34.578 60.5964 33.984 60.8604 33.472C61.1244 32.956 61.4944 32.556 61.9704 32.272C62.4464 31.984 63.0024 31.84 63.6384 31.84C64.2864 31.84 64.8484 31.986 65.3244 32.278C65.8004 32.57 66.1684 32.972 66.4284 33.484C66.6884 33.996 66.8184 34.586 66.8184 35.254C66.8184 35.93 66.6864 36.526 66.4224 37.042C66.1624 37.554 65.7944 37.956 65.3184 38.248C64.8424 38.536 64.2824 38.68 63.6384 38.68ZM63.6384 37.498C64.2584 37.498 64.7204 37.29 65.0244 36.874C65.3324 36.454 65.4864 35.914 65.4864 35.254C65.4864 34.578 65.3304 34.038 65.0184 33.634C64.7104 33.226 64.2504 33.022 63.6384 33.022C63.2184 33.022 62.8724 33.118 62.6004 33.31C62.3284 33.498 62.1264 33.76 61.9944 34.096C61.8624 34.428 61.7964 34.814 61.7964 35.254C61.7964 35.934 61.9524 36.478 62.2644 36.886C62.5764 37.294 63.0344 37.498 63.6384 37.498ZM70.8069 41.56C70.4589 41.56 70.1209 41.506 69.7929 41.398C69.4689 41.29 69.1729 41.13 68.9049 40.918C68.6369 40.71 68.4149 40.452 68.2389 40.144L69.3969 39.556C69.5369 39.832 69.7369 40.034 69.9969 40.162C70.2569 40.29 70.5309 40.354 70.8189 40.354C71.1749 40.354 71.4789 40.29 71.7309 40.162C71.9829 40.038 72.1729 39.85 72.3009 39.598C72.4329 39.346 72.4969 39.034 72.4929 38.662V36.85H72.6429V32.02H73.7529V38.674C73.7529 38.846 73.7469 39.01 73.7349 39.166C73.7229 39.322 73.7009 39.478 73.6689 39.634C73.5769 40.07 73.4009 40.43 73.1409 40.714C72.8849 40.998 72.5569 41.21 72.1569 41.35C71.7609 41.49 71.3109 41.56 70.8069 41.56ZM70.7109 38.68C70.1069 38.68 69.5849 38.53 69.1449 38.23C68.7089 37.93 68.3709 37.522 68.1309 37.006C67.8949 36.486 67.7769 35.902 67.7769 35.254C67.7769 34.602 67.8969 34.02 68.1369 33.508C68.3769 32.992 68.7169 32.586 69.1569 32.29C69.6009 31.99 70.1269 31.84 70.7349 31.84C71.3469 31.84 71.8609 31.99 72.2769 32.29C72.6969 32.586 73.0129 32.992 73.2249 33.508C73.4409 34.024 73.5489 34.606 73.5489 35.254C73.5489 35.902 73.4409 36.484 73.2249 37C73.0089 37.516 72.6909 37.926 72.2709 38.23C71.8509 38.53 71.3309 38.68 70.7109 38.68ZM70.8849 37.546C71.2969 37.546 71.6329 37.448 71.8929 37.252C72.1529 37.056 72.3429 36.786 72.4629 36.442C72.5829 36.098 72.6429 35.702 72.6429 35.254C72.6429 34.806 72.5809 34.41 72.4569 34.066C72.3369 33.722 72.1489 33.454 71.8929 33.262C71.6409 33.07 71.3189 32.974 70.9269 32.974C70.5109 32.974 70.1689 33.076 69.9009 33.28C69.6329 33.484 69.4329 33.758 69.3009 34.102C69.1729 34.446 69.1089 34.83 69.1089 35.254C69.1089 35.682 69.1729 36.07 69.3009 36.418C69.4329 36.762 69.6289 37.036 69.8889 37.24C70.1529 37.444 70.4849 37.546 70.8849 37.546ZM75.5577 38.5V29.68H76.8117V38.5H75.5577ZM81.4874 38.68C80.8434 38.68 80.2774 38.54 79.7894 38.26C79.3054 37.976 78.9274 37.582 78.6554 37.078C78.3874 36.57 78.2534 35.982 78.2534 35.314C78.2534 34.606 78.3854 33.992 78.6494 33.472C78.9174 32.952 79.2894 32.55 79.7654 32.266C80.2414 31.982 80.7954 31.84 81.4274 31.84C82.0874 31.84 82.6494 31.994 83.1134 32.302C83.5774 32.606 83.9234 33.04 84.1514 33.604C84.3834 34.168 84.4754 34.838 84.4274 35.614H83.1734V35.158C83.1654 34.406 83.0214 33.85 82.7414 33.49C82.4654 33.13 82.0434 32.95 81.4754 32.95C80.8474 32.95 80.3754 33.148 80.0594 33.544C79.7434 33.94 79.5854 34.512 79.5854 35.26C79.5854 35.972 79.7434 36.524 80.0594 36.916C80.3754 37.304 80.8314 37.498 81.4274 37.498C81.8194 37.498 82.1574 37.41 82.4414 37.234C82.7294 37.054 82.9534 36.798 83.1134 36.466L84.3434 36.856C84.0914 37.436 83.7094 37.886 83.1974 38.206C82.6854 38.522 82.1154 38.68 81.4874 38.68ZM79.1774 35.614V34.636H83.8034V35.614H79.1774ZM91.2179 38.68C90.5979 38.68 90.0779 38.53 89.6579 38.23C89.2379 37.926 88.9199 37.516 88.7039 37C88.4879 36.484 88.3799 35.902 88.3799 35.254C88.3799 34.606 88.4859 34.024 88.6979 33.508C88.9139 32.992 89.2299 32.586 89.6459 32.29C90.0659 31.99 90.5819 31.84 91.1939 31.84C91.8019 31.84 92.3259 31.99 92.7659 32.29C93.2099 32.586 93.5519 32.992 93.7919 33.508C94.0319 34.02 94.1519 34.602 94.1519 35.254C94.1519 35.902 94.0319 36.486 93.7919 37.006C93.5559 37.522 93.2179 37.93 92.7779 38.23C92.3419 38.53 91.8219 38.68 91.2179 38.68ZM88.1699 41.38V32.02H89.2859V36.682H89.4299V41.38H88.1699ZM91.0439 37.546C91.4439 37.546 91.7739 37.444 92.0339 37.24C92.2979 37.036 92.4939 36.762 92.6219 36.418C92.7539 36.07 92.8199 35.682 92.8199 35.254C92.8199 34.83 92.7539 34.446 92.6219 34.102C92.4939 33.758 92.2959 33.484 92.0279 33.28C91.7599 33.076 91.4179 32.974 91.0019 32.974C90.6099 32.974 90.2859 33.07 90.0299 33.262C89.7779 33.454 89.5899 33.722 89.4659 34.066C89.3459 34.41 89.2859 34.806 89.2859 35.254C89.2859 35.702 89.3459 36.098 89.4659 36.442C89.5859 36.786 89.7759 37.056 90.0359 37.252C90.2959 37.448 90.6319 37.546 91.0439 37.546ZM95.5967 38.5V29.68H96.8507V38.5H95.5967ZM100.483 38.68C100.003 38.68 99.6005 38.592 99.2765 38.416C98.9525 38.236 98.7065 38 98.5385 37.708C98.3745 37.412 98.2925 37.088 98.2925 36.736C98.2925 36.408 98.3505 36.12 98.4665 35.872C98.5825 35.624 98.7545 35.414 98.9825 35.242C99.2105 35.066 99.4905 34.924 99.8225 34.816C100.111 34.732 100.437 34.658 100.801 34.594C101.165 34.53 101.547 34.47 101.947 34.414C102.351 34.358 102.751 34.302 103.147 34.246L102.691 34.498C102.699 33.99 102.591 33.614 102.367 33.37C102.147 33.122 101.767 32.998 101.227 32.998C100.887 32.998 100.575 33.078 100.291 33.238C100.007 33.394 99.8085 33.654 99.6965 34.018L98.5265 33.658C98.6865 33.102 98.9905 32.66 99.4385 32.332C99.8905 32.004 100.491 31.84 101.239 31.84C101.819 31.84 102.323 31.94 102.751 32.14C103.183 32.336 103.499 32.648 103.699 33.076C103.803 33.288 103.867 33.512 103.891 33.748C103.915 33.984 103.927 34.238 103.927 34.51V38.5H102.817V37.018L103.033 37.21C102.765 37.706 102.423 38.076 102.007 38.32C101.595 38.56 101.087 38.68 100.483 38.68ZM100.705 37.654C101.061 37.654 101.367 37.592 101.623 37.468C101.879 37.34 102.085 37.178 102.241 36.982C102.397 36.786 102.499 36.582 102.547 36.37C102.615 36.178 102.653 35.962 102.661 35.722C102.673 35.482 102.679 35.29 102.679 35.146L103.087 35.296C102.691 35.356 102.331 35.41 102.007 35.458C101.683 35.506 101.389 35.554 101.125 35.602C100.865 35.646 100.633 35.7 100.429 35.764C100.257 35.824 100.103 35.896 99.9665 35.98C99.8345 36.064 99.7285 36.166 99.6485 36.286C99.5725 36.406 99.5345 36.552 99.5345 36.724C99.5345 36.892 99.5765 37.048 99.6605 37.192C99.7445 37.332 99.8725 37.444 100.045 37.528C100.217 37.612 100.437 37.654 100.705 37.654ZM105.997 41.38L107.251 37.966L107.269 38.974L104.443 32.02H105.751L107.863 37.39H107.479L109.495 32.02H110.767L107.191 41.38H105.997Z" fill="white"/>
<path d="M119 8H124C134.493 8 143 16.5066 143 27C143 37.4934 134.493 46 124 46H119V8Z" fill="#29344C"/>
<path d="M128.9 22.8008L132.1 26.0008L128.9 29.2008" stroke="white" stroke-linecap="round" stroke-linejoin="round"/>
</svg>
