<svg width="151" height="54" viewBox="0 0 151 54" fill="none" xmlns="http://www.w3.org/2000/svg">
<rect width="151" height="54" rx="27" fill="#262B3A"/>
<path d="M33.5172 27.5555C33.5078 25.957 34.232 24.7523 35.6945 23.8641C34.8766 22.6922 33.6391 22.0477 32.0078 21.9234C30.4633 21.8016 28.7734 22.8234 28.1547 22.8234C27.5008 22.8234 26.0055 21.9656 24.8289 21.9656C22.4008 22.0031 19.8203 23.9016 19.8203 27.7641C19.8203 28.9055 20.0289 30.0844 20.4461 31.2984C21.0039 32.8969 23.0148 36.8133 25.1125 36.75C26.2094 36.7242 26.9852 35.9719 28.4125 35.9719C29.7977 35.9719 30.5148 36.75 31.7383 36.75C33.8547 36.7195 35.6734 33.1594 36.2031 31.5563C33.3648 30.218 33.5172 27.6375 33.5172 27.5555ZM31.0539 20.407C32.2422 18.9961 32.1344 17.7117 32.0992 17.25C31.0492 17.3109 29.8352 17.9648 29.1437 18.7688C28.382 19.6313 27.9344 20.6977 28.0305 21.9C29.1648 21.9867 30.2008 21.4031 31.0539 20.407Z" fill="white"/>
<path d="M44.56 21.5V15.74H46.308C46.3693 15.74 46.4733 15.7413 46.62 15.744C46.7693 15.7467 46.912 15.7573 47.048 15.776C47.4853 15.8373 47.8507 16 48.144 16.264C48.4373 16.528 48.6573 16.864 48.804 17.272C48.9507 17.68 49.024 18.1293 49.024 18.62C49.024 19.1107 48.9507 19.56 48.804 19.968C48.6573 20.376 48.4373 20.712 48.144 20.976C47.8507 21.24 47.4853 21.4027 47.048 21.464C46.9147 21.48 46.772 21.4907 46.62 21.496C46.468 21.4987 46.364 21.5 46.308 21.5H44.56ZM45.168 20.936H46.308C46.4173 20.936 46.5347 20.9333 46.66 20.928C46.788 20.92 46.8973 20.9067 46.988 20.888C47.324 20.8293 47.5947 20.6933 47.8 20.48C48.008 20.2667 48.16 20 48.256 19.68C48.352 19.3573 48.4 19.004 48.4 18.62C48.4 18.2333 48.352 17.8787 48.256 17.556C48.16 17.2333 48.008 16.9667 47.8 16.756C47.592 16.5453 47.3213 16.4107 46.988 16.352C46.8973 16.3333 46.7867 16.3213 46.656 16.316C46.528 16.308 46.412 16.304 46.308 16.304H45.168V20.936ZM51.739 21.62C51.3097 21.62 50.943 21.5227 50.639 21.328C50.335 21.1333 50.1017 20.864 49.939 20.52C49.7763 20.176 49.695 19.7813 49.695 19.336C49.695 18.8827 49.7777 18.4853 49.943 18.144C50.1083 17.8027 50.343 17.5373 50.647 17.348C50.9537 17.156 51.3177 17.06 51.739 17.06C52.171 17.06 52.539 17.1573 52.843 17.352C53.1497 17.544 53.383 17.812 53.543 18.156C53.7057 18.4973 53.787 18.8907 53.787 19.336C53.787 19.7893 53.7057 20.188 53.543 20.532C53.3803 20.8733 53.1457 21.14 52.839 21.332C52.5323 21.524 52.1657 21.62 51.739 21.62ZM51.739 21.056C52.219 21.056 52.5763 20.8973 52.811 20.58C53.0457 20.26 53.163 19.8453 53.163 19.336C53.163 18.8133 53.0443 18.3973 52.807 18.088C52.5723 17.7787 52.2163 17.624 51.739 17.624C51.4163 17.624 51.1497 17.6973 50.939 17.844C50.731 17.988 50.575 18.1893 50.471 18.448C50.3697 18.704 50.319 19 50.319 19.336C50.319 19.856 50.439 20.2733 50.679 20.588C50.919 20.9 51.2723 21.056 51.739 21.056ZM55.4331 21.5L54.1131 17.176L54.7011 17.18L55.7251 20.536L56.7531 17.18H57.2891L58.3171 20.536L59.3491 17.18H59.9331L58.6131 21.5H58.1011L57.0211 18.06L55.9451 21.5H55.4331ZM63.7738 21.5V19.296C63.7738 19.056 63.7511 18.836 63.7058 18.636C63.6604 18.4333 63.5871 18.2573 63.4858 18.108C63.3871 17.956 63.2578 17.8387 63.0978 17.756C62.9404 17.6733 62.7484 17.632 62.5218 17.632C62.3138 17.632 62.1298 17.668 61.9698 17.74C61.8124 17.812 61.6791 17.916 61.5698 18.052C61.4631 18.1853 61.3818 18.348 61.3258 18.54C61.2698 18.732 61.2418 18.9507 61.2418 19.196L60.8258 19.104C60.8258 18.6613 60.9031 18.2893 61.0578 17.988C61.2124 17.6867 61.4258 17.4587 61.6978 17.304C61.9698 17.1493 62.2818 17.072 62.6338 17.072C62.8924 17.072 63.1178 17.112 63.3098 17.192C63.5044 17.272 63.6684 17.38 63.8018 17.516C63.9378 17.652 64.0471 17.808 64.1298 17.984C64.2124 18.1573 64.2724 18.3427 64.3098 18.54C64.3471 18.7347 64.3658 18.9293 64.3658 19.124V21.5H63.7738ZM60.6498 21.5V17.18H61.1818V18.244H61.2418V21.5H60.6498ZM65.4838 21.5V15.62H66.0718V21.5H65.4838ZM69.0749 21.62C68.6456 21.62 68.2789 21.5227 67.9749 21.328C67.6709 21.1333 67.4376 20.864 67.2749 20.52C67.1123 20.176 67.0309 19.7813 67.0309 19.336C67.0309 18.8827 67.1136 18.4853 67.2789 18.144C67.4443 17.8027 67.6789 17.5373 67.9829 17.348C68.2896 17.156 68.6536 17.06 69.0749 17.06C69.5069 17.06 69.8749 17.1573 70.1789 17.352C70.4856 17.544 70.7189 17.812 70.8789 18.156C71.0416 18.4973 71.1229 18.8907 71.1229 19.336C71.1229 19.7893 71.0416 20.188 70.8789 20.532C70.7163 20.8733 70.4816 21.14 70.1749 21.332C69.8683 21.524 69.5016 21.62 69.0749 21.62ZM69.0749 21.056C69.5549 21.056 69.9123 20.8973 70.1469 20.58C70.3816 20.26 70.4989 19.8453 70.4989 19.336C70.4989 18.8133 70.3803 18.3973 70.1429 18.088C69.9083 17.7787 69.5523 17.624 69.0749 17.624C68.7523 17.624 68.4856 17.6973 68.2749 17.844C68.0669 17.988 67.9109 18.1893 67.8069 18.448C67.7056 18.704 67.6549 19 67.6549 19.336C67.6549 19.856 67.7749 20.2733 68.0149 20.588C68.2549 20.9 68.6083 21.056 69.0749 21.056ZM73.2413 21.62C72.916 21.62 72.6426 21.5613 72.4213 21.444C72.2026 21.3267 72.0386 21.1707 71.9293 20.976C71.82 20.7813 71.7653 20.5693 71.7653 20.34C71.7653 20.1053 71.812 19.9053 71.9053 19.74C72.0013 19.572 72.1306 19.4347 72.2933 19.328C72.4586 19.2213 72.6493 19.14 72.8653 19.084C73.084 19.0307 73.3253 18.984 73.5893 18.944C73.856 18.9013 74.116 18.8653 74.3693 18.836C74.6253 18.804 74.8493 18.7733 75.0413 18.744L74.8333 18.872C74.8413 18.4453 74.7586 18.1293 74.5853 17.924C74.412 17.7187 74.1106 17.616 73.6813 17.616C73.3853 17.616 73.1346 17.6827 72.9293 17.816C72.7266 17.9493 72.584 18.16 72.5013 18.448L71.9293 18.28C72.028 17.8933 72.2266 17.5933 72.5253 17.38C72.824 17.1667 73.212 17.06 73.6893 17.06C74.084 17.06 74.4186 17.1347 74.6933 17.284C74.9706 17.4307 75.1666 17.644 75.2813 17.924C75.3346 18.0493 75.3693 18.1893 75.3853 18.344C75.4013 18.4987 75.4093 18.656 75.4093 18.816V21.5H74.8853V20.416L75.0373 20.48C74.8906 20.8507 74.6626 21.1333 74.3533 21.328C74.044 21.5227 73.6733 21.62 73.2413 21.62ZM73.3093 21.112C73.584 21.112 73.824 21.0627 74.0293 20.964C74.2346 20.8653 74.4 20.7307 74.5253 20.56C74.6506 20.3867 74.732 20.192 74.7693 19.976C74.8013 19.8373 74.8186 19.6853 74.8213 19.52C74.824 19.352 74.8253 19.2267 74.8253 19.144L75.0493 19.26C74.8493 19.2867 74.632 19.3133 74.3973 19.34C74.1653 19.3667 73.936 19.3973 73.7093 19.432C73.4853 19.4667 73.2826 19.508 73.1013 19.556C72.9786 19.5907 72.86 19.64 72.7453 19.704C72.6306 19.7653 72.536 19.848 72.4613 19.952C72.3893 20.056 72.3533 20.1853 72.3533 20.34C72.3533 20.4653 72.384 20.5867 72.4453 20.704C72.5093 20.8213 72.6106 20.9187 72.7493 20.996C72.8906 21.0733 73.0773 21.112 73.3093 21.112ZM78.1266 21.62C77.724 21.62 77.38 21.52 77.0946 21.32C76.8093 21.1173 76.5906 20.844 76.4386 20.5C76.2866 20.156 76.2106 19.768 76.2106 19.336C76.2106 18.9067 76.2853 18.52 76.4346 18.176C76.5866 17.832 76.804 17.56 77.0866 17.36C77.3693 17.16 77.708 17.06 78.1026 17.06C78.508 17.06 78.8493 17.1587 79.1266 17.356C79.404 17.5533 79.6133 17.824 79.7546 18.168C79.8986 18.5093 79.9706 18.8987 79.9706 19.336C79.9706 19.7653 79.9 20.1533 79.7586 20.5C79.6173 20.844 79.4093 21.1173 79.1346 21.32C78.86 21.52 78.524 21.62 78.1266 21.62ZM78.1866 21.072C78.4933 21.072 78.7466 20.9973 78.9466 20.848C79.1466 20.6987 79.296 20.4933 79.3946 20.232C79.4933 19.968 79.5426 19.6693 79.5426 19.336C79.5426 18.9973 79.4933 18.6987 79.3946 18.44C79.296 18.1787 79.1466 17.9747 78.9466 17.828C78.7493 17.6813 78.5 17.608 78.1986 17.608C77.8893 17.608 77.6333 17.684 77.4306 17.836C77.228 17.988 77.0773 18.1947 76.9786 18.456C76.8826 18.7173 76.8346 19.0107 76.8346 19.336C76.8346 19.664 76.884 19.96 76.9826 20.224C77.084 20.4853 77.2346 20.692 77.4346 20.844C77.6346 20.996 77.8853 21.072 78.1866 21.072ZM79.5426 21.5V18.248H79.4786V15.74H80.0706V21.5H79.5426ZM84.5984 21.62C84.169 21.62 83.8024 21.5227 83.4984 21.328C83.1944 21.1333 82.961 20.864 82.7984 20.52C82.6357 20.176 82.5544 19.7813 82.5544 19.336C82.5544 18.8827 82.637 18.4853 82.8024 18.144C82.9677 17.8027 83.2024 17.5373 83.5064 17.348C83.813 17.156 84.177 17.06 84.5984 17.06C85.0304 17.06 85.3984 17.1573 85.7024 17.352C86.009 17.544 86.2424 17.812 86.4024 18.156C86.565 18.4973 86.6464 18.8907 86.6464 19.336C86.6464 19.7893 86.565 20.188 86.4024 20.532C86.2397 20.8733 86.005 21.14 85.6984 21.332C85.3917 21.524 85.025 21.62 84.5984 21.62ZM84.5984 21.056C85.0784 21.056 85.4357 20.8973 85.6704 20.58C85.905 20.26 86.0224 19.8453 86.0224 19.336C86.0224 18.8133 85.9037 18.3973 85.6664 18.088C85.4317 17.7787 85.0757 17.624 84.5984 17.624C84.2757 17.624 84.009 17.6973 83.7984 17.844C83.5904 17.988 83.4344 18.1893 83.3304 18.448C83.229 18.704 83.1784 19 83.1784 19.336C83.1784 19.856 83.2984 20.2733 83.5384 20.588C83.7784 20.9 84.1317 21.056 84.5984 21.056ZM90.6488 21.5V19.296C90.6488 19.056 90.6261 18.836 90.5808 18.636C90.5354 18.4333 90.4621 18.2573 90.3608 18.108C90.2621 17.956 90.1328 17.8387 89.9728 17.756C89.8154 17.6733 89.6234 17.632 89.3968 17.632C89.1888 17.632 89.0048 17.668 88.8448 17.74C88.6874 17.812 88.5541 17.916 88.4448 18.052C88.3381 18.1853 88.2568 18.348 88.2008 18.54C88.1448 18.732 88.1168 18.9507 88.1168 19.196L87.7008 19.104C87.7008 18.6613 87.7781 18.2893 87.9328 17.988C88.0874 17.6867 88.3008 17.4587 88.5728 17.304C88.8448 17.1493 89.1568 17.072 89.5088 17.072C89.7674 17.072 89.9928 17.112 90.1848 17.192C90.3794 17.272 90.5434 17.38 90.6768 17.516C90.8128 17.652 90.9221 17.808 91.0048 17.984C91.0874 18.1573 91.1474 18.3427 91.1848 18.54C91.2221 18.7347 91.2408 18.9293 91.2408 19.124V21.5H90.6488ZM87.5248 21.5V17.18H88.0568V18.244H88.1168V21.5H87.5248ZM96.2323 21.5C95.9896 21.5507 95.7496 21.5707 95.5123 21.56C95.2776 21.5493 95.067 21.4987 94.8803 21.408C94.6963 21.3173 94.5563 21.176 94.4603 20.984C94.383 20.824 94.3403 20.6627 94.3323 20.5C94.327 20.3347 94.3243 20.1467 94.3243 19.936V15.98H94.9083V19.912C94.9083 20.0933 94.9096 20.2453 94.9123 20.368C94.9176 20.488 94.9456 20.5947 94.9963 20.688C95.0923 20.8667 95.2443 20.9733 95.4523 21.008C95.663 21.0427 95.923 21.0347 96.2323 20.984V21.5ZM93.4003 17.684V17.18H96.2323V17.684H93.4003ZM100.203 21.5V19.296C100.203 19.056 100.181 18.836 100.135 18.636C100.09 18.4333 100.017 18.2573 99.9154 18.108C99.8168 17.956 99.6874 17.8387 99.5274 17.756C99.3701 17.6733 99.1781 17.632 98.9514 17.632C98.7434 17.632 98.5594 17.668 98.3994 17.74C98.2421 17.812 98.1088 17.916 97.9994 18.052C97.8928 18.1853 97.8114 18.348 97.7554 18.54C97.6994 18.732 97.6714 18.9507 97.6714 19.196L97.2554 19.104C97.2554 18.6613 97.3328 18.2893 97.4874 17.988C97.6421 17.6867 97.8554 17.4587 98.1274 17.304C98.3994 17.1493 98.7114 17.072 99.0634 17.072C99.3221 17.072 99.5474 17.112 99.7394 17.192C99.9341 17.272 100.098 17.38 100.231 17.516C100.367 17.652 100.477 17.808 100.559 17.984C100.642 18.1573 100.702 18.3427 100.739 18.54C100.777 18.7347 100.795 18.9293 100.795 19.124V21.5H100.203ZM97.0794 21.5V15.74H97.6114V18.992H97.6714V21.5H97.0794ZM103.661 21.62C103.24 21.62 102.875 21.5267 102.565 21.34C102.259 21.1533 102.02 20.8907 101.849 20.552C101.679 20.2133 101.593 19.816 101.593 19.36C101.593 18.888 101.677 18.48 101.845 18.136C102.013 17.792 102.249 17.5267 102.553 17.34C102.86 17.1533 103.221 17.06 103.637 17.06C104.064 17.06 104.428 17.1587 104.729 17.356C105.031 17.5507 105.259 17.8307 105.413 18.196C105.568 18.5613 105.639 18.9973 105.625 19.504H105.025V19.296C105.015 18.736 104.893 18.3133 104.661 18.028C104.432 17.7427 104.096 17.6 103.653 17.6C103.189 17.6 102.833 17.7507 102.585 18.052C102.34 18.3533 102.217 18.7827 102.217 19.34C102.217 19.884 102.34 20.3067 102.585 20.608C102.833 20.9067 103.184 21.056 103.637 21.056C103.947 21.056 104.216 20.9853 104.445 20.844C104.677 20.7 104.86 20.4933 104.993 20.224L105.541 20.436C105.371 20.812 105.119 21.104 104.785 21.312C104.455 21.5173 104.08 21.62 103.661 21.62ZM102.009 19.504V19.012H105.309V19.504H102.009ZM106.833 20.86V20.176H107.517V20.86H106.833ZM106.837 18.504V17.82H107.521V18.504H106.837Z" fill="#8A8484"/>
<path d="M44.24 38.5L47.048 29.86H48.854L51.662 38.5H50.36L47.774 30.616H48.098L45.542 38.5H44.24ZM45.698 36.55V35.374H50.21V36.55H45.698ZM55.7804 38.68C55.1604 38.68 54.6404 38.53 54.2204 38.23C53.8004 37.926 53.4824 37.516 53.2664 37C53.0504 36.484 52.9424 35.902 52.9424 35.254C52.9424 34.606 53.0484 34.024 53.2604 33.508C53.4764 32.992 53.7924 32.586 54.2084 32.29C54.6284 31.99 55.1444 31.84 55.7564 31.84C56.3644 31.84 56.8884 31.99 57.3284 32.29C57.7724 32.586 58.1144 32.992 58.3544 33.508C58.5944 34.02 58.7144 34.602 58.7144 35.254C58.7144 35.902 58.5944 36.486 58.3544 37.006C58.1184 37.522 57.7804 37.93 57.3404 38.23C56.9044 38.53 56.3844 38.68 55.7804 38.68ZM52.7324 41.38V32.02H53.8484V36.682H53.9924V41.38H52.7324ZM55.6064 37.546C56.0064 37.546 56.3364 37.444 56.5964 37.24C56.8604 37.036 57.0564 36.762 57.1844 36.418C57.3164 36.07 57.3824 35.682 57.3824 35.254C57.3824 34.83 57.3164 34.446 57.1844 34.102C57.0564 33.758 56.8584 33.484 56.5904 33.28C56.3224 33.076 55.9804 32.974 55.5644 32.974C55.1724 32.974 54.8484 33.07 54.5924 33.262C54.3404 33.454 54.1524 33.722 54.0284 34.066C53.9084 34.41 53.8484 34.806 53.8484 35.254C53.8484 35.702 53.9084 36.098 54.0284 36.442C54.1484 36.786 54.3384 37.056 54.5984 37.252C54.8584 37.448 55.1944 37.546 55.6064 37.546ZM63.0812 38.68C62.4612 38.68 61.9412 38.53 61.5212 38.23C61.1012 37.926 60.7832 37.516 60.5672 37C60.3512 36.484 60.2432 35.902 60.2432 35.254C60.2432 34.606 60.3492 34.024 60.5612 33.508C60.7772 32.992 61.0932 32.586 61.5092 32.29C61.9292 31.99 62.4452 31.84 63.0572 31.84C63.6652 31.84 64.1892 31.99 64.6292 32.29C65.0732 32.586 65.4152 32.992 65.6552 33.508C65.8952 34.02 66.0152 34.602 66.0152 35.254C66.0152 35.902 65.8952 36.486 65.6552 37.006C65.4192 37.522 65.0812 37.93 64.6412 38.23C64.2052 38.53 63.6852 38.68 63.0812 38.68ZM60.0332 41.38V32.02H61.1492V36.682H61.2932V41.38H60.0332ZM62.9072 37.546C63.3072 37.546 63.6372 37.444 63.8972 37.24C64.1612 37.036 64.3572 36.762 64.4852 36.418C64.6172 36.07 64.6832 35.682 64.6832 35.254C64.6832 34.83 64.6172 34.446 64.4852 34.102C64.3572 33.758 64.1592 33.484 63.8912 33.28C63.6232 33.076 63.2812 32.974 62.8652 32.974C62.4732 32.974 62.1492 33.07 61.8932 33.262C61.6412 33.454 61.4532 33.722 61.3292 34.066C61.2092 34.41 61.1492 34.806 61.1492 35.254C61.1492 35.702 61.2092 36.098 61.3292 36.442C61.4492 36.786 61.6392 37.056 61.8992 37.252C62.1592 37.448 62.4952 37.546 62.9072 37.546ZM72.8743 38.68C72.2543 38.68 71.6943 38.574 71.1943 38.362C70.6983 38.146 70.2883 37.84 69.9643 37.444C69.6443 37.044 69.4363 36.57 69.3403 36.022L70.6483 35.824C70.7803 36.352 71.0563 36.764 71.4763 37.06C71.8963 37.352 72.3863 37.498 72.9463 37.498C73.2943 37.498 73.6143 37.444 73.9063 37.336C74.1983 37.224 74.4323 37.066 74.6083 36.862C74.7883 36.654 74.8783 36.406 74.8783 36.118C74.8783 35.962 74.8503 35.824 74.7943 35.704C74.7423 35.584 74.6683 35.48 74.5723 35.392C74.4803 35.3 74.3663 35.222 74.2303 35.158C74.0983 35.09 73.9523 35.032 73.7923 34.984L71.5783 34.33C71.3623 34.266 71.1423 34.184 70.9183 34.084C70.6943 33.98 70.4883 33.846 70.3003 33.682C70.1163 33.514 69.9663 33.308 69.8503 33.064C69.7343 32.816 69.6763 32.516 69.6763 32.164C69.6763 31.632 69.8123 31.182 70.0843 30.814C70.3603 30.442 70.7323 30.162 71.2003 29.974C71.6683 29.782 72.1923 29.686 72.7723 29.686C73.3563 29.694 73.8783 29.798 74.3383 29.998C74.8023 30.198 75.1863 30.486 75.4903 30.862C75.7983 31.234 76.0103 31.686 76.1263 32.218L74.7823 32.446C74.7223 32.122 74.5943 31.844 74.3983 31.612C74.2023 31.376 73.9623 31.196 73.6783 31.072C73.3943 30.944 73.0863 30.878 72.7543 30.874C72.4343 30.866 72.1403 30.914 71.8723 31.018C71.6083 31.122 71.3963 31.268 71.2363 31.456C71.0803 31.644 71.0023 31.86 71.0023 32.104C71.0023 32.344 71.0723 32.538 71.2123 32.686C71.3523 32.834 71.5243 32.952 71.7283 33.04C71.9363 33.124 72.1423 33.194 72.3463 33.25L73.9423 33.7C74.1423 33.756 74.3683 33.832 74.6203 33.928C74.8763 34.02 75.1223 34.15 75.3583 34.318C75.5983 34.486 75.7963 34.71 75.9523 34.99C76.1083 35.266 76.1863 35.614 76.1863 36.034C76.1863 36.47 76.0983 36.854 75.9223 37.186C75.7463 37.514 75.5043 37.79 75.1963 38.014C74.8923 38.234 74.5403 38.4 74.1403 38.512C73.7403 38.624 73.3183 38.68 72.8743 38.68ZM81.173 38.5C80.765 38.58 80.365 38.614 79.973 38.602C79.581 38.59 79.231 38.514 78.923 38.374C78.615 38.234 78.383 38.014 78.227 37.714C78.087 37.446 78.011 37.174 77.999 36.898C77.991 36.618 77.987 36.302 77.987 35.95V30.22H79.247V35.89C79.247 36.15 79.249 36.376 79.253 36.568C79.261 36.76 79.303 36.922 79.379 37.054C79.523 37.302 79.751 37.444 80.063 37.48C80.379 37.512 80.749 37.498 81.173 37.438V38.5ZM76.745 33.028V32.02H81.173V33.028H76.745ZM85.0485 38.68C84.4005 38.68 83.8385 38.534 83.3625 38.242C82.8865 37.95 82.5185 37.548 82.2585 37.036C82.0025 36.52 81.8745 35.926 81.8745 35.254C81.8745 34.578 82.0065 33.984 82.2705 33.472C82.5345 32.956 82.9045 32.556 83.3805 32.272C83.8565 31.984 84.4125 31.84 85.0485 31.84C85.6965 31.84 86.2585 31.986 86.7345 32.278C87.2105 32.57 87.5785 32.972 87.8385 33.484C88.0985 33.996 88.2285 34.586 88.2285 35.254C88.2285 35.93 88.0965 36.526 87.8325 37.042C87.5725 37.554 87.2045 37.956 86.7285 38.248C86.2525 38.536 85.6925 38.68 85.0485 38.68ZM85.0485 37.498C85.6685 37.498 86.1305 37.29 86.4345 36.874C86.7425 36.454 86.8965 35.914 86.8965 35.254C86.8965 34.578 86.7405 34.038 86.4285 33.634C86.1205 33.226 85.6605 33.022 85.0485 33.022C84.6285 33.022 84.2825 33.118 84.0105 33.31C83.7385 33.498 83.5365 33.76 83.4045 34.096C83.2725 34.428 83.2065 34.814 83.2065 35.254C83.2065 35.934 83.3625 36.478 83.6745 36.886C83.9865 37.294 84.4445 37.498 85.0485 37.498ZM89.547 38.5V32.02H90.663V33.592L90.507 33.388C90.587 33.18 90.691 32.99 90.819 32.818C90.947 32.642 91.095 32.498 91.263 32.386C91.427 32.266 91.609 32.174 91.809 32.11C92.013 32.042 92.221 32.002 92.433 31.99C92.645 31.974 92.849 31.984 93.045 32.02V33.196C92.833 33.14 92.597 33.124 92.337 33.148C92.081 33.172 91.845 33.254 91.629 33.394C91.425 33.526 91.263 33.686 91.143 33.874C91.027 34.062 90.943 34.272 90.891 34.504C90.839 34.732 90.813 34.974 90.813 35.23V38.5H89.547ZM96.9445 38.68C96.3005 38.68 95.7345 38.54 95.2465 38.26C94.7625 37.976 94.3845 37.582 94.1125 37.078C93.8445 36.57 93.7105 35.982 93.7105 35.314C93.7105 34.606 93.8425 33.992 94.1065 33.472C94.3745 32.952 94.7465 32.55 95.2225 32.266C95.6985 31.982 96.2525 31.84 96.8845 31.84C97.5445 31.84 98.1065 31.994 98.5705 32.302C99.0345 32.606 99.3805 33.04 99.6085 33.604C99.8405 34.168 99.9325 34.838 99.8845 35.614H98.6305V35.158C98.6225 34.406 98.4785 33.85 98.1985 33.49C97.9225 33.13 97.5005 32.95 96.9325 32.95C96.3045 32.95 95.8325 33.148 95.5165 33.544C95.2005 33.94 95.0425 34.512 95.0425 35.26C95.0425 35.972 95.2005 36.524 95.5165 36.916C95.8325 37.304 96.2885 37.498 96.8845 37.498C97.2765 37.498 97.6145 37.41 97.8985 37.234C98.1865 37.054 98.4105 36.798 98.5705 36.466L99.8005 36.856C99.5485 37.436 99.1665 37.886 98.6545 38.206C98.1425 38.522 97.5725 38.68 96.9445 38.68ZM94.6345 35.614V34.636H99.2605V35.614H94.6345Z" fill="white"/>
<path d="M119 8H124C134.493 8 143 16.5066 143 27C143 37.4934 134.493 46 124 46H119V8Z" fill="#29344C"/>
<path d="M128.9 22.8008L132.1 26.0008L128.9 29.2008" stroke="white" stroke-linecap="round" stroke-linejoin="round"/>
</svg>
