<svg xmlns="http://www.w3.org/2000/svg" width="18" height="18" viewBox="0 0 18 18" fill="none">
    <path d="M1.80078 1.49414C1.38657 1.49414 1.05078 1.82993 1.05078 2.24414C1.05078 2.65835 1.38657 2.99414 1.80078 2.99414V2.24414V1.49414ZM3.52018 2.24414L4.2441 2.04808C4.15556 1.72115 3.85889 1.49414 3.52018 1.49414V2.24414ZM6.31421 12.5606L5.59029 12.7566C5.68799 13.1174 6.03639 13.3511 6.40724 13.3048L6.31421 12.5606ZM14.9112 11.4859L15.0043 12.2301C15.3228 12.1903 15.5806 11.9522 15.6457 11.6379L14.9112 11.4859ZM16.2008 5.2531L16.9352 5.40505C16.9809 5.18416 16.9248 4.95444 16.7824 4.77953C16.6399 4.60462 16.4263 4.5031 16.2008 4.5031V5.2531ZM4.33511 5.2531L3.61119 5.44916V5.44916L4.33511 5.2531ZM1.80078 2.24414V2.99414H3.52018V2.24414V1.49414H1.80078V2.24414ZM6.31421 12.5606L6.40724 13.3048L15.0043 12.2301L14.9112 11.4859L14.8182 10.7417L6.22119 11.8164L6.31421 12.5606ZM14.9112 11.4859L15.6457 11.6379L16.9352 5.40505L16.2008 5.2531L15.4663 5.10114L14.1768 11.334L14.9112 11.4859ZM3.52018 2.24414L2.79626 2.4402L3.61119 5.44916L4.33511 5.2531L5.05903 5.05704L4.2441 2.04808L3.52018 2.24414ZM4.33511 5.2531L3.61119 5.44916L5.59029 12.7566L6.31421 12.5606L7.03813 12.3645L5.05903 5.05704L4.33511 5.2531ZM16.2008 5.2531V4.5031H4.33511V5.2531V6.0031H16.2008V5.2531ZM9.00078 15.3746H8.25078C8.25078 15.5817 8.08289 15.7496 7.87578 15.7496V16.4996V17.2496C8.91132 17.2496 9.75078 16.4101 9.75078 15.3746H9.00078ZM7.87578 16.4996V15.7496C7.66867 15.7496 7.50078 15.5817 7.50078 15.3746H6.75078H6.00078C6.00078 16.4101 6.84025 17.2496 7.87578 17.2496V16.4996ZM6.75078 15.3746H7.50078C7.50078 15.1675 7.66867 14.9996 7.87578 14.9996V14.2496V13.4996C6.84025 13.4996 6.00078 14.3391 6.00078 15.3746H6.75078ZM7.87578 14.2496V14.9996C8.08289 14.9996 8.25078 15.1675 8.25078 15.3746H9.00078H9.75078C9.75078 14.3391 8.91132 13.4996 7.87578 13.4996V14.2496ZM15.0008 15.3746H14.2508C14.2508 15.5817 14.0829 15.7496 13.8758 15.7496V16.4996V17.2496C14.9113 17.2496 15.7508 16.4101 15.7508 15.3746H15.0008ZM13.8758 16.4996V15.7496C13.6687 15.7496 13.5008 15.5817 13.5008 15.3746H12.7508H12.0008C12.0008 16.4101 12.8402 17.2496 13.8758 17.2496V16.4996ZM12.7508 15.3746H13.5008C13.5008 15.1675 13.6687 14.9996 13.8758 14.9996V14.2496V13.4996C12.8402 13.4996 12.0008 14.3391 12.0008 15.3746H12.7508ZM13.8758 14.2496V14.9996C14.0829 14.9996 14.2508 15.1675 14.2508 15.3746H15.0008H15.7508C15.7508 14.3391 14.9113 13.4996 13.8758 13.4996V14.2496Z" fill="#252834"/>
</svg>