<svg width="24" height="24" viewBox="0 0 24 24" fill="none" xmlns="http://www.w3.org/2000/svg">
<g clip-path="url(#clip0_13385_35005)">
<path d="M15.2001 18.399C13.8589 18.3989 12.5325 18.1178 11.3066 17.5738C10.0807 17.0298 8.98233 16.2349 8.08238 15.2405C7.18244 14.246 6.50085 13.074 6.08157 11.8C5.6623 10.526 5.51462 9.17831 5.64807 7.84375C4.44652 8.35906 3.38953 9.16095 2.56958 10.1793C1.74963 11.1976 1.19169 12.4013 0.944565 13.6851C0.69744 14.9689 0.768662 16.2938 1.152 17.5437C1.53533 18.7936 2.21911 19.9306 3.14351 20.8551C4.0679 21.7797 5.20476 22.4636 6.45464 22.8471C7.70451 23.2307 9.02933 23.3021 10.3132 23.0552C11.5971 22.8082 12.8009 22.2505 13.8193 21.4307C14.8377 20.6109 15.6398 19.554 16.1553 18.3525C15.8385 18.3835 15.5201 18.399 15.2001 18.399Z" fill="#0071E3"/>
<path d="M15.1992 16.8008C10.7809 16.8008 7.19922 13.2191 7.19922 8.80078C7.19922 4.3825 10.7809 0.800781 15.1992 0.800781C19.6175 0.800781 23.1992 4.3825 23.1992 8.80078C23.1992 13.2191 19.6175 16.8008 15.1992 16.8008Z" fill="#0071E3"/>
</g>
<defs>
<clipPath id="clip0_13385_35005">
<rect width="24" height="24" fill="white" transform="matrix(-1 0 0 1 24 0)"/>
</clipPath>
</defs>
</svg>
