<svg width="14" height="14" viewBox="0 0 14 14" fill="none" xmlns="http://www.w3.org/2000/svg">
<g clip-path="url(#clip0_12877_40767)">
<path d="M13.0604 1.04693C13.0554 1.02275 13.0436 1.00049 13.0264 0.982762C13.0092 0.965037 12.9873 0.95258 12.9633 0.946851C11.3618 0.555289 7.66135 1.95064 5.65651 3.95466C5.29893 4.30935 4.97294 4.69454 4.68225 5.10584C4.06401 5.05115 3.44577 5.09681 2.91885 5.3265C1.43217 5.98084 0.999321 7.68818 0.878735 8.42263C0.871895 8.46283 0.874475 8.50407 0.886272 8.5431C0.898068 8.58214 0.918761 8.6179 0.94672 8.64758C0.97468 8.67727 1.00915 8.70006 1.0474 8.71416C1.08566 8.72827 1.12667 8.73331 1.16721 8.72888L3.55459 8.46556C3.5563 8.64556 3.56716 8.82534 3.58713 9.00423C3.59915 9.12846 3.65429 9.24456 3.74299 9.33236L4.66748 10.2547C4.75537 10.3432 4.87142 10.3984 4.99561 10.4105C5.1735 10.4304 5.35228 10.4413 5.53127 10.4431L5.26932 12.8274C5.26495 12.868 5.27003 12.9089 5.28416 12.9472C5.29828 12.9854 5.32107 13.0198 5.35074 13.0478C5.38041 13.0757 5.41615 13.0964 5.45516 13.1083C5.49417 13.1201 5.53538 13.1227 5.57557 13.1159C6.30866 12.9983 8.01901 12.5655 8.66952 11.0788C8.8992 10.5519 8.94623 9.93666 8.89319 9.32142C9.30548 9.03071 9.69167 8.70464 10.0474 8.34689C12.0585 6.34587 13.4459 2.72802 13.0604 1.04693ZM8.04088 5.95978C7.85724 5.77626 7.73215 5.5424 7.68144 5.28777C7.63073 5.03315 7.65667 4.7692 7.75598 4.52933C7.8553 4.28945 8.02352 4.08441 8.23938 3.94016C8.45524 3.7959 8.70903 3.7189 8.96866 3.7189C9.22828 3.7189 9.48207 3.7959 9.69793 3.94016C9.91379 4.08441 10.082 4.28945 10.1813 4.52933C10.2806 4.7692 10.3066 5.03315 10.2559 5.28777C10.2052 5.5424 10.0801 5.77626 9.89643 5.95978C9.77466 6.08173 9.63004 6.17847 9.47084 6.24448C9.31164 6.31049 9.141 6.34447 8.96866 6.34447C8.79632 6.34447 8.62567 6.31049 8.46648 6.24448C8.30728 6.17847 8.16266 6.08173 8.04088 5.95978Z" fill="currentColor"/>
<path d="M4.60469 10.9219C4.45484 11.072 4.21449 11.1305 3.9252 11.1806C3.27523 11.2913 2.70129 10.7297 2.81805 10.0726C2.86262 9.82352 2.99441 9.47434 3.07645 9.39231C3.09438 9.37472 3.10631 9.35194 3.11055 9.32718C3.1148 9.30243 3.11113 9.27697 3.10009 9.25442C3.08904 9.23187 3.07116 9.21337 3.049 9.20155C3.02684 9.18974 3.00152 9.1852 2.97664 9.1886C2.61318 9.23307 2.27504 9.39785 2.01605 9.65672C1.3732 10.3001 1.3125 12.6875 1.3125 12.6875C1.3125 12.6875 3.70125 12.6268 4.3441 11.9834C4.60377 11.7246 4.76877 11.386 4.8125 11.022C4.82262 10.9077 4.68344 10.8396 4.60469 10.9219Z" fill="currentColor"/>
</g>
<defs>
<clipPath id="clip0_12877_40767">
<rect width="14" height="14" fill="white"/>
</clipPath>
</defs>
</svg>
