<svg width="24" height="24" viewBox="0 0 24 24" fill="none" xmlns="http://www.w3.org/2000/svg">
<path d="M13.0055 3.08789C12.8301 3.08789 12.6875 3.23045 12.6875 3.40613C12.6875 3.42245 12.6945 3.43661 12.6969 3.45245H12.6875V10.9976C12.6875 11.1733 12.8301 11.3158 13.0055 11.3158H20.5504V11.3064C20.5662 11.3088 20.5804 11.3158 20.5969 11.3158C20.7724 11.3158 20.9149 11.1733 20.9149 10.9976C20.8698 6.64877 17.3543 3.13325 13.0055 3.08789Z" fill="#0071E3"/>
<path d="M19.0761 12.8313C19.0761 12.6556 18.9338 12.513 18.7581 12.513H11.8224C11.738 12.513 11.6571 12.4794 11.5975 12.4197C11.5379 12.3601 11.5044 12.2792 11.5044 12.1948V5.28448H11.495C11.4974 5.26864 11.5044 5.25448 11.5044 5.23816C11.5044 5.06224 11.3618 4.91992 11.1861 4.91992C11.1785 4.91992 11.1722 4.92376 11.1648 4.92424V4.92208C11.1365 4.92184 11.1084 4.91992 11.0801 4.91992C6.66406 4.91992 3.08398 8.5 3.08398 12.916C3.08398 17.332 6.66406 20.9121 11.0801 20.9121C15.4961 20.9121 19.0761 17.332 19.0761 12.916C19.0761 12.8906 19.0749 12.8654 19.0745 12.8397C19.0745 12.8366 19.0761 12.8342 19.0761 12.8313Z" fill="#0071E3"/>
</svg>
