<svg width="24" height="24" viewBox="0 0 24 24" fill="none" xmlns="http://www.w3.org/2000/svg">
<g clip-path="url(#clip0_13426_41913)">
<path fill-rule="evenodd" clip-rule="evenodd" d="M12 0.75C5.787 0.75 0.75 5.787 0.75 12C0.75 18.213 5.787 23.25 12 23.25C18.213 23.25 23.25 18.213 23.25 12C23.25 5.787 18.213 0.75 12 0.75ZM14.293 8.9205L12.888 6.2115C12.5145 5.492 11.4855 5.492 11.1125 6.2115L9.7075 8.9205L6.7275 9.5075C5.9665 9.6575 5.6585 10.58 6.1775 11.1575L8.29 13.5065L7.902 16.6505C7.8045 17.4425 8.627 18.024 9.341 17.668L12 16.34L14.659 17.6675C15.3725 18.0235 16.1955 17.442 16.098 16.65L15.71 13.506L17.8225 11.1565C18.3415 10.5795 18.0335 9.6565 17.2725 9.5065L14.2925 8.92L14.293 8.9205Z" fill="#0071E3"/>
</g>
<defs>
<clipPath id="clip0_13426_41913">
<rect width="24" height="24" fill="white"/>
</clipPath>
</defs>
</svg>
