<svg width="24" height="24" viewBox="0 0 24 24" fill="none" xmlns="http://www.w3.org/2000/svg">
<path fill-rule="evenodd" clip-rule="evenodd" d="M12.0515 2.00195H11.9475C10.2675 2.00195 8.93751 2.00195 7.89551 2.14395C6.82351 2.29095 5.95551 2.59995 5.27151 3.29595C4.58751 3.99195 4.28351 4.87595 4.13951 5.96595C3.99951 7.02595 3.99951 8.37995 3.99951 10.089V13.915C3.99951 15.625 3.99951 16.979 4.13951 18.038C4.28351 19.128 4.58751 20.012 5.27151 20.708C5.95551 21.404 6.82351 21.713 7.89551 21.86C8.93651 22.002 10.2675 22.002 11.9475 22.002H12.0515C13.7315 22.002 15.0615 22.002 16.1035 21.86C17.1755 21.713 18.0435 21.404 18.7275 20.708C19.4115 20.012 19.7155 19.128 19.8595 18.038C19.9995 16.978 19.9995 15.624 19.9995 13.915V10.089C19.9995 8.37895 19.9995 7.02495 19.8595 5.96595C19.7155 4.87595 19.4115 3.99195 18.7275 3.29595C18.0435 2.59995 17.1755 2.29095 16.1035 2.14395C15.0625 2.00195 13.7315 2.00195 12.0515 2.00195ZM8.57151 18.514C8.57046 18.4231 8.58736 18.3329 8.62125 18.2486C8.65514 18.1643 8.70535 18.0875 8.769 18.0226C8.83265 17.9578 8.90848 17.9061 8.99214 17.8707C9.0758 17.8352 9.16564 17.8166 9.25651 17.816H14.7425C15.1215 17.816 15.4285 18.128 15.4285 18.514C15.4294 18.6048 15.4124 18.695 15.3784 18.7792C15.3444 18.8635 15.2941 18.9402 15.2303 19.005C15.1666 19.0697 15.0907 19.1213 15.007 19.1566C14.9232 19.192 14.8334 19.2104 14.7425 19.211H9.25651C9.16565 19.2104 9.07578 19.192 8.99206 19.1566C8.90835 19.1213 8.83245 19.0697 8.76871 19.005C8.70497 18.9402 8.65465 18.8635 8.62063 18.7792C8.58662 18.695 8.57059 18.6048 8.57151 18.514Z" fill="#0071E3"/>
</svg>
