<svg width="14" height="14" viewBox="0 0 14 14" fill="none" xmlns="http://www.w3.org/2000/svg">
<g clip-path="url(#clip0_12877_40783)">
<path d="M8.86663 10.7334C8.08425 10.7333 7.31056 10.5694 6.59544 10.252C5.88031 9.9347 5.23961 9.47104 4.71464 8.89093C4.18967 8.31083 3.79208 7.62716 3.5475 6.884C3.30292 6.14083 3.21678 5.35467 3.29463 4.57617C2.59372 4.87677 1.97715 5.34454 1.49884 5.93855C1.02054 6.53257 0.69507 7.23474 0.550915 7.98364C0.406759 8.73253 0.448305 9.50535 0.671918 10.2345C0.895531 10.9636 1.2944 11.6268 1.83363 12.1661C2.37286 12.7055 3.03603 13.1044 3.76512 13.3282C4.49422 13.5519 5.26703 13.5935 6.01595 13.4495C6.76487 13.3055 7.46709 12.9801 8.06117 12.5019C8.65526 12.0237 9.12312 11.4072 9.42383 10.7063C9.23903 10.7243 9.05329 10.7334 8.86663 10.7334Z" fill="currentColor"/>
<path d="M8.86654 9.80013C6.28921 9.80013 4.19987 7.71079 4.19987 5.13346C4.19987 2.55613 6.28921 0.466797 8.86654 0.466797C11.4439 0.466797 13.5332 2.55613 13.5332 5.13346C13.5332 7.71079 11.4439 9.80013 8.86654 9.80013Z" fill="currentColor"/>
</g>
<defs>
<clipPath id="clip0_12877_40783">
<rect width="14" height="14" fill="white" transform="matrix(-1 0 0 1 14 0)"/>
</clipPath>
</defs>
</svg>
