<svg width="32" height="32" viewBox="0 0 32 32" fill="none" xmlns="http://www.w3.org/2000/svg">
<g clip-path="url(#clip0_12443_70708)">
<path d="M15.1107 10.6665H12.5773C11.2837 10.6487 10.0244 11.0829 9.01665 11.8943C8.00893 12.7057 7.31598 13.8433 7.05734 15.111H1.77734V16.8888H7.04845C7.30255 18.1603 7.9955 19.3021 9.00616 20.1146C10.0168 20.927 11.2809 21.3584 12.5773 21.3332H15.1107V10.6665Z" fill="#0071E3"/>
<path d="M25.0936 15.1113C24.8344 13.8406 24.1389 12.7006 23.1274 11.8888C22.116 11.0771 20.8525 10.6448 19.5558 10.6668H16.8892V21.3335H19.5558C20.8523 21.3586 22.1164 20.9273 23.127 20.1148C24.1377 19.3024 24.8306 18.1606 25.0847 16.889H30.2225V15.1113H25.0936Z" fill="#0071E3"/>
</g>
<defs>
<clipPath id="clip0_12443_70708">
<rect width="32" height="32" fill="white"/>
</clipPath>
</defs>
</svg>
