<svg width="22" height="21" viewBox="0 0 22 21" fill="none" xmlns="http://www.w3.org/2000/svg">
<path d="M7.892 19.974C6.23803 19.4802 4.74009 18.5665 3.544 17.322C3.92884 16.8656 4.16874 16.3047 4.233 15.7111C4.29726 15.1176 4.18296 14.5183 3.90472 13.9901C3.62649 13.4619 3.19698 13.0287 2.67115 12.746C2.14531 12.4632 1.54708 12.3438 0.953001 12.403C0.81766 11.7401 0.749648 11.0651 0.750001 10.3885C0.750001 9.3435 0.910001 8.3355 1.208 7.3885H1.25C1.75988 7.38866 2.26139 7.25887 2.70717 7.01137C3.15295 6.76388 3.5283 6.40685 3.79777 5.974C4.06724 5.54114 4.22194 5.04675 4.24726 4.5375C4.27259 4.02825 4.1677 3.52095 3.9425 3.0635C5.1148 1.97191 6.53253 1.17841 8.076 0.75C8.32719 1.2432 8.70992 1.6573 9.18186 1.94648C9.65379 2.23565 10.1965 2.38864 10.75 2.3885C11.3035 2.38864 11.8462 2.23565 12.3181 1.94648C12.7901 1.6573 13.1728 1.2432 13.424 0.75C14.9675 1.17841 16.3852 1.97191 17.5575 3.0635C17.3307 3.52416 17.2259 4.03532 17.2531 4.54808C17.2804 5.06083 17.4388 5.55801 17.7132 5.99201C17.9876 6.42602 18.3688 6.78233 18.8203 7.02684C19.2719 7.27135 19.7786 7.39588 20.292 7.3885C20.5965 8.35936 20.7509 9.37102 20.75 10.3885C20.75 11.0785 20.68 11.7525 20.547 12.4035C19.9529 12.3443 19.3547 12.4637 18.8289 12.7465C18.303 13.0292 17.8735 13.4624 17.5953 13.9906C17.317 14.5188 17.2027 15.1181 17.267 15.7116C17.3313 16.3052 17.5712 16.8661 17.956 17.3225C16.7599 18.5668 15.2619 19.4803 13.608 19.974C13.4138 19.3686 13.0324 18.8406 12.5187 18.466C12.0051 18.0913 11.3857 17.8895 10.75 17.8895C10.1143 17.8895 9.49492 18.0913 8.98129 18.466C8.46765 18.8406 8.08623 19.3686 7.892 19.974Z" fill="#0071E3" stroke="#0071E3" stroke-width="1.5" stroke-linejoin="round"/>
<path d="M10.75 13.8877C11.2096 13.8877 11.6648 13.7972 12.0894 13.6213C12.514 13.4454 12.8999 13.1876 13.2249 12.8626C13.5499 12.5376 13.8077 12.1517 13.9836 11.7271C14.1595 11.3024 14.25 10.8473 14.25 10.3877C14.25 9.92807 14.1595 9.47294 13.9836 9.0483C13.8077 8.62366 13.5499 8.23783 13.2249 7.91282C12.8999 7.58782 12.514 7.33001 12.0894 7.15412C11.6648 6.97823 11.2096 6.8877 10.75 6.8877C9.82174 6.8877 8.9315 7.25644 8.27513 7.91282C7.61875 8.5692 7.25 9.45944 7.25 10.3877C7.25 11.316 7.61875 12.2062 8.27513 12.8626C8.9315 13.5189 9.82174 13.8877 10.75 13.8877Z" fill="white" stroke="white" stroke-width="1.5" stroke-linejoin="round"/>
</svg>
