<svg width="24" height="24" viewBox="0 0 24 24" fill="none" xmlns="http://www.w3.org/2000/svg">
<path d="M19.2494 6.87108C19.368 6.75249 19.5145 6.66563 19.6754 6.61848C19.8363 6.57133 20.0065 6.5654 20.1704 6.60125C20.3342 6.63711 20.4863 6.71358 20.6129 6.82364C20.7394 6.9337 20.8362 7.07381 20.8944 7.23108C21.3595 8.4804 21.4582 9.83655 21.179 11.1401C20.8998 12.4436 20.2542 13.6403 19.3181 14.5894C18.3821 15.5386 17.1945 16.2008 15.895 16.4982C14.5955 16.7956 13.2381 16.7157 11.9824 16.2681L7.96941 20.2811C7.69081 20.5597 7.36006 20.7807 6.99606 20.9314C6.63205 21.0822 6.24191 21.1598 5.84791 21.1598C5.45391 21.1598 5.06377 21.0822 4.69976 20.9314C4.33575 20.7807 4.00501 20.5597 3.72641 20.2811C3.44781 20.0025 3.22681 19.6717 3.07604 19.3077C2.92526 18.9437 2.84766 18.5536 2.84766 18.1596C2.84766 17.7656 2.92526 17.3754 3.07604 17.0114C3.22681 16.6474 3.44781 16.3167 3.72641 16.0381L7.73941 12.0251C7.29155 10.7704 7.21104 9.4139 7.50734 8.11502C7.80364 6.81613 8.46446 5.62878 9.41215 4.69242C10.3598 3.75607 11.5551 3.1096 12.8574 2.82895C14.1598 2.54831 15.5152 2.64514 16.7644 3.10808C16.9217 3.16628 17.0618 3.26309 17.1719 3.38962C17.2819 3.51615 17.3584 3.66832 17.3942 3.83214C17.4301 3.99595 17.4242 4.16616 17.377 4.32709C17.3299 4.48802 17.243 4.63451 17.1244 4.75308L14.7684 7.10908C14.487 7.39034 14.3289 7.77187 14.3288 8.16972C14.3287 8.56758 14.4866 8.94918 14.7679 9.23058C15.0492 9.51197 15.4307 9.67011 15.8286 9.67021C16.2264 9.6703 16.608 9.51234 16.8894 9.23108L19.2494 6.87108Z" fill="#0071E3"/>
</svg>
