<svg width="14" height="14" viewBox="0 0 14 14" fill="none" xmlns="http://www.w3.org/2000/svg">
<path fill-rule="evenodd" clip-rule="evenodd" d="M7.02903 1.16797H6.96836C5.98836 1.16797 5.21253 1.16797 4.6047 1.2508C3.97936 1.33655 3.47303 1.5168 3.07403 1.9228C2.67503 2.3288 2.4977 2.84447 2.4137 3.4803C2.33203 4.09864 2.33203 4.88847 2.33203 5.88539V8.11722C2.33203 9.11472 2.33203 9.90455 2.4137 10.5223C2.4977 11.1581 2.67503 11.6738 3.07403 12.0798C3.47303 12.4858 3.97936 12.6661 4.6047 12.7518C5.21195 12.8346 5.98836 12.8346 6.96836 12.8346H7.02903C8.00903 12.8346 8.78486 12.8346 9.3927 12.7518C10.018 12.6661 10.5244 12.4858 10.9234 12.0798C11.3224 11.6738 11.4997 11.1581 11.5837 10.5223C11.6654 9.90397 11.6654 9.11414 11.6654 8.11722V5.88539C11.6654 4.88789 11.6654 4.09805 11.5837 3.4803C11.4997 2.84447 11.3224 2.3288 10.9234 1.9228C10.5244 1.5168 10.018 1.33655 9.3927 1.2508C8.78545 1.16797 8.00903 1.16797 7.02903 1.16797ZM4.99903 10.8C4.99842 10.747 5.00828 10.6944 5.02804 10.6452C5.04781 10.596 5.0771 10.5512 5.11423 10.5134C5.15136 10.4755 5.19559 10.4454 5.2444 10.4247C5.2932 10.404 5.34561 10.3932 5.39861 10.3928H8.59878C8.81987 10.3928 8.99895 10.5748 8.99895 10.8C8.99949 10.853 8.98955 10.9056 8.96971 10.9547C8.94987 11.0039 8.92052 11.0486 8.88333 11.0864C8.84615 11.1242 8.80187 11.1542 8.75304 11.1749C8.70421 11.1955 8.65179 11.2062 8.59878 11.2066H5.39861C5.34561 11.2062 5.29319 11.1955 5.24435 11.1749C5.19552 11.1542 5.15124 11.1242 5.11406 11.0864C5.07688 11.0486 5.04753 11.0039 5.02769 10.9547C5.00785 10.9056 4.99849 10.853 4.99903 10.8Z" fill="currentColor"/>
</svg>
