<svg width="20" height="16" viewBox="0 0 20 16" fill="none" xmlns="http://www.w3.org/2000/svg">
<path fill-rule="evenodd" clip-rule="evenodd" d="M0 8C0 4.229 -1.19209e-07 2.343 1.172 1.172C2.344 0.000999928 4.229 0 8 0H9.5C13.271 0 15.157 -1.19209e-07 16.328 1.172C17.272 2.115 17.455 3.52 17.491 6H18C18.943 6 19.414 6 19.707 6.293C20 6.586 20 7.057 20 8C20 8.943 20 9.414 19.707 9.707C19.414 10 18.943 10 18 10H17.491C17.455 12.48 17.271 13.885 16.328 14.828C15.157 16 13.271 16 9.5 16H8C4.229 16 2.343 16 1.172 14.828C0.000999928 13.656 0 11.771 0 8ZM9.98 4.424C10.1327 4.55134 10.2286 4.73411 10.2466 4.93213C10.2646 5.13015 10.2032 5.32721 10.076 5.48L8.601 7.25H10.5C10.6425 7.25005 10.7821 7.29071 10.9023 7.3672C11.0225 7.4437 11.1185 7.55287 11.1789 7.68193C11.2394 7.81099 11.2618 7.9546 11.2436 8.09594C11.2253 8.23728 11.1672 8.3705 11.076 8.48L8.576 11.48C8.44708 11.6274 8.26565 11.7185 8.07046 11.7339C7.87527 11.7492 7.6818 11.6877 7.53139 11.5623C7.38097 11.437 7.28554 11.2578 7.26547 11.063C7.24541 10.8683 7.3023 10.6734 7.424 10.52L8.899 8.75H7C6.85749 8.74995 6.71794 8.70929 6.5977 8.6328C6.47746 8.5563 6.38151 8.44713 6.32107 8.31807C6.26063 8.18901 6.23821 8.0454 6.25644 7.90406C6.27467 7.76272 6.33279 7.6295 6.424 7.52L8.924 4.52C9.05134 4.36729 9.23411 4.27139 9.43213 4.25338C9.63015 4.23538 9.82721 4.29675 9.98 4.424Z" fill="#0071E3"/>
</svg>
