<svg width="14" height="14" viewBox="0 0 14 14" fill="none" xmlns="http://www.w3.org/2000/svg">
<path fill-rule="evenodd" clip-rule="evenodd" d="M2.02197 2.02197C1.16797 2.87714 1.16797 4.25147 1.16797 7.0013C1.16797 9.75114 1.16797 11.1261 2.02197 11.9801C2.87714 12.8346 4.25147 12.8346 7.0013 12.8346C9.75114 12.8346 11.1261 12.8346 11.9801 11.9801C12.8346 11.1266 12.8346 9.75114 12.8346 7.0013C12.8346 4.25147 12.8346 2.87655 11.9801 2.02197C11.1266 1.16797 9.75114 1.16797 7.0013 1.16797C4.25147 1.16797 2.87655 1.16797 2.02197 2.02197ZM8.02214 5.83464C8.02214 6.07614 8.21814 6.27214 8.45964 6.27214H8.86214L7.68789 7.44639C7.67434 7.45997 7.65825 7.47074 7.64053 7.47809C7.62281 7.48545 7.60382 7.48923 7.58464 7.48923C7.56545 7.48923 7.54646 7.48545 7.52874 7.47809C7.51103 7.47074 7.49493 7.45997 7.48139 7.44639L6.55622 6.52122C6.3648 6.32993 6.10525 6.22248 5.83464 6.22248C5.56402 6.22248 5.30447 6.32993 5.11305 6.52122L3.77547 7.8588C3.73248 7.89886 3.69801 7.94716 3.6741 8.00082C3.65018 8.05449 3.63733 8.11242 3.63629 8.17116C3.63525 8.22991 3.64606 8.28826 3.66806 8.34273C3.69007 8.39721 3.72282 8.4467 3.76436 8.48824C3.80591 8.52979 3.85539 8.56254 3.90987 8.58454C3.96435 8.60654 4.0227 8.61735 4.08144 8.61631C4.14018 8.61528 4.19812 8.60242 4.25178 8.57851C4.30545 8.5546 4.35375 8.52012 4.3938 8.47714L5.73139 7.13955C5.74493 7.12597 5.76103 7.1152 5.77874 7.10784C5.79646 7.10049 5.81545 7.09671 5.83464 7.09671C5.85382 7.09671 5.87281 7.10049 5.89053 7.10784C5.90825 7.1152 5.92434 7.12597 5.93789 7.13955L6.86305 8.06472C7.05447 8.25601 7.31402 8.36346 7.58464 8.36346C7.85525 8.36346 8.1148 8.25601 8.30622 8.06472L9.48047 6.89105V7.29297C9.48047 7.409 9.52656 7.52028 9.60861 7.60233C9.69066 7.68438 9.80194 7.73047 9.91797 7.73047C10.034 7.73047 10.1453 7.68438 10.2273 7.60233C10.3094 7.52028 10.3555 7.409 10.3555 7.29297V5.83464C10.3555 5.7186 10.3094 5.60732 10.2273 5.52528C10.1453 5.44323 10.034 5.39714 9.91797 5.39714H8.45964C8.3436 5.39714 8.23232 5.44323 8.15028 5.52528C8.06823 5.60732 8.02214 5.7186 8.02214 5.83464Z" fill="currentColor"/>
</svg>
