<svg width="24" height="24" viewBox="0 0 24 24" fill="none" xmlns="http://www.w3.org/2000/svg">
<path d="M12 2C14.3869 2 16.6761 2.94821 18.364 4.63604C20.0518 6.32387 21 8.61305 21 11V17C21.0003 17.6479 20.7908 18.2785 20.4029 18.7975C20.015 19.3164 19.4695 19.6959 18.848 19.879C18.17 21.78 15.31 23 12 23C11.7348 23 11.4804 22.8946 11.2929 22.7071C11.1054 22.5196 11 22.2652 11 22C11 21.7348 11.1054 21.4804 11.2929 21.2929C11.4804 21.1054 11.7348 21 12 21C13.889 21 15.482 20.518 16.334 19.925C15.6711 19.7741 15.0791 19.4024 14.655 18.871C14.231 18.3396 14 17.6799 14 17L14.001 13.949L14.005 13.898C14.0302 13.1206 14.3568 12.3835 14.9158 11.8426C15.4747 11.3018 16.2222 10.9996 17 11H18C18.351 11 18.688 11.06 19 11.171V11C19.0009 9.16368 18.2802 7.40054 16.9932 6.09067C15.7062 4.7808 13.9561 4.0291 12.12 3.99761C10.284 3.96613 8.50907 4.65738 7.17794 5.92236C5.84681 7.18734 5.06606 8.92473 5.004 10.76L5 11.17C5.313 11.06 5.65 11 6 11H7C7.79565 11 8.55871 11.3161 9.12132 11.8787C9.68393 12.4413 10 13.2044 10 14V17C10 17.7956 9.68393 18.5587 9.12132 19.1213C8.55871 19.6839 7.79565 20 7 20H6C5.20435 20 4.44129 19.6839 3.87868 19.1213C3.31607 18.5587 3 17.7956 3 17V11C3 8.61305 3.94821 6.32387 5.63604 4.63604C7.32387 2.94821 9.61305 2 12 2Z" fill="#0071E3"/>
</svg>
