<svg width="14" height="14" viewBox="0 0 14 14" fill="none" xmlns="http://www.w3.org/2000/svg">
<path fill-rule="evenodd" clip-rule="evenodd" d="M3.3087 2.38827C4.28972 1.42161 5.61075 0.878287 6.988 0.875015C8.36525 0.871743 9.68885 1.40878 10.6745 2.37077H10.6756L10.6943 2.38827C12.7622 4.42235 12.7663 7.6896 10.7188 9.70327L7.4107 12.9571C7.30158 13.0645 7.15461 13.1247 7.00149 13.1247C6.84838 13.1247 6.70141 13.0645 6.59229 12.9571L3.2842 9.70327C2.79854 9.22845 2.41264 8.66137 2.14918 8.03534C1.88572 7.40931 1.75 6.73694 1.75 6.05773C1.75 5.37852 1.88572 4.70615 2.14918 4.08012C2.41264 3.45409 2.79854 2.88701 3.2842 2.41219L3.3087 2.38827ZM7.00004 3.79119C6.77022 3.79119 6.54266 3.83645 6.33034 3.9244C6.11802 4.01234 5.9251 4.14125 5.7626 4.30375C5.6001 4.46625 5.47119 4.65917 5.38325 4.87149C5.2953 5.08381 5.25004 5.31137 5.25004 5.54119C5.25004 5.771 5.2953 5.99856 5.38325 6.21088C5.47119 6.4232 5.6001 6.61612 5.7626 6.77862C5.9251 6.94113 6.11802 7.07003 6.33034 7.15798C6.54266 7.24592 6.77022 7.29119 7.00004 7.29119C7.46416 7.29119 7.90928 7.10681 8.23747 6.77862C8.56566 6.45044 8.75004 6.00532 8.75004 5.54119C8.75004 5.07706 8.56566 4.63194 8.23747 4.30375C7.90928 3.97556 7.46416 3.79119 7.00004 3.79119Z" fill="currentColor"/>
</svg>

