<svg width="24" height="24" viewBox="0 0 24 24" fill="none" xmlns="http://www.w3.org/2000/svg">
<path d="M8.4001 1.19922C9.06385 1.19922 9.6001 1.73547 9.6001 2.39922V5.99922H14.4001V2.39922C14.4001 1.73547 14.9363 1.19922 15.6001 1.19922C16.2638 1.19922 16.8001 1.73547 16.8001 2.39922V5.99922H19.2001C19.8638 5.99922 20.4001 6.53547 20.4001 7.19922C20.4001 7.86297 19.8638 8.39922 19.2001 8.39922V10.7992C19.2001 14.3655 16.6051 17.328 13.2001 17.898V20.3992C13.2001 21.063 12.6638 21.5992 12.0001 21.5992C11.3363 21.5992 10.8001 21.063 10.8001 20.3992V17.898C7.3951 17.328 4.8001 14.3655 4.8001 10.7992V8.39922C4.13635 8.39922 3.6001 7.86297 3.6001 7.19922C3.6001 6.53547 4.13635 5.99922 4.8001 5.99922H7.2001V2.39922C7.2001 1.73547 7.73635 1.19922 8.4001 1.19922Z" fill="#0071E3"/>
</svg>
