<svg width="24" height="24" viewBox="0 0 24 24" fill="none" xmlns="http://www.w3.org/2000/svg">
<path fill-rule="evenodd" clip-rule="evenodd" d="M18.0082 2.98733C19.3402 2.22533 21.0002 3.18733 21.0002 4.72333V17.2773C21.0002 18.8123 19.3412 19.7753 18.0082 19.0133L14.0002 16.7233V5.27733L18.0082 2.98733ZM12.0002 6.00033H7.00015C5.7602 5.99909 4.56402 6.45861 3.64382 7.28971C2.72362 8.1208 2.14506 9.26416 2.02044 10.4978C1.89583 11.7315 2.23406 12.9675 2.96947 13.9658C3.70488 14.9641 4.785 15.6536 6.00015 15.9003V19.5003C6.00015 20.1634 6.26355 20.7993 6.73239 21.2681C7.20123 21.7369 7.83711 22.0003 8.50015 22.0003C9.16319 22.0003 9.79908 21.7369 10.2679 21.2681C10.7368 20.7993 11.0002 20.1634 11.0002 19.5003V16.0003H12.0002V6.00033Z" fill="#0071E3"/>
</svg>
