<svg width="24" height="24" viewBox="0 0 24 24" fill="none" xmlns="http://www.w3.org/2000/svg">
<path fill-rule="evenodd" clip-rule="evenodd" d="M2 12C2 8.229 2 6.343 3.172 5.172C4.344 4.001 6.229 4 10 4H11.5C15.271 4 17.157 4 18.328 5.172C19.272 6.115 19.455 7.52 19.491 10H20C20.943 10 21.414 10 21.707 10.293C22 10.586 22 11.057 22 12C22 12.943 22 13.414 21.707 13.707C21.414 14 20.943 14 20 14H19.491C19.455 16.48 19.271 17.885 18.328 18.828C17.157 20 15.271 20 11.5 20H10C6.229 20 4.343 20 3.172 18.828C2.001 17.656 2 15.771 2 12ZM11.98 8.424C12.1327 8.55134 12.2286 8.73411 12.2466 8.93213C12.2646 9.13015 12.2032 9.32721 12.076 9.48L10.601 11.25H12.5C12.6425 11.2501 12.7821 11.2907 12.9023 11.3672C13.0225 11.4437 13.1185 11.5529 13.1789 11.6819C13.2394 11.811 13.2618 11.9546 13.2436 12.0959C13.2253 12.2373 13.1672 12.3705 13.076 12.48L10.576 15.48C10.4471 15.6274 10.2656 15.7185 10.0705 15.7339C9.87527 15.7492 9.6818 15.6877 9.53139 15.5623C9.38097 15.437 9.28554 15.2578 9.26547 15.063C9.24541 14.8683 9.3023 14.6734 9.424 14.52L10.899 12.75H9C8.85749 12.7499 8.71794 12.7093 8.5977 12.6328C8.47746 12.5563 8.38151 12.4471 8.32107 12.3181C8.26063 12.189 8.23821 12.0454 8.25644 11.9041C8.27467 11.7627 8.33279 11.6295 8.424 11.52L10.924 8.52C11.0513 8.36729 11.2341 8.27139 11.4321 8.25338C11.6301 8.23538 11.8272 8.29675 11.98 8.424Z" fill="#0071E3"/>
</svg>
