<svg width="24" height="24" viewBox="0 0 24 24" fill="none" xmlns="http://www.w3.org/2000/svg">
<path d="M21.9837 10.7229L17.7556 14.4129L19.0222 19.9067C19.0892 20.1939 19.07 20.4945 18.9672 20.7709C18.8643 21.0472 18.6822 21.2872 18.4437 21.4606C18.2052 21.6341 17.9209 21.7334 17.6262 21.7462C17.3316 21.7589 17.0397 21.6845 16.7871 21.5323L11.9956 18.6261L7.21434 21.5323C6.96175 21.6845 6.66989 21.7589 6.37525 21.7462C6.08061 21.7334 5.79627 21.6341 5.55777 21.4606C5.31927 21.2872 5.1372 21.0472 5.03432 20.7709C4.93144 20.4945 4.91231 20.1939 4.97934 19.9067L6.24402 14.4186L2.01496 10.7229C1.79128 10.53 1.62954 10.2754 1.55001 9.99089C1.47049 9.70642 1.47672 9.4048 1.56794 9.12385C1.65915 8.84291 1.83128 8.59515 2.06274 8.41164C2.2942 8.22813 2.57468 8.11705 2.86902 8.09231L8.4434 7.6095L10.6193 2.4195C10.733 2.14717 10.9246 1.91455 11.1702 1.75093C11.4158 1.58731 11.7043 1.5 11.9993 1.5C12.2944 1.5 12.5829 1.58731 12.8285 1.75093C13.074 1.91455 13.2657 2.14717 13.3793 2.4195L15.5618 7.6095L21.1343 8.09231C21.4287 8.11705 21.7092 8.22813 21.9406 8.41164C22.1721 8.59515 22.3442 8.84291 22.4354 9.12385C22.5266 9.4048 22.5329 9.70642 22.4533 9.99089C22.3738 10.2754 22.2121 10.53 21.9884 10.7229H21.9837Z" fill="#0071E3"/>
</svg>
