<svg width="24" height="24" viewBox="0 0 24 24" fill="none" xmlns="http://www.w3.org/2000/svg">
<path d="M12.0059 22.0039C6.48286 22.0039 2.00586 17.5269 2.00586 12.0039C2.00586 6.48091 6.48286 2.00391 12.0059 2.00391C17.5289 2.00391 22.0059 6.48091 22.0059 12.0039C22.0059 17.5269 17.5289 22.0039 12.0059 22.0039ZM12.0059 20.0039C14.1276 20.0039 16.1624 19.1611 17.6627 17.6608C19.163 16.1605 20.0059 14.1256 20.0059 12.0039C20.0059 9.88217 19.163 7.84734 17.6627 6.34705C16.1624 4.84676 14.1276 4.00391 12.0059 4.00391C9.88413 4.00391 7.8493 4.84676 6.34901 6.34705C4.84871 7.84734 4.00586 9.88217 4.00586 12.0039C4.00586 14.1256 4.84871 16.1605 6.34901 17.6608C7.8493 19.1611 9.88413 20.0039 12.0059 20.0039ZM7.00586 9.00391L10.0059 5.50391L13.0059 9.00391H11.0059V13.0039H9.00586V9.00391H7.00586ZM17.0059 15.0039L14.0059 18.5039L11.0059 15.0039H13.0059V11.0039H15.0059V15.0039H17.0059Z" fill="#0071E3"/>
</svg>
