<svg width="32" height="32" viewBox="0 0 32 32" fill="none" xmlns="http://www.w3.org/2000/svg">
<path d="M24.0002 14.6654C24.0002 15.891 23.7587 17.1047 23.2897 18.2371C22.8207 19.3694 22.1332 20.3983 21.2665 21.265C20.3998 22.1317 19.3709 22.8192 18.2385 23.2882C17.1062 23.7573 15.8925 23.9987 14.6668 23.9987C13.4412 23.9987 12.2275 23.7573 11.0951 23.2882C9.96274 22.8192 8.93385 22.1317 8.06717 21.265C7.20049 20.3983 6.513 19.3694 6.04395 18.2371C5.57491 17.1047 5.3335 15.891 5.3335 14.6654C5.3335 12.19 6.31683 9.81604 8.06717 8.0657C9.81751 6.31536 12.1915 5.33203 14.6668 5.33203C17.1422 5.33203 19.5162 6.31536 21.2665 8.0657C23.0168 9.81604 24.0002 12.19 24.0002 14.6654Z" fill="#0071E3"/>
<path d="M26.6667 26.6667L24 24" stroke="#0071E3" stroke-width="2" stroke-linecap="round"/>
</svg>
