<svg xmlns="http://www.w3.org/2000/svg" width="40" height="40" viewBox="0 0 40 40" fill="none">
    <path d="M4.90524 6.96222C4.87229 6.99517 4.83109 7.05284 4.78165 7.10228C4.62511 7.2753 4.58391 7.33299 4.5592 7.36594C4.23786 7.72847 4.16372 7.83558 3.97422 8.09923C3.92478 8.17339 3.85886 8.25579 3.78471 8.3629C2.1698 10.5793 1.05749 13.0675 0.464263 15.7536C-0.128967 18.4478 -0.153677 21.1833 0.390117 23.8858C0.876236 26.4152 1.83199 28.7881 3.22443 30.9551C4.61687 33.122 6.38832 34.9759 8.48934 36.4589C10.1619 37.6124 11.9828 38.5023 13.9191 39.1038C15.8388 39.697 17.8327 40.0018 19.8431 40.0018C21.8535 40.0018 22.6033 39.8618 23.9545 39.5734C26.484 39.0626 28.8652 38.0903 31.0321 36.6814L31.4029 36.4425C33.3803 35.083 35.0035 33.3939 36.3959 31.4494C37.9449 29.2084 39.0077 26.7201 39.5351 24.0505C40.1201 21.3975 40.153 18.695 39.6339 16.0172C39.1313 13.5125 38.1591 11.156 36.7667 9.01381C35.366 6.87158 33.6028 5.04245 31.51 3.56761C29.2689 2.01862 26.7806 0.963995 24.1111 0.42844C22.7516 0.148304 21.3591 0 19.9667 0C17.9728 0 15.9954 0.296613 14.0838 0.873365H14.0756H14.0674C13.6472 1.05463 13.3011 1.37596 13.0951 1.77145C12.8397 2.14222 12.7408 2.60362 12.8315 3.04854V3.06502C12.9715 3.53466 13.2846 3.93015 13.7213 4.16909C13.9685 4.29268 14.2486 4.3586 14.5288 4.3586C14.8089 4.3586 14.9325 4.32563 15.122 4.25972C16.7039 3.74064 18.3518 3.47698 20.0244 3.47698C21.697 3.47698 22.2819 3.60058 23.386 3.83952C25.5447 4.2762 27.5551 5.14132 29.3678 6.41018C31.0898 7.62135 32.5399 9.13739 33.6769 10.9171C34.8387 12.6803 35.6461 14.6248 36.0746 16.6846C36.4783 18.868 36.4536 21.0761 36.0004 23.2431C35.5472 25.4183 34.6821 27.4451 33.4297 29.2825C32.2103 31.0045 30.6943 32.4546 28.9228 33.5917C27.1514 34.7616 25.2069 35.5691 23.1553 36.014C22.1336 36.2035 21.0873 36.3024 20.0491 36.3024C18.3683 36.3024 16.704 36.0552 15.0973 35.5526C13.4824 35.0582 11.9581 34.3167 10.5574 33.361C8.82716 32.1251 7.36056 30.6008 6.20706 28.8211C5.04531 27.0414 4.2461 25.0805 3.81766 22.9959C3.38097 20.8372 3.39746 18.6456 3.8671 16.4869C4.31202 14.3117 4.90525 12.4578 6.35537 10.4969L11.1424 14.5589C8.62943 18.695 9.38743 24.1659 13.1693 27.4369C13.1775 27.4451 14.2898 28.4174 14.2898 28.4174L17.602 24.5861L22.2655 28.5986C22.8422 29.1012 23.7156 29.0353 24.2182 28.4503C24.7208 27.8736 24.6549 27.0002 24.0699 26.4976L19.4064 22.4851L22.422 18.9998L27.069 23.0042C27.6457 23.5068 28.5191 23.4408 29.0217 22.8558C29.5243 22.2791 29.4584 21.4057 28.8734 20.9031L24.2264 16.9071L27.5057 13.117C27.5057 13.117 26.3934 12.153 26.3769 12.1447C22.6527 8.91493 17.2395 8.89845 13.5071 11.8481L7.43473 6.67384C7.04748 6.33603 6.58607 5.99821 6.12466 5.99821C5.66326 5.99821 5.55616 6.13829 5.30898 6.41842L5.27601 6.45137C5.19362 6.55024 4.95468 6.83038 4.92996 6.8551" fill="#252834"/>
</svg>