<svg xmlns="http://www.w3.org/2000/svg" width="18" height="18" viewBox="0 0 18 18" fill="none">
    <path d="M12.4176 9.67949L12.0764 10.0192C12.0764 10.0192 11.2641 10.8262 9.04789 8.62274C6.83164 6.41923 7.64389 5.61223 7.64389 5.61223L7.85839 5.39773C8.38864 4.87123 8.43889 4.02523 7.97614 3.40723L7.03114 2.14498C6.45814 1.37998 5.35189 1.27873 4.69564 1.93123L3.51814 3.10123C3.19339 3.42523 2.97589 3.84373 3.00214 4.30873C3.06964 5.49898 3.60814 8.05873 6.61114 11.0452C9.79639 14.2117 12.7851 14.3377 14.0069 14.2237C14.3939 14.1877 14.7299 13.9912 15.0006 13.7212L16.0656 12.6622C16.7856 11.9475 16.5831 10.7212 15.6621 10.221L14.2296 9.44173C13.6251 9.11398 12.8901 9.20999 12.4176 9.67949Z" fill="#252834"/>
</svg>