<svg xmlns="http://www.w3.org/2000/svg" width="26" height="26" viewBox="0 0 26 26" fill="none">
    <path d="M3.14893 4.46941C3.12778 4.49057 3.10133 4.52759 3.06959 4.55933C2.9691 4.6704 2.94266 4.70743 2.92679 4.72859C2.72051 4.96131 2.67291 5.03007 2.55126 5.19932C2.51952 5.24693 2.47721 5.29982 2.4296 5.36858C1.39291 6.79139 0.67886 8.38874 0.298035 10.113C-0.0827909 11.8426 -0.0986535 13.5987 0.250437 15.3335C0.562502 16.9573 1.17605 18.4806 2.06993 19.8717C2.96381 21.2628 4.101 22.4528 5.44975 23.4049C6.52347 24.1454 7.6924 24.7166 8.93538 25.1028C10.1678 25.4836 11.4478 25.6793 12.7383 25.6793C14.0289 25.6793 14.5102 25.5894 15.3777 25.4042C17.0015 25.0763 18.5301 24.4522 19.9211 23.5477L20.1592 23.3943C21.4286 22.5216 22.4706 21.4373 23.3644 20.1891C24.3588 18.7504 25.0411 17.153 25.3796 15.4393C25.7552 13.7362 25.7763 12.0013 25.4431 10.2823C25.1205 8.67436 24.4963 7.16164 23.6025 5.78644C22.7033 4.41123 21.5714 3.23701 20.2279 2.29024C18.7892 1.29586 17.1919 0.618839 15.4782 0.275038C14.6054 0.0952038 13.7116 0 12.8177 0C11.5377 0 10.2683 0.190412 9.04116 0.560659H9.03587H9.03059C8.76083 0.677022 8.53868 0.883304 8.40645 1.13719C8.24249 1.3752 8.17902 1.6714 8.2372 1.95702V1.9676C8.32712 2.26908 8.5281 2.52297 8.80843 2.67636C8.9671 2.7557 9.14694 2.79801 9.32677 2.79801C9.50661 2.79801 9.58595 2.77685 9.7076 2.73454C10.7231 2.40131 11.781 2.23206 12.8547 2.23206C13.9284 2.23206 14.304 2.3114 15.0127 2.46479C16.3985 2.74512 17.6891 3.30049 18.8527 4.11503C19.9582 4.89255 20.8891 5.86577 21.619 7.00825C22.3648 8.14015 22.8831 9.38841 23.1582 10.7107C23.4173 12.1124 23.4015 13.5299 23.1106 14.921C22.8196 16.3173 22.2643 17.6185 21.4603 18.798C20.6775 19.9034 19.7043 20.8343 18.5671 21.5643C17.4299 22.3153 16.1816 22.8337 14.8646 23.1193C14.2087 23.2409 13.537 23.3044 12.8706 23.3044C11.7916 23.3044 10.7231 23.1457 9.69174 22.8231C8.65505 22.5057 7.67653 22.0297 6.77736 21.4162C5.66662 20.6228 4.72513 19.6443 3.98464 18.5018C3.23885 17.3593 2.7258 16.1005 2.45076 14.7623C2.17043 13.3765 2.18101 11.9696 2.4825 10.5838C2.76812 9.18742 3.14894 7.99734 4.07985 6.7385L7.1529 9.3461C5.53968 12.0013 6.02629 15.5134 8.45405 17.6132C8.45934 17.6185 9.17339 18.2426 9.17339 18.2426L11.2997 15.7831L14.2934 18.359C14.6636 18.6816 15.2243 18.6393 15.5469 18.2638C15.8696 17.8935 15.8273 17.3329 15.4517 17.0102L12.458 14.4344L14.3939 12.197L17.377 14.7676C17.7473 15.0902 18.3079 15.0479 18.6306 14.6724C18.9532 14.3021 18.9109 13.7415 18.5354 13.4188L15.5522 10.8535L17.6573 8.42048C17.6573 8.42048 16.9433 7.80164 16.9327 7.79635C14.542 5.72297 11.0669 5.71238 8.67091 7.60593L4.77274 4.28429C4.52415 4.06743 4.22794 3.85057 3.93174 3.85057C3.63555 3.85057 3.56679 3.94049 3.40811 4.12032L3.38695 4.14148C3.33406 4.20495 3.18067 4.38478 3.1648 4.40065" fill="#2F2B3F"/>
</svg>