<svg width="19" height="19" viewBox="0 0 19 19" fill="none" xmlns="http://www.w3.org/2000/svg">
<path d="M9.20312 3.5C9.99877 3.5 10.7618 3.81607 11.3244 4.37868C11.8871 4.94129 12.2031 5.70435 12.2031 6.5C12.2031 7.29565 11.8871 8.05871 11.3244 8.62132C10.7618 9.18393 9.99877 9.5 9.20312 9.5C8.40748 9.5 7.64441 9.18393 7.0818 8.62132C6.5192 8.05871 6.20312 7.29565 6.20312 6.5C6.20312 5.70435 6.5192 4.94129 7.0818 4.37868C7.64441 3.81607 8.40748 3.5 9.20312 3.5ZM9.20312 11C12.5181 11 15.2031 12.3425 15.2031 14V15.5H3.20312V14C3.20312 12.3425 5.88812 11 9.20312 11Z" fill="#1E558E"/>
</svg>
