<svg width="19" height="19" viewBox="0 0 19 19" fill="none" xmlns="http://www.w3.org/2000/svg">
<g clip-path="url(#clip0_6967_36469)">
<mask id="mask0_6967_36469" style="mask-type:luminance" maskUnits="userSpaceOnUse" x="0" y="1" width="18" height="17">
<path d="M7.05963 16.6892C5.81915 16.3189 4.69569 15.6336 3.79863 14.7002C4.08725 14.3579 4.26718 13.9372 4.31537 13.4921C4.36357 13.0469 4.27784 12.5975 4.06917 12.2013C3.86049 11.8052 3.53836 11.4803 3.14398 11.2682C2.74961 11.0562 2.30094 10.9666 1.85538 11.011C1.75387 10.5138 1.70286 10.0076 1.70313 9.50012C1.70313 8.71637 1.82313 7.96037 2.04663 7.25012H2.07813C2.46053 7.25024 2.83666 7.15289 3.171 6.96727C3.50534 6.78165 3.78685 6.51388 3.98895 6.18924C4.19105 5.8646 4.30708 5.4938 4.32607 5.11187C4.34506 4.72993 4.2664 4.34945 4.0975 4.00637C4.97672 3.18767 6.04002 2.59255 7.19763 2.27124C7.38602 2.64114 7.67307 2.95171 8.02702 3.1686C8.38097 3.38548 8.78801 3.50022 9.20313 3.50012C9.61824 3.50022 10.0253 3.38548 10.3792 3.1686C10.7332 2.95171 11.0202 2.64114 11.2086 2.27124C12.3662 2.59255 13.4295 3.18767 14.3088 4.00637C14.1386 4.35186 14.06 4.73523 14.0805 5.1198C14.1009 5.50436 14.2197 5.87724 14.4255 6.20275C14.6313 6.52826 14.9172 6.79549 15.2559 6.97887C15.5945 7.16226 15.9746 7.25565 16.3596 7.25012C16.588 7.97826 16.7038 8.737 16.7031 9.50012C16.7031 10.0176 16.6506 10.5231 16.5509 11.0114C16.1053 10.967 15.6566 11.0565 15.2623 11.2686C14.8679 11.4806 14.5458 11.8055 14.3371 12.2017C14.1284 12.5979 14.0427 13.0473 14.0909 13.4925C14.1391 13.9376 14.319 14.3583 14.6076 14.7006C13.7105 15.6339 12.5871 16.319 11.3466 16.6892C11.201 16.2352 10.9149 15.8392 10.5297 15.5582C10.1444 15.2772 9.67994 15.1258 9.20313 15.1258C8.72632 15.1258 8.26182 15.2772 7.87659 15.5582C7.49136 15.8392 7.20529 16.2352 7.05963 16.6892Z" fill="white" stroke="white" stroke-width="1.5" stroke-linejoin="round"/>
<path d="M9.20312 12.125C9.54784 12.125 9.88919 12.0571 10.2077 11.9252C10.5261 11.7933 10.8155 11.5999 11.0593 11.3562C11.303 11.1124 11.4964 10.823 11.6283 10.5045C11.7602 10.1861 11.8281 9.84472 11.8281 9.5C11.8281 9.15528 11.7602 8.81394 11.6283 8.49546C11.4964 8.17698 11.303 7.8876 11.0593 7.64384C10.8155 7.40009 10.5261 7.20673 10.2077 7.07482C9.88919 6.9429 9.54784 6.875 9.20312 6.875C8.50693 6.875 7.83925 7.15156 7.34697 7.64384C6.85469 8.13613 6.57813 8.80381 6.57812 9.5C6.57813 10.1962 6.85469 10.8639 7.34697 11.3562C7.83925 11.8484 8.50693 12.125 9.20312 12.125Z" fill="black" stroke="black" stroke-width="1.5" stroke-linejoin="round"/>
</mask>
<g mask="url(#mask0_6967_36469)">
<path d="M0.203125 0.5H18.2031V18.5H0.203125V0.5Z" fill="#1E558E"/>
</g>
</g>
<defs>
<clipPath id="clip0_6967_36469">
<rect width="18" height="18" fill="white" transform="translate(0.203125 0.5)"/>
</clipPath>
</defs>
</svg>
