<svg width="19" height="19" viewBox="0 0 19 19" fill="none" xmlns="http://www.w3.org/2000/svg">
<path d="M14.4531 2.75H3.95312C2.89262 2.75 2.36238 2.75 2.03313 3.059C1.70313 3.368 1.70312 3.866 1.70312 4.86125V5.37875C1.70312 6.1565 1.70312 6.54575 1.89812 6.86825C2.09312 7.19075 2.44787 7.39175 3.15962 7.79225L5.34438 9.02225C5.82137 9.29075 6.06063 9.425 6.23163 9.5735C6.58713 9.88175 6.80612 10.2448 6.90512 10.691C6.95312 10.904 6.95312 11.1545 6.95312 11.6547V13.6572C6.95312 14.339 6.95312 14.6803 7.14213 14.9457C7.33112 15.212 7.66712 15.3433 8.33762 15.6058C9.74687 16.1563 10.4511 16.4315 10.9521 16.118C11.4531 15.8052 11.4531 15.089 11.4531 13.6565V11.654C11.4531 11.1545 11.4531 10.904 11.5011 10.6902C11.5953 10.2531 11.8326 9.85988 12.1754 9.57275C12.3456 9.425 12.5849 9.29075 13.0619 9.0215L15.2466 7.7915C15.9576 7.39175 16.3139 7.1915 16.5081 6.869C16.7031 6.5465 16.7031 6.1565 16.7031 5.378V4.8605C16.7031 3.866 16.7031 3.368 16.3731 3.059C16.0446 2.75 15.5144 2.75 14.4531 2.75Z" fill="#1E558E"/>
</svg>
