<svg width="19" height="19" viewBox="0 0 19 19" fill="none" xmlns="http://www.w3.org/2000/svg">
<g clip-path="url(#clip0_6967_36484)">
<path fill-rule="evenodd" clip-rule="evenodd" d="M8.82812 2.75C9.5654 2.75006 10.2824 2.99143 10.8696 3.43725C11.4568 3.88308 11.882 4.50885 12.0801 5.219L12.1191 5.37275L13.5216 5.0225C13.6241 4.99698 13.7309 4.99341 13.8349 5.01202C13.9389 5.03062 14.0377 5.07099 14.125 5.13046C14.2124 5.18994 14.2861 5.26719 14.3415 5.35715C14.3969 5.44712 14.4326 5.54776 14.4464 5.6525L14.4531 5.75V7.1075C14.876 7.5129 15.2225 7.991 15.4761 8.519L15.5796 8.75H15.9531C16.1368 8.75002 16.3141 8.81747 16.4514 8.93954C16.5887 9.06161 16.6764 9.22981 16.6979 9.41225L16.7031 9.5V11.75C16.7031 11.8734 16.6727 11.995 16.6145 12.1038C16.5562 12.2127 16.4721 12.3055 16.3694 12.374L16.2884 12.4205L15.4124 12.8593C15.0538 13.5531 14.5343 14.151 13.8974 14.603L13.7031 14.7335V15.5C13.7031 15.6837 13.6357 15.861 13.5136 15.9983C13.3915 16.1356 13.2233 16.2233 13.0409 16.2448L12.9531 16.25H10.7031C10.5194 16.25 10.3421 16.1825 10.2048 16.0605C10.0676 15.9384 9.97987 15.7702 9.95837 15.5878L9.95312 15.5H9.20312C9.2031 15.6837 9.13566 15.861 9.01359 15.9983C8.89152 16.1356 8.72331 16.2233 8.54087 16.2448L8.45312 16.25H6.20312C6.01942 16.25 5.84212 16.1825 5.70485 16.0605C5.56757 15.9384 5.47987 15.7702 5.45837 15.5878L5.45312 15.5V14.7335C4.91131 14.3871 4.44329 13.9371 4.07595 13.4092C3.70861 12.8814 3.4492 12.2862 3.31262 11.6578C2.87037 11.5261 2.47924 11.2618 2.19216 10.9005C1.90509 10.5393 1.73595 10.0986 1.70763 9.638L1.70312 9.5V9.125C1.70334 8.93384 1.77653 8.74998 1.90776 8.61097C2.03899 8.47197 2.21834 8.38832 2.40917 8.37712C2.6 8.36592 2.78791 8.42801 2.9345 8.5507C3.08109 8.67339 3.1753 8.84743 3.19788 9.03725L3.20312 9.125V9.5C3.20312 9.611 3.22713 9.71675 3.27063 9.81125C3.3851 9.13603 3.64047 8.49249 4.02012 7.9225C4.39977 7.35251 4.89518 6.86885 5.47412 6.503C5.42091 6.03086 5.46798 5.55281 5.61226 5.10012C5.75655 4.64743 5.99478 4.23031 6.31139 3.87604C6.62799 3.52177 7.01583 3.23834 7.44952 3.0443C7.88322 2.85025 8.353 2.74997 8.82812 2.75ZM12.2031 8.75C12.0042 8.75 11.8134 8.82902 11.6728 8.96967C11.5321 9.11032 11.4531 9.30109 11.4531 9.5C11.4531 9.69891 11.5321 9.88968 11.6728 10.0303C11.8134 10.171 12.0042 10.25 12.2031 10.25C12.402 10.25 12.5928 10.171 12.7335 10.0303C12.8741 9.88968 12.9531 9.69891 12.9531 9.5C12.9531 9.30109 12.8741 9.11032 12.7335 8.96967C12.5928 8.82902 12.402 8.75 12.2031 8.75ZM8.82812 4.25C8.37384 4.25 7.93501 4.41493 7.59318 4.71413C7.25135 5.01334 7.02977 5.42647 6.96963 5.87675C7.33308 5.79235 7.705 5.74982 8.07812 5.75H10.6109L10.6634 5.73725C10.5744 5.31647 10.3435 4.93905 10.0094 4.66828C9.67527 4.3975 9.2582 4.24982 8.82812 4.25Z" fill="#1E558E"/>
</g>
<defs>
<clipPath id="clip0_6967_36484">
<rect width="18" height="18" fill="white" transform="translate(0.203125 0.5)"/>
</clipPath>
</defs>
</svg>
