<svg width="19" height="19" viewBox="0 0 19 19" fill="none" xmlns="http://www.w3.org/2000/svg">
<path d="M9.20312 17L9.01562 14.75H8.82812C7.05312 14.75 5.54688 14.1312 4.30937 12.8937C3.07187 11.6562 2.45312 10.15 2.45312 8.375C2.45312 6.6 3.07187 5.09375 4.30937 3.85625C5.54688 2.61875 7.05312 2 8.82812 2C9.71562 2 10.5439 2.1655 11.3129 2.4965C12.0819 2.8275 12.7569 3.28375 13.3379 3.86525C13.9189 4.44675 14.3749 5.12175 14.7059 5.89025C15.0369 6.65875 15.2026 7.487 15.2031 8.375C15.2031 9.3125 15.0501 10.2125 14.7441 11.075C14.4381 11.9375 14.0191 12.7375 13.4871 13.475C12.9561 14.2125 12.3249 14.8813 11.5934 15.4813C10.8619 16.0813 10.0651 16.5875 9.20312 17ZM8.80938 12.4813C9.02188 12.4813 9.20312 12.4062 9.35312 12.2563C9.50312 12.1062 9.57812 11.925 9.57812 11.7125C9.57812 11.5 9.50312 11.3188 9.35312 11.1688C9.20312 11.0188 9.02188 10.9438 8.80938 10.9438C8.59688 10.9438 8.41563 11.0188 8.26562 11.1688C8.11562 11.3188 8.04063 11.5 8.04062 11.7125C8.04062 11.925 8.11562 12.1062 8.26562 12.2563C8.41563 12.4062 8.59688 12.4812 8.80938 12.4813ZM8.26562 10.1H9.39062C9.39062 9.725 9.42812 9.4625 9.50312 9.3125C9.57812 9.1625 9.81563 8.8875 10.2156 8.4875C10.4406 8.2625 10.6281 8.01875 10.7781 7.75625C10.9281 7.49375 11.0031 7.2125 11.0031 6.9125C11.0031 6.275 10.7876 5.79675 10.3566 5.47775C9.92562 5.15875 9.41612 4.9995 8.82812 5C8.27812 5 7.81562 5.15325 7.44062 5.45975C7.06562 5.76625 6.80313 6.138 6.65313 6.575L7.70312 6.9875C7.76562 6.775 7.88438 6.56575 8.05938 6.35975C8.23438 6.15375 8.49062 6.0505 8.82812 6.05C9.16563 6.05 9.41887 6.14375 9.58787 6.33125C9.75687 6.51875 9.84113 6.725 9.84063 6.95C9.84063 7.1625 9.77813 7.35325 9.65313 7.52225C9.52813 7.69125 9.37813 7.863 9.20312 8.0375C8.76562 8.4125 8.50012 8.7095 8.40662 8.9285C8.31312 9.1475 8.26613 9.538 8.26562 10.1Z" fill="#1E558E"/>
</svg>
