<svg width="19" height="19" viewBox="0 0 19 19" fill="none" xmlns="http://www.w3.org/2000/svg">
<path d="M4.43058 10.0303L5.80158 11.4021L6.86358 10.3401L5.49108 8.96983L6.55158 7.90933L7.92333 9.28033L8.98383 8.21983L7.61358 6.84808L8.67408 5.78758L10.0436 7.16008L11.1048 6.09883L9.73308 4.72783L11.8548 2.60683C11.9955 2.46623 12.1862 2.38724 12.3851 2.38724C12.584 2.38724 12.7747 2.46623 12.9153 2.60683L16.0968 5.78833C16.2374 5.92898 16.3164 6.11971 16.3164 6.31858C16.3164 6.51746 16.2374 6.70819 16.0968 6.84883L6.55158 16.3941C6.41094 16.5347 6.22021 16.6137 6.02133 16.6137C5.82246 16.6137 5.63173 16.5347 5.49108 16.3941L2.30958 13.2126C2.16898 13.0719 2.08999 12.8812 2.08999 12.6823C2.08999 12.4835 2.16898 12.2927 2.30958 12.1521L4.43058 10.0303ZM10.7943 14.2723L13.9766 11.0908L15.9536 13.0678V16.2501H12.7721L10.7943 14.2723ZM4.43058 7.90858L2.30883 5.78758C2.2391 5.71793 2.18378 5.63521 2.14604 5.54416C2.10829 5.45311 2.08887 5.35552 2.08887 5.25696C2.08887 5.1584 2.10829 5.0608 2.14604 4.96975C2.18378 4.8787 2.2391 4.79599 2.30883 4.72633L4.43058 2.60533C4.57123 2.46473 4.76196 2.38574 4.96083 2.38574C5.15971 2.38574 5.35044 2.46473 5.49108 2.60533L7.61358 4.72633L4.43058 7.90858Z" fill="#1E558E"/>
</svg>
