<svg width="19" height="19" viewBox="0 0 19 19" fill="none" xmlns="http://www.w3.org/2000/svg">
<path d="M9.20312 2.1875C5.17105 2.1875 1.89062 5.46793 1.89062 9.5C1.89062 13.5321 5.17105 16.8125 9.20312 16.8125C13.2352 16.8125 16.5156 13.5321 16.5156 9.5C16.5156 5.46793 13.2352 2.1875 9.20312 2.1875ZM13.4219 8.59121C13.4219 8.67158 13.3899 8.74866 13.3331 8.8055C13.2763 8.86233 13.1992 8.89426 13.1188 8.89426H11.0256C10.9657 8.89435 10.907 8.87664 10.8572 8.84336C10.8073 8.81009 10.7684 8.76275 10.7455 8.70735C10.7225 8.65195 10.7166 8.59099 10.7283 8.5322C10.7401 8.4734 10.769 8.41942 10.8115 8.37711L11.5909 7.5977L11.3941 7.36883C11.0419 7.00324 10.6047 6.73062 10.1214 6.57533C9.63811 6.42004 9.12389 6.38693 8.6247 6.47895C8.1255 6.57097 7.65689 6.78526 7.26076 7.10265C6.86462 7.42005 6.55331 7.83067 6.35466 8.29779C6.15601 8.76491 6.0762 9.27397 6.12238 9.77948C6.16856 10.285 6.33929 10.7712 6.61929 11.1945C6.8993 11.6179 7.27986 11.9654 7.72695 12.2057C8.17404 12.4461 8.67372 12.5719 9.18133 12.572C9.8166 12.5714 10.4361 12.3742 10.9549 12.0076C11.4737 11.6409 11.8663 11.1227 12.0789 10.5241C12.1035 10.4544 12.1417 10.3902 12.1911 10.3352C12.2405 10.2802 12.3003 10.2355 12.367 10.2037C12.4337 10.1718 12.5061 10.1534 12.5799 10.1494C12.6537 10.1455 12.7276 10.1562 12.7973 10.1808C12.867 10.2054 12.9312 10.2436 12.9862 10.293C13.0412 10.3424 13.0859 10.4022 13.1178 10.4689C13.1496 10.5356 13.1681 10.608 13.172 10.6818C13.1759 10.7556 13.1653 10.8295 13.1406 10.8992C12.8842 11.6248 12.4333 12.2659 11.8372 12.7525C11.2411 13.2392 10.5226 13.5525 9.7604 13.6584C8.99819 13.7643 8.22153 13.6586 7.51532 13.353C6.8091 13.0473 6.20051 12.5533 5.75605 11.9251C5.3116 11.2969 5.04838 10.5586 4.99518 9.79093C4.94197 9.02323 5.10082 8.25569 5.45437 7.57218C5.80792 6.88866 6.34255 6.31549 6.99985 5.9153C7.65714 5.51512 8.41179 5.30331 9.18133 5.30305C9.74926 5.30088 10.3116 5.41501 10.8338 5.63842C11.3559 5.86183 11.8268 6.18978 12.2174 6.60207L12.2371 6.62387L12.3886 6.79965L12.9047 6.28355C12.9322 6.25544 12.965 6.23306 13.0012 6.21773C13.0374 6.2024 13.0763 6.19442 13.1157 6.19426C13.1557 6.19393 13.1954 6.20154 13.2324 6.21665C13.2695 6.23176 13.3032 6.25407 13.3315 6.28229C13.3599 6.3105 13.3824 6.34407 13.3977 6.38103C13.4131 6.418 13.4209 6.45764 13.4208 6.49766L13.4219 8.59121Z" fill="#1E558E"/>
</svg>
