<svg width="19" height="19" viewBox="0 0 19 19" fill="none" xmlns="http://www.w3.org/2000/svg">
<path d="M16.691 8.54245L13.5199 11.3099L14.4699 15.4303C14.5201 15.6457 14.5058 15.8711 14.4286 16.0784C14.3515 16.2857 14.2149 16.4656 14.036 16.5957C13.8572 16.7258 13.6439 16.8003 13.4229 16.8099C13.2019 16.8194 12.9831 16.7636 12.7936 16.6495L9.19994 14.4698L5.614 16.6495C5.42456 16.7636 5.20566 16.8194 4.98468 16.8099C4.76371 16.8003 4.55045 16.7258 4.37157 16.5957C4.1927 16.4656 4.05615 16.2857 3.97899 16.0784C3.90183 15.8711 3.88748 15.6457 3.93775 15.4303L4.88627 11.3142L1.71447 8.54245C1.54671 8.39776 1.4254 8.20676 1.36576 7.99341C1.30611 7.78006 1.31079 7.55384 1.3792 7.34313C1.44761 7.13243 1.5767 6.94661 1.7503 6.80897C1.92389 6.67134 2.13426 6.58803 2.35502 6.56948L6.5358 6.20737L8.16775 2.31487C8.25297 2.11062 8.39672 1.93616 8.5809 1.81344C8.76507 1.69072 8.98144 1.62524 9.20275 1.62524C9.42406 1.62524 9.64043 1.69072 9.8246 1.81344C10.0088 1.93616 10.1525 2.11062 10.2378 2.31487L11.8746 6.20737L16.054 6.56948C16.2748 6.58803 16.4851 6.67134 16.6587 6.80897C16.8323 6.94661 16.9614 7.13243 17.0298 7.34313C17.0982 7.55384 17.1029 7.78006 17.0433 7.99341C16.9836 8.20676 16.8623 8.39776 16.6945 8.54245H16.691Z" fill="#1E558E"/>
</svg>
