<svg width="68" height="25" viewBox="0 0 68 25" fill="none" xmlns="http://www.w3.org/2000/svg">
<g clip-path="url(#clip0_10796_10989)">
<path d="M55.3525 -0.000488281C52.6656 -0.000488281 50.1706 0.89253 48.1362 2.40678C46.1018 0.89253 43.6068 -0.000488281 40.9199 -0.000488281C38.233 -0.000488281 35.738 0.89253 33.7036 2.40678C31.6692 0.89253 29.2126 -0.000488281 26.4873 -0.000488281C23.8004 -0.000488281 21.3054 0.89253 19.271 2.40678C17.275 0.89253 14.78 -0.000488281 12.0547 -0.000488281C5.41417 -0.000488281 0.00195312 5.39644 0.00195312 12.0358C0.00195312 18.6752 5.41417 24.0722 12.0547 24.0722C14.7416 24.0722 17.2366 23.1791 19.271 21.6649C21.3054 23.1791 23.8004 24.0722 26.4873 24.0722C29.1742 24.0722 31.6692 23.1791 33.7036 21.6649C35.6996 23.1791 38.1946 24.0722 40.9199 24.0722C43.6068 24.0722 46.1018 23.1791 48.1362 21.6649C50.1322 23.1791 52.6272 24.0722 55.3525 24.0722C61.9931 24.0722 67.4053 18.6752 67.4053 12.0358C67.4053 5.39644 61.9931 -0.000488281 55.3525 -0.000488281ZM48.1362 18.2481C46.6776 16.5786 45.7948 14.4043 45.7948 12.0358C45.7948 9.66739 46.6776 7.49309 48.1362 5.82354C49.5948 7.49309 50.4777 9.66739 50.4777 12.0358C50.4777 14.4043 49.5948 16.5786 48.1362 18.2481ZM33.7036 18.2481C32.245 16.5786 31.3621 14.4043 31.3621 12.0358C31.3621 9.66739 32.245 7.49309 33.7036 5.82354C35.1622 7.49309 36.0451 9.66739 36.0451 12.0358C36.0451 14.4043 35.1622 16.5786 33.7036 18.2481ZM19.271 18.2481C17.8124 16.5786 16.9295 14.4043 16.9295 12.0358C16.9295 9.66739 17.8124 7.49309 19.271 5.82354C20.7296 7.49309 21.6125 9.66739 21.6125 12.0358C21.6509 14.4043 20.7296 16.5786 19.271 18.2481ZM2.49695 12.0358C2.49695 6.79421 6.79602 2.52325 12.0547 2.52325C14.0123 2.52325 15.8548 3.10566 17.3902 4.15398C15.5477 6.25063 14.4346 9.00733 14.4346 12.0358C14.4346 15.0643 15.5477 17.821 17.3902 19.9177C15.8548 20.9272 14.0507 21.5484 12.0547 21.5484C6.79602 21.5484 2.49695 17.2775 2.49695 12.0358ZM21.1519 19.9177C22.9943 17.821 24.1075 15.0643 24.1075 12.0358C24.1075 9.00733 22.9943 6.25063 21.1519 4.15398C22.6872 3.14448 24.4913 2.52325 26.4873 2.52325C28.4833 2.52325 30.2874 3.10566 31.8228 4.15398C29.9803 6.25063 28.8288 9.00733 28.8288 12.0358C28.8288 15.0643 29.9419 17.821 31.8228 19.9177C30.2874 20.9272 28.4833 21.5484 26.4873 21.5484C24.5297 21.5484 22.6872 20.9272 21.1519 19.9177ZM35.5845 19.9177C37.4269 17.821 38.5785 15.0643 38.5785 12.0358C38.5785 9.00733 37.4653 6.25063 35.5845 4.15398C37.1198 3.14448 38.9239 2.52325 40.9199 2.52325C42.9159 2.52325 44.72 3.10566 46.2554 4.15398C44.4129 6.25063 43.2614 9.00733 43.2614 12.0358C43.2614 15.0643 44.3745 17.821 46.2554 19.9177C44.72 20.9272 42.9159 21.5484 40.9199 21.5484C38.9239 21.5484 37.1198 20.9272 35.5845 19.9177ZM55.3525 21.5484C53.3949 21.5484 51.5525 20.966 50.0171 19.9177C51.8595 17.821 53.0111 15.0643 53.0111 12.0358C53.0111 9.00733 51.8979 6.25063 50.0171 4.15398C51.5525 3.14448 53.3565 2.52325 55.3525 2.52325C60.6112 2.52325 64.9103 6.79421 64.9103 12.0358C64.9103 17.2775 60.6112 21.5484 55.3525 21.5484Z" fill="black"/>
</g>
<defs>
<clipPath id="clip0_10796_10989">
<rect width="67.4033" height="24.0726" fill="white"/>
</clipPath>
</defs>
</svg>
