<svg width="133" height="27" viewBox="0 0 133 27" fill="none" xmlns="http://www.w3.org/2000/svg">
<g clip-path="url(#clip0_10796_10947)">
<path d="M24.6696 0C26.8408 0 28.3564 1.31074 28.3564 4.09628C28.3564 6.8816 26.8408 7.94669 24.6696 7.94669H18.3205V10.6502H22.5397C24.7106 10.6502 26.4721 11.3056 26.4721 14.0911C26.4721 16.8767 24.6696 17.5728 22.5397 17.5728H18.3205V22.4065C18.3205 25.11 17.1736 26.2159 14.2652 26.2159H13.4869C10.4557 26.2159 9.43164 25.11 9.43164 22.4065V3.89142C9.43164 1.10588 10.5786 0.0410168 13.4869 0.0410168H24.6696V0Z" fill="#EF4046"/>
<path d="M33.8441 9.33968C36.9981 9.33968 37.8994 10.4458 37.8994 13.1493V22.4067C37.8994 25.1102 36.9981 26.2163 33.8441 26.2163H33.7211C30.567 26.2163 29.6658 25.1102 29.6658 22.4067V13.1493C29.6658 10.4458 30.567 9.33968 33.7211 9.33968H33.8441ZM38.0632 4.17853C38.0632 7.00487 36.1789 8.06996 33.7621 8.06996C31.3863 8.06996 29.543 6.96386 29.543 4.17853C29.543 1.35198 31.3863 0.205078 33.7621 0.205078C36.2199 0.205078 38.0632 1.35198 38.0632 4.17853Z" fill="#EF4046"/>
<path d="M57.1922 9.6674C57.1922 10.9373 56.6596 12.166 55.3489 12.8216C54.5295 12.4119 53.0549 11.9204 51.5393 11.9204C50.2285 11.9204 49.3683 12.0842 49.3683 12.6986C49.3683 13.3132 50.0647 13.6409 51.9898 14.1324C55.6766 15.1154 57.6017 16.8359 57.6017 19.7032C57.6017 24.1682 53.0959 26.421 48.3853 26.421C43.2239 26.421 39.6602 25.0284 39.6602 22.4067C39.6602 20.2768 40.5204 19.2935 41.5445 18.9658C42.2819 19.4166 44.4528 20.2358 46.4189 20.2358C48.2622 20.2358 48.5491 19.8261 48.5491 19.3345C48.5491 18.843 47.8117 18.5563 45.3131 17.86C42.3637 17.0407 40.3976 15.4841 40.3976 12.0842C40.3976 7.82412 44.289 5.12061 49.4911 5.12061C54.2428 5.12061 57.1922 6.84106 57.1922 9.6674Z" fill="#EF4046"/>
<path d="M63.7018 0.0410168C66.8558 0.0410168 67.757 1.1469 67.757 3.85041V9.62613C68.3306 7.66002 69.8052 5.03832 73.6148 5.03832C76.687 5.03832 79.6361 7.12747 79.6361 12.6165V22.3247C79.6361 25.069 78.4892 26.1751 75.5399 26.1751H75.2532C72.6725 26.1751 71.3618 25.069 71.3618 22.3247V15.238C71.3618 13.8044 70.6654 13.2719 69.7233 13.2719C68.5762 13.2719 67.8798 14.337 67.798 16.3441V22.3247C67.798 25.0282 66.8968 26.1341 63.7428 26.1341H63.6199C60.4657 26.1341 59.5645 25.0282 59.5645 22.3247V3.80961C59.5645 1.10588 60.4657 0 63.6199 0H63.7018V0.0410168Z" fill="#EF4046"/>
<path d="M85.9457 0.0415039C89.0999 0.0415039 90.0012 1.14738 90.0012 3.85089V12.9037C91.4757 10.9784 92.2131 9.29893 92.7865 7.94718C93.4829 6.22672 95.0805 5.28468 97.2104 5.28468H99.7911C101.102 5.28468 102.085 5.98107 102.085 7.20999C102.085 8.76639 100.16 12.1255 96.7189 15.1157C98.6032 17.2456 100.078 19.3758 101.184 21.3419C101.798 22.489 102.126 23.1444 102.126 24.0454C102.126 25.3154 101.184 26.2166 99.3814 26.2166H96.801C95.2443 26.2166 93.6467 25.2333 92.7455 23.3082C91.9263 21.6288 91.3119 19.8263 90.0012 17.983V22.407C90.0012 25.1105 89.0999 26.2166 85.9457 26.2166H85.8228C82.6688 26.2166 81.7676 25.1105 81.7676 22.407V3.89191C81.7676 1.1884 82.6688 0.0825207 85.8228 0.0825207H85.9457V0.0415039Z" fill="#EF4046"/>
<path d="M110.486 19.2526C110.486 20.1536 111.183 20.891 112.288 20.891C113.681 20.891 114.541 19.8259 114.541 18.4742V17.7778C114.05 17.6549 112.944 17.5321 112.412 17.5321C111.183 17.5321 110.486 18.0647 110.486 19.2526ZM121.915 14.1322L121.874 18.4742C121.874 20.809 122.775 22.2838 123.471 22.6933C123.348 24.0042 122.324 26.38 118.884 26.38C116.631 26.38 115.484 25.315 114.705 23.4307L114.623 23.3896C114.296 24.4547 112.821 26.38 109.585 26.38C106.144 26.38 102.826 24.2499 102.826 19.9487C102.826 15.6068 106.718 13.7225 110.609 13.7225C112.329 13.7225 113.313 13.9274 114.5 14.1322V13.7225C114.5 12.5756 113.19 11.9202 111.019 11.9202C108.479 11.9202 106.963 12.4528 105.694 13.1081C104.669 12.3707 103.727 11.5925 103.727 10.0769C103.727 7.57808 106.881 5.12044 112.493 5.12044C119.826 5.07943 121.956 8.92983 121.915 14.1322Z" fill="#EF4046"/>
</g>
<defs>
<clipPath id="clip0_10796_10947">
<rect width="133" height="26.4113" fill="white"/>
</clipPath>
</defs>
</svg>
