<svg width="142" height="25" viewBox="0 0 142 25" fill="none" xmlns="http://www.w3.org/2000/svg">
<g clip-path="url(#clip0_10796_10938)">
<path fill-rule="evenodd" clip-rule="evenodd" d="M132.335 7.89891H126.563C125.594 7.95681 125.324 8.19949 125.324 9.38763V12.663H132.335V7.89891ZM135.408 5.27612V19.5583H132.335V15.4529H125.324V19.5583H122.251V8.36167C122.251 6.38336 123.044 5.27612 125.324 5.27612H135.408ZM119.178 8.35899V16.0882C119.178 18.5488 117.81 19.5556 116.104 19.5556H106.411V5.27344H116.104C118.722 5.27344 119.178 6.955 119.178 8.35899ZM116.068 9.21855C116.068 8.43605 115.596 7.89623 114.769 7.89623H109.485V16.8201L114.769 16.8197C115.973 16.758 116.068 16.0288 116.068 15.4502V9.21855ZM43.7676 5.27344H46.8407V10.9028H53.7162V5.27344H56.7893V19.5552H53.7162V13.7269H46.8407V19.5552H43.7676V5.27344ZM62.0563 5.27344L65.9088 11.1121L69.7151 5.27344H73.4466L67.4438 14.4043V19.5556H64.3704V14.4036L58.3259 5.27344H62.0563ZM90.697 5.27344H100.6C102.011 5.27344 103.378 5.47357 103.338 8.35899V19.5556H100.265V9.38494C100.265 8.15502 100.119 7.89623 99.1637 7.89623H93.7708V19.5556H90.697V5.27344ZM141.554 5.27612V19.5583H138.481V5.27612H141.554ZM74.9835 19.5556H84.8859C86.8547 19.5556 87.6641 18.9801 87.6243 16.1123V5.27344H84.5512V15.469C84.5512 16.6913 84.4051 16.8396 83.4499 16.8396H78.057L78.0566 5.27344H74.9835V19.5556Z" fill="#001261"/>
<path fill-rule="evenodd" clip-rule="evenodd" d="M22.0744 14.5331C22.3454 15.9478 21.6114 17.1229 21.0016 18.2635C20.3242 19.3247 19.2062 20.2368 17.8625 20.1003C14.8471 20.0547 11.9 19.587 9.16688 18.7538C9.04279 18.7197 8.91869 18.6396 8.85077 18.5257C8.79422 18.3659 8.87354 18.2175 8.98624 18.1151C11.4821 16.0728 14.452 15.1262 17.3881 14.1332C18.4833 13.8138 19.6468 13.4715 20.8775 13.6313C21.3853 13.7 21.8934 14.0538 22.0744 14.5331ZM32.362 8.48658C33.7623 9.65018 35.0271 11.2363 34.5979 13.1529C33.8977 15.9823 30.8489 17.4883 28.421 18.4464C27.0996 18.8915 25.7672 19.3481 24.3217 19.485C24.2314 19.4735 24.0846 19.4961 24.0618 19.3592L24.0956 19.1997C26.1509 16.8607 27.709 14.2371 29.076 11.5786C29.7082 10.3805 30.2956 9.1487 30.8375 7.93909C30.9165 7.84785 30.9958 7.80222 31.0861 7.7681C31.5939 7.81334 31.9555 8.21284 32.362 8.48658ZM12.6559 5.47464L12.6107 5.64564C9.64086 9.05669 7.68726 13.0156 5.83535 16.9515C5.47408 17.2939 5.12381 16.8373 4.79631 16.6889C3.14744 15.5939 1.65681 13.8253 2.08601 11.7263C2.77478 8.98844 5.56402 7.5281 7.89066 6.53588C9.2682 6.01101 10.7027 5.5889 12.2157 5.34928C12.3739 5.34889 12.577 5.32627 12.6559 5.47464ZM27.3933 6.02213C27.5626 6.11338 27.766 6.1475 27.8677 6.31849C27.958 6.51249 27.7774 6.63786 27.6757 6.76361C25.338 8.61157 22.6619 9.63868 19.9288 10.54C18.5395 10.8824 17.1392 11.4985 15.5924 11.1561C15.2307 11.0649 14.9036 10.8253 14.7002 10.4714C14.3162 9.39906 14.8357 8.28108 15.2873 7.3456C15.8857 6.1705 16.9475 4.7899 18.4154 4.76728C21.5773 4.74428 24.5585 5.22352 27.3933 6.02213ZM31.3005 6.11338C33.6947 7.43685 36.405 9.76405 36.1227 12.8672C35.7952 15.7423 33.1414 17.7501 30.77 18.9597C23.8474 22.3025 14.1245 22.4049 6.97609 19.4846C4.55913 18.4694 1.84883 16.7238 0.832181 14.0995C0.0530923 11.9433 1.00143 9.6958 2.59414 8.20134C5.92529 5.14378 10.1714 4.09443 14.542 3.48944C19.2852 2.90744 24.2762 3.42081 28.5223 4.89265C29.471 5.24653 30.4083 5.63452 31.3005 6.11338Z" fill="#001261"/>
</g>
<defs>
<clipPath id="clip0_10796_10938">
<rect width="141.115" height="24.9027" fill="white"/>
</clipPath>
</defs>
</svg>
