<svg width="142" height="25" viewBox="0 0 142 25" fill="none" xmlns="http://www.w3.org/2000/svg">
<g clip-path="url(#clip0_10796_10982)">
<path d="M131.487 18.9676C131.451 19.251 131.344 19.9964 130.373 20.0933H121.845C120.874 19.9964 120.697 19.251 120.66 18.9676V5.80191C120.696 5.51787 120.831 4.91412 121.802 4.81729H130.377C131.348 4.91412 131.451 5.51787 131.487 5.80191V18.9676ZM134.44 -0.143215H117.707C115.193 0.0596215 113.069 1.33474 112.786 4.18737V20.4874C113.069 23.34 115.193 24.8513 117.707 25.0541H134.44C136.954 24.8513 139.078 23.34 139.362 20.4874V4.18737C139.078 1.33474 136.954 0.0596215 134.44 -0.143215ZM66.7209 4.81729H59.2401V-0.143215H82.076V4.81729H74.5952V25.0541H66.7209V4.81729ZM56.8781 4.81729V-0.143215H36.4044V25.0541L57.1502 25.0487L57.1577 20.0936H44.2988L44.3 14.6969H56.878V9.74858H44.3V4.81729L56.8781 4.81729ZM102.549 8.72283C102.549 9.26815 102.414 9.74653 101.435 9.74653H92.3127V4.80064H101.447C102.558 4.80064 102.549 5.52773 102.549 5.98165V8.72283ZM104.731 15.2588C107.187 15.0621 109.636 13.3901 109.636 10.6442V4.4235C109.351 1.58413 107.221 0.0507898 104.695 -0.151367H84.4381L84.4387 25.0541H92.3126V15.2588H95.4466L100.565 25.0541H109.62L103.525 15.2588H104.731ZM20.1049 25.0541L25.3806 9.22704V25.0541H33.2549V-0.143215H22.6248L17.5064 12.4558L12.3879 -0.143215H1.75781V25.0541H9.63216V9.22704L14.9469 25.0541H20.1049Z" fill="#1A3C7B"/>
</g>
<defs>
<clipPath id="clip0_10796_10982">
<rect width="141.115" height="24.9027" fill="white"/>
</clipPath>
</defs>
</svg>
