<svg width="142" height="25" viewBox="0 0 142 25" fill="none" xmlns="http://www.w3.org/2000/svg">
<g clip-path="url(#clip0_10796_10967)">
<path d="M82.7202 16.7791C82.6075 16.8073 82.1569 16.8073 81.9597 16.8073H67.4272V20.1851H82.2132C82.3259 20.1851 83.199 20.1851 83.3679 20.157C86.3815 19.8755 87.7615 17.3702 87.7615 15.1746C87.7615 12.9228 86.3251 10.502 83.5932 10.2486C83.0581 10.1923 82.6075 10.1923 82.4104 10.1923H72.7502C72.3277 10.1923 71.8489 10.1642 71.6799 10.1079C70.9195 9.91085 70.6379 9.23528 70.6379 8.6723C70.6379 8.16563 70.9195 7.49006 71.7081 7.26487C71.9334 7.20857 72.1869 7.18043 72.722 7.18043H86.6631V3.85889H72.4967C71.9052 3.85889 71.4546 3.88704 71.0885 3.94333C68.6664 4.28112 66.9766 6.22337 66.9766 8.70045C66.9766 10.7272 68.2439 13.0916 71.0322 13.4857C71.5391 13.542 72.2432 13.542 72.553 13.542H81.9597C82.1287 13.542 82.5512 13.542 82.6357 13.5702C83.7059 13.7109 84.072 14.4991 84.072 15.2028C84.072 15.8784 83.6496 16.6102 82.7202 16.7791Z" fill="black"/>
<path d="M55.1772 16.7791C55.0645 16.8073 54.6139 16.8073 54.4449 16.8073H39.8842V20.1851H54.6703C54.7829 20.1851 55.656 20.1851 55.825 20.157C58.8385 19.8755 60.2185 17.3702 60.2185 15.1746C60.2185 12.9228 58.7822 10.502 56.0503 10.2486C55.5152 10.1923 55.0645 10.1923 54.8674 10.1923H45.2072C44.7847 10.1923 44.3059 10.1642 44.137 10.1079C43.3765 9.91085 43.0949 9.23528 43.0949 8.6723C43.0949 8.16563 43.3765 7.49006 44.1651 7.26487C44.3904 7.20857 44.6439 7.18043 45.179 7.18043H59.1201V3.85889H44.9537C44.3623 3.85889 43.9117 3.88704 43.5455 3.94333C41.1234 4.28112 39.4336 6.22337 39.4336 8.70045C39.4336 10.7272 40.701 13.0916 43.4892 13.4857C43.9961 13.542 44.7002 13.542 45.01 13.542H54.4168C54.5858 13.542 55.0082 13.542 55.0927 13.5702C56.1629 13.7109 56.5291 14.4991 56.5291 15.2028C56.5291 15.8784 56.1348 16.6102 55.1772 16.7791Z" fill="black"/>
<path d="M32.3097 3.74609H28.6484V20.2694H32.3097V3.74609Z" fill="black"/>
<path d="M20.5635 20.2694V3.74609H16.9022V16.0752L4.70728 3.74609H0.00390625V20.2694H3.66521V7.88395L15.9447 20.2694H20.5635Z" fill="black"/>
<path d="M138.316 3.74609V16.0752L126.121 3.74609H121.418V20.2694H125.079V7.88395L137.331 20.2694H141.949V3.74609H138.316Z" fill="black"/>
<path d="M102.351 3.74609L92.043 20.2694H96.4929L98.3235 17.3137H110.349L112.18 20.2694H116.602L106.294 3.74609H102.351ZM108.463 14.1892H100.21L104.351 7.54616L108.463 14.1892Z" fill="black"/>
</g>
<defs>
<clipPath id="clip0_10796_10967">
<rect width="141.945" height="24.0726" fill="white"/>
</clipPath>
</defs>
</svg>
