<svg width="105" height="25" viewBox="0 0 105 25" fill="none" xmlns="http://www.w3.org/2000/svg">
<g clip-path="url(#clip0_10796_10960)">
<path d="M44.6732 0.714295L34.1331 10.8061V0.770948H28.7666V23.9429H34.1331V17.5305L37.9619 13.932L44.8911 23.9429H51.9323L42.2016 9.9725L51.4529 0.714917L44.6732 0.714295ZM72.1346 0.714295L61.5946 10.8061V0.770948H56.228V23.9429H61.5946V17.5305L65.4234 13.932L72.3525 23.9429H79.3938L69.663 9.9725L78.9206 0.714917L72.1346 0.714295ZM24.0288 6.84098C23.6608 5.35116 22.8927 3.9902 21.8075 2.90506C20.7224 1.81993 19.3614 1.05186 17.8716 0.683789C14.2508 -0.227279 10.4606 -0.227279 6.83972 0.683789C5.3499 1.05186 3.98894 1.81993 2.9038 2.90506C1.81867 3.9902 1.05059 5.35116 0.682525 6.84098C-0.227508 10.462 -0.227508 14.2519 0.682525 17.8729C1.0511 19.3635 1.82011 20.725 2.90641 21.8102C3.99271 22.8954 5.35498 23.663 6.84595 24.0301C10.4668 24.9414 14.257 24.9414 17.8778 24.0301C19.3676 23.662 20.7286 22.8939 21.8137 21.8087C22.8988 20.7236 23.6669 19.3627 24.035 17.8729C24.9448 14.2519 24.9448 10.462 24.035 6.84098H24.0288ZM18.8055 16.5779C18.6713 17.1185 18.3923 17.6122 17.9985 18.006C17.6047 18.3998 17.111 18.6788 16.5705 18.813C13.8019 19.5118 10.9032 19.5118 8.13466 18.813C7.59413 18.6788 7.1004 18.3998 6.70659 18.006C6.31278 17.6122 6.0338 17.1185 5.89964 16.5779C5.2005 13.8095 5.2005 10.9106 5.89964 8.14215C6.0338 7.60162 6.31278 7.10789 6.70659 6.71408C7.1004 6.32027 7.59413 6.04129 8.13466 5.90713C10.9032 5.20825 13.802 5.20825 16.5705 5.90713C17.111 6.04129 17.6047 6.32027 17.9985 6.71408C18.3923 7.10789 18.6713 7.60162 18.8055 8.14215C19.5046 10.9106 19.5046 13.8095 18.8055 16.5779ZM103.904 6.84098C103.536 5.35033 102.767 3.98877 101.681 2.90354C100.594 1.81832 99.2319 1.05073 97.7409 0.683789C94.12 -0.227279 90.3298 -0.227279 86.7089 0.683789C85.2191 1.05186 83.8582 1.81993 82.773 2.90506C81.6879 3.9902 80.9198 5.35116 80.5518 6.84098C79.6422 10.462 79.6422 14.2518 80.5518 17.8729C80.9203 19.3625 81.6885 20.7232 82.7735 21.8083C83.8586 22.8934 85.2193 23.6616 86.7089 24.0301C90.3298 24.9414 94.12 24.9414 97.7409 24.0301C99.2307 23.662 100.592 22.8939 101.677 21.8088C102.762 20.7237 103.53 19.3627 103.898 17.8729C104.808 14.2519 104.808 10.462 103.898 6.84098H103.904ZM98.6809 16.5717C98.5473 17.1125 98.2685 17.6065 97.8746 18.0004C97.4807 18.3943 96.9867 18.6731 96.4459 18.8067C93.6774 19.5056 90.7786 19.5056 88.0101 18.8067C87.4695 18.6728 86.9756 18.3939 86.5817 18.0001C86.1879 17.6062 85.909 17.1124 85.7751 16.5717C85.0766 13.8032 85.0766 10.9045 85.7751 8.13592C85.9094 7.59545 86.1884 7.10179 86.5822 6.708C86.976 6.31422 87.4696 6.03519 88.0101 5.90091C90.7786 5.20202 93.6774 5.20202 96.4459 5.90091C96.9866 6.03475 97.4805 6.31363 97.8743 6.70749C98.2682 7.10135 98.5471 7.59524 98.6809 8.13592C99.3801 10.9044 99.3801 13.8032 98.6809 16.5717Z" fill="#83BD59"/>
</g>
<defs>
<clipPath id="clip0_10796_10960">
<rect width="104.591" height="24.9027" fill="white"/>
</clipPath>
</defs>
</svg>
