<svg width="150" height="20" viewBox="0 0 150 20" fill="none" xmlns="http://www.w3.org/2000/svg">
<g clip-path="url(#clip0_10796_10997)">
<path d="M110.791 14.6412H110.977C111.185 14.6588 111.394 14.6371 111.594 14.5772H111.841L111.718 14.3854L109.989 11.2525L109.741 11.3804L110.791 14.5133V14.6412ZM103.936 9.33437C104.243 9.17806 104.512 8.95384 104.726 8.6776C104.939 8.40135 105.091 8.07986 105.171 7.73594V8.24744C105.169 8.97639 105.231 9.70405 105.357 10.4213C105.201 10.1522 104.995 9.91773 104.751 9.73121C104.507 9.54468 104.23 9.40982 103.936 9.33437ZM67.1287 13.5542L64.0408 9.27043L67.1287 5.05057V13.5542ZM110.606 8.31137C111.347 8.31137 111.841 8.88681 111.841 9.84587C111.884 10.1655 111.814 10.4904 111.644 10.7607C111.474 11.0311 111.215 11.2284 110.915 11.3164L110.73 11.3804L110.853 11.5722L112.397 14.4494L112.459 14.5772H112.582C113.516 14.3642 114.362 13.8559 115.004 13.1227C115.646 12.3895 116.051 11.4678 116.164 10.4852C116.473 13.2985 118.388 14.769 120.302 14.769C120.802 14.7861 121.301 14.6987 121.768 14.5119C122.234 14.3252 122.66 14.043 123.019 13.6821V14.3854H127.219V4.79482H123.143V9.46225C123.165 9.66995 123.144 9.88008 123.083 10.0792C123.022 10.2783 122.921 10.4619 122.788 10.6184C122.654 10.7749 122.49 10.9008 122.307 10.9879C122.123 11.0751 121.924 11.1217 121.722 11.1246C121.519 11.1264 121.318 11.0831 121.132 10.9975C120.947 10.9119 120.781 10.786 120.646 10.6285C120.512 10.4709 120.411 10.2852 120.352 10.0841C120.293 9.88287 120.276 9.67083 120.302 9.46225C120.285 9.25552 120.309 9.04741 120.372 8.85049C120.435 8.65357 120.536 8.47192 120.669 8.31654C120.802 8.16115 120.963 8.03525 121.145 7.94645C121.326 7.85765 121.522 7.80778 121.722 7.79987H121.97L121.846 7.60806L120.055 4.41119L119.993 4.34725H119.932C117.894 4.53907 116.411 6.26538 116.164 8.695C116.034 7.6354 115.524 6.66533 114.734 5.97807C113.944 5.29081 112.934 4.93682 111.903 4.98663C110.855 4.92973 109.823 5.27075 109 5.94569C109.433 4.47513 110.73 4.02757 112.768 3.58C113.941 3.32426 115.917 2.8767 115.979 0.127387V-0.000488281H112.644V0.127387C112.582 0.447074 112.212 0.574949 111.347 0.766761C110.977 0.830698 110.483 0.958573 109.927 1.08645C107.209 1.78976 105.665 3.77182 105.357 6.96869C105.233 5.37025 103.627 4.41119 101.157 4.41119C99.8513 4.41592 98.556 4.65384 97.3282 5.1145V4.79482H93.0669V9.46225C93.0887 9.66995 93.0683 9.88008 93.0071 10.0792C92.9459 10.2783 92.8453 10.4619 92.7116 10.6184C92.5778 10.7749 92.414 10.9008 92.2306 10.9879C92.0472 11.0751 91.8483 11.1217 91.6465 11.1246C91.4433 11.1264 91.2421 11.0831 91.0564 10.9975C90.8708 10.9119 90.7051 10.786 90.5704 10.6285C90.4358 10.4709 90.3354 10.2852 90.276 10.0841C90.2166 9.88287 90.1995 9.67083 90.2261 9.46225C90.2092 9.25552 90.233 9.04741 90.2961 8.85049C90.3591 8.65357 90.4601 8.47192 90.5928 8.31654C90.7256 8.16115 90.8874 8.03525 91.0685 7.94645C91.2496 7.85765 91.4462 7.80778 91.6465 7.79987H91.8935L91.77 7.60806L89.979 4.41119L89.9173 4.34725H89.8555C87.5705 4.53907 86.0265 6.649 86.0265 9.46225C86.0371 9.84873 86.0784 10.2337 86.15 10.6131C85.1542 11.1119 84.093 11.4565 83.0004 11.6361C82.1976 11.6361 82.1976 11.3164 82.1976 11.2525C82.1976 11.0607 82.1976 10.8049 83.0004 10.6771C84.4208 10.4213 85.903 9.90981 85.903 7.73594C85.903 6.07356 84.7914 4.28332 81.7652 4.28332C80.5391 4.28154 79.3309 4.58876 78.2451 5.17844L78.1215 5.24238L78.1833 5.37025L79.1714 7.48019L79.2332 7.60806L79.3567 7.54412C79.8667 7.18217 80.4677 6.98218 81.0859 6.96869C81.8888 6.96869 81.9505 7.35231 81.9505 7.48019C81.9505 7.86381 81.5182 7.99169 80.9006 8.05562C80.8136 8.04606 80.7261 8.06871 80.6536 8.11956C79.4185 8.31137 78.6156 8.88681 78.3068 9.84587V9.39831C78.3068 6.07356 76.2071 4.28332 74.1073 4.28332C73.0504 4.26203 72.0287 4.67597 71.2664 5.43419V4.79482H62.3733L62.3116 4.85875L60.5206 8.11956V4.79482H53.4185L53.3567 4.92269L52.1215 8.56712L50.3923 4.92269L50.4541 4.79482H45.5135L45.637 4.98663L50.2071 12.9788L47.9838 17.7102L47.8603 17.902H52.3068L52.3686 17.838L56.3211 8.43925V14.1936H60.6441V10.5492L62.6204 14.1297L62.6821 14.1936H67.1904V17.902H71.3282V9.46225C71.3064 9.25454 71.3268 9.04441 71.388 8.84532C71.4492 8.64623 71.5498 8.46256 71.6835 8.30607C71.8173 8.14958 71.9811 8.02373 72.1645 7.93656C72.3479 7.84939 72.5468 7.80284 72.7486 7.79987C72.9487 7.80832 73.145 7.85854 73.3259 7.94752C73.5067 8.0365 73.6684 8.1624 73.801 8.31767C73.9337 8.47294 74.0347 8.65436 74.0979 8.85105C74.1612 9.04774 74.1854 9.25563 74.169 9.46225C74.1919 9.66501 74.1742 9.87046 74.1173 10.0659C74.0603 10.2613 73.9652 10.4425 73.8378 10.5984C73.7105 10.7542 73.5536 10.8813 73.3768 10.9718C73.2001 11.0624 73.0073 11.1144 72.8104 11.1246H72.5634L72.6869 11.3164L74.6014 14.4494L74.6631 14.5133H74.7249C76.4541 14.3215 77.751 12.9788 78.2451 11.0607C78.2451 12.0837 78.6774 14.5133 82.6916 14.5133C84.3591 14.4931 85.9867 13.9832 87.3852 13.0427C87.7497 13.5084 88.2113 13.8826 88.7354 14.1373C89.2595 14.3919 89.8324 14.5205 90.4113 14.5133C90.9116 14.5304 91.41 14.443 91.8769 14.2562C92.3438 14.0695 92.7695 13.7872 93.1287 13.4264V14.1297H97.3282V7.672C98.353 7.26822 99.4434 7.07284 100.54 7.09656C101.342 7.09656 101.713 7.28837 101.713 7.73594C101.713 7.99169 101.404 8.1835 100.91 8.1835H99.1192V10.6771H100.787C101.466 10.6771 101.775 10.8049 101.775 11.1246C101.775 11.4443 101.466 11.764 100.787 11.764C99.8879 11.7151 99.0163 11.4289 98.2546 10.9328L98.0075 10.8049V14.2576L98.131 14.3215C99.1072 14.6568 100.129 14.8295 101.157 14.833C104.616 14.833 105.851 13.2346 105.851 11.8279C106.153 12.5656 106.627 13.2143 107.231 13.7163C107.834 14.2183 108.548 14.558 109.309 14.7051L109.494 14.769V9.84587C109.433 8.88681 109.865 8.31137 110.606 8.31137ZM149.143 14.0018L145.746 9.27043L148.772 5.05057L148.958 4.79482H144.017L143.955 4.85875L142.226 8.11956V4.79482H137.903V14.1936H142.226V10.5492L144.202 14.1297L144.264 14.1936H149.328L149.143 14.0018ZM122.587 8.37531L122.834 8.24744L121.722 4.85875V4.79482H121.661C121.36 4.6799 121.05 4.59428 120.734 4.53907L120.426 4.47513L120.549 4.73088L122.587 8.37531ZM24.5776 16.2396C24.4541 16.1757 24.0836 15.9199 24.0836 15.0887C24.0836 14.3854 24.8246 13.6182 25.6893 12.7231C26.9244 11.4443 28.2831 10.0377 28.2831 8.05562C28.2636 6.8091 28.0337 5.5757 27.6037 4.41119L38.7819 9.97374L24.5776 16.2396ZM24.7629 0.574949L24.2688 0.319199L24.5776 0.766761C24.5776 0.766761 26.3686 3.58001 26.3686 6.07356C26.3686 8.37531 25.1334 9.65406 23.96 10.8049C22.8484 11.9558 21.675 13.1706 21.675 15.2166C21.684 16.6006 22.1652 17.9367 23.0337 18.9889L23.0954 19.0529L23.1572 18.9889L43.1049 10.1656L43.4137 10.0377L43.1667 9.90981L24.7629 0.574949ZM11.6085 11.2525C11.6085 9.46225 14.5729 7.99169 15.6845 7.48019C14.9758 8.57922 14.5897 9.86723 14.5729 11.1886C14.6379 12.531 15.0896 13.8225 15.8698 14.8969C14.6964 14.5772 11.6085 13.2985 11.6085 11.2525ZM22.4779 9.718C23.5277 8.1835 24.6394 6.58506 24.6394 5.17844C24.6394 2.94063 22.4779 0.447073 22.4161 0.319199L22.3543 0.255262L22.2926 0.319199L0.306835 9.90981L-0.00195312 10.0377L0.306835 10.1656L19.9458 18.3495L20.0693 18.0938C20.0075 18.0299 16.7344 14.6412 16.7344 11.8919C16.7344 9.65406 17.9078 8.56712 19.0812 7.54412C19.8989 6.8885 20.5726 6.0603 21.0574 5.1145C21.2888 4.46002 21.3937 3.76486 21.3662 3.06851C21.65 3.34741 21.8738 3.68523 22.0228 4.05985C22.1718 4.43446 22.2427 4.83743 22.2308 5.24238C22.2308 6.20144 21.428 7.41625 20.5634 8.695C19.5752 10.1656 18.5254 11.6361 18.5254 13.0427C18.5254 15.6642 21.6132 19.1807 21.7368 19.3086L21.9838 19.1168C21.9838 19.0529 20.5016 16.0478 20.5016 13.6821C20.5634 12.5952 21.4897 11.1886 22.4779 9.718ZM92.6964 8.37531L92.9434 8.24744L91.8318 4.79482V4.73088H91.77C91.4696 4.61597 91.1594 4.53034 90.8436 4.47513L90.5348 4.41119L90.6584 4.66694L92.6964 8.37531ZM72.0075 11.1246L71.7605 11.2525L72.8104 14.3854V14.4494H72.8721C73.1192 14.5133 73.428 14.5772 73.7367 14.6412H73.9838L73.8603 14.3854L72.0075 11.1246ZM131.665 14.2576H131.789V10.9967H133.148V14.2576H137.471V4.79482H133.148V7.672H131.789V4.79482H127.466V14.1936H131.665V14.2576Z" fill="#005596"/>
</g>
<defs>
<clipPath id="clip0_10796_10997">
<rect width="149.454" height="19.1812" fill="white"/>
</clipPath>
</defs>
</svg>
