<svg width="183" height="46" viewBox="0 0 183 46" fill="none" xmlns="http://www.w3.org/2000/svg">
<path d="M0.140625 22.6921C0.140625 10.224 10.248 0.116699 22.716 0.116699H160.426C172.894 0.116699 183.001 10.224 183.001 22.6921C183.001 35.1601 172.894 45.2674 160.426 45.2674H22.716C10.248 45.2674 0.140625 35.1601 0.140625 22.6921Z" fill="#262B3A"/>
<path d="M56.7539 8.10988C57.383 8.10988 57.9266 8.22853 58.3846 8.46582C58.8482 8.6976 59.2014 9.03146 59.4442 9.46742C59.6925 9.90337 59.8167 10.4166 59.8167 11.0071C59.8167 11.5975 59.6925 12.1107 59.4442 12.5467C59.2014 12.9771 58.8482 13.3082 58.3846 13.54C57.9266 13.7663 57.383 13.8794 56.7539 13.8794H54.9577V8.10988H56.7539ZM56.7539 13.2586C57.4989 13.2586 58.0673 13.0627 58.4591 12.6709C58.8509 12.2735 59.0468 11.7189 59.0468 11.0071C59.0468 10.2897 58.8482 9.72954 58.4509 9.3267C58.059 8.92385 57.4934 8.72243 56.7539 8.72243H55.711V13.2586H56.7539ZM62.7886 13.9539C62.3637 13.9539 61.9774 13.8573 61.6297 13.6642C61.2876 13.471 61.0172 13.1979 60.8185 12.8447C60.6254 12.486 60.5288 12.0721 60.5288 11.603C60.5288 11.1395 60.6281 10.7311 60.8268 10.378C61.031 10.0193 61.3069 9.7461 61.6546 9.55847C62.0022 9.36532 62.3913 9.26875 62.8217 9.26875C63.2521 9.26875 63.6412 9.36532 63.9888 9.55847C64.3365 9.7461 64.6097 10.0165 64.8083 10.3697C65.0125 10.7229 65.1146 11.134 65.1146 11.603C65.1146 12.0721 65.0098 12.486 64.8001 12.8447C64.5959 13.1979 64.3172 13.471 63.964 13.6642C63.6108 13.8573 63.219 13.9539 62.7886 13.9539ZM62.7886 13.2917C63.059 13.2917 63.3128 13.2282 63.5501 13.1013C63.7874 12.9744 63.9778 12.784 64.1213 12.5301C64.2703 12.2763 64.3448 11.9673 64.3448 11.603C64.3448 11.2388 64.273 10.9298 64.1296 10.676C63.9861 10.4221 63.7985 10.2345 63.5667 10.1131C63.3349 9.98615 63.0838 9.92269 62.8134 9.92269C62.5375 9.92269 62.2837 9.98615 62.0519 10.1131C61.8256 10.2345 61.6435 10.4221 61.5056 10.676C61.3676 10.9298 61.2986 11.2388 61.2986 11.603C61.2986 11.9728 61.3648 12.2846 61.4973 12.5384C61.6352 12.7923 61.8173 12.9827 62.0436 13.1096C62.2699 13.231 62.5182 13.2917 62.7886 13.2917ZM72.1477 9.34325L70.7322 13.8794H69.9541L68.8615 10.2786L67.7688 13.8794H66.9907L65.567 9.34325H66.3368L67.3798 13.151L68.5055 9.34325H69.2753L70.3763 13.1592L71.4027 9.34325H72.1477ZM75.1054 9.26047C75.6572 9.26047 76.1042 9.42879 76.4464 9.76541C76.7885 10.0965 76.9596 10.5766 76.9596 11.2057V13.8794H76.2146V11.3133C76.2146 10.8608 76.1015 10.5159 75.8752 10.2786C75.649 10.0358 75.3399 9.91441 74.9481 9.91441C74.5508 9.91441 74.2335 10.0386 73.9962 10.2869C73.7644 10.5352 73.6485 10.8967 73.6485 11.3713V13.8794H72.8953V9.34325H73.6485V9.98891C73.7975 9.75713 73.9989 9.57778 74.2528 9.45086C74.5122 9.32394 74.7964 9.26047 75.1054 9.26047ZM78.9433 7.75395V13.8794H78.19V7.75395H78.9433ZM82.2055 13.9539C81.7805 13.9539 81.3943 13.8573 81.0466 13.6642C80.7045 13.471 80.434 13.1979 80.2354 12.8447C80.0422 12.486 79.9457 12.0721 79.9457 11.603C79.9457 11.1395 80.045 10.7311 80.2437 10.378C80.4478 10.0193 80.7238 9.7461 81.0714 9.55847C81.4191 9.36532 81.8081 9.26875 82.2386 9.26875C82.669 9.26875 83.0581 9.36532 83.4057 9.55847C83.7534 9.7461 84.0265 10.0165 84.2252 10.3697C84.4294 10.7229 84.5315 11.134 84.5315 11.603C84.5315 12.0721 84.4266 12.486 84.2169 12.8447C84.0127 13.1979 83.7341 13.471 83.3809 13.6642C83.0277 13.8573 82.6359 13.9539 82.2055 13.9539ZM82.2055 13.2917C82.4759 13.2917 82.7297 13.2282 82.967 13.1013C83.2043 12.9744 83.3947 12.784 83.5382 12.5301C83.6872 12.2763 83.7617 11.9673 83.7617 11.603C83.7617 11.2388 83.6899 10.9298 83.5464 10.676C83.403 10.4221 83.2153 10.2345 82.9836 10.1131C82.7518 9.98615 82.5007 9.92269 82.2303 9.92269C81.9544 9.92269 81.7005 9.98615 81.4688 10.1131C81.2425 10.2345 81.0604 10.4221 80.9224 10.676C80.7845 10.9298 80.7155 11.2388 80.7155 11.603C80.7155 11.9728 80.7817 12.2846 80.9142 12.5384C81.0521 12.7923 81.2342 12.9827 81.4605 13.1096C81.6867 13.231 81.9351 13.2917 82.2055 13.2917ZM85.2404 11.5948C85.2404 11.1312 85.3343 10.7256 85.5219 10.378C85.7095 10.0248 85.9661 9.75161 86.2917 9.55847C86.6228 9.36532 86.9898 9.26875 87.3926 9.26875C87.79 9.26875 88.1349 9.35429 88.4273 9.52536C88.7198 9.69643 88.9378 9.91165 89.0813 10.171V9.34325H89.8428V13.8794H89.0813V13.0351C88.9323 13.3 88.7088 13.5207 88.4108 13.6973C88.1183 13.8684 87.7762 13.9539 87.3843 13.9539C86.9815 13.9539 86.6173 13.8546 86.2917 13.6559C85.9661 13.4572 85.7095 13.1786 85.5219 12.8199C85.3343 12.4612 85.2404 12.0528 85.2404 11.5948ZM89.0813 11.603C89.0813 11.2609 89.0123 10.9629 88.8743 10.7091C88.7364 10.4552 88.5487 10.2621 88.3114 10.1296C88.0797 9.99167 87.8231 9.92269 87.5416 9.92269C87.2602 9.92269 87.0036 9.98891 86.7718 10.1213C86.54 10.2538 86.3552 10.4469 86.2172 10.7008C86.0792 10.9546 86.0103 11.2526 86.0103 11.5948C86.0103 11.9424 86.0792 12.2459 86.2172 12.5053C86.3552 12.7592 86.54 12.9551 86.7718 13.093C87.0036 13.2255 87.2602 13.2917 87.5416 13.2917C87.8231 13.2917 88.0797 13.2255 88.3114 13.093C88.5487 12.9551 88.7364 12.7592 88.8743 12.5053C89.0123 12.2459 89.0813 11.9452 89.0813 11.603ZM90.8343 11.5948C90.8343 11.1312 90.9281 10.7256 91.1158 10.378C91.3034 10.0248 91.56 9.75161 91.8856 9.55847C92.2167 9.36532 92.5864 9.26875 92.9948 9.26875C93.348 9.26875 93.6763 9.35153 93.9798 9.51708C94.2833 9.67712 94.5151 9.88957 94.6751 10.1545V7.75395H95.4367V13.8794H94.6751V13.0268C94.5261 13.2972 94.3054 13.5207 94.0129 13.6973C93.7204 13.8684 93.3783 13.9539 92.9865 13.9539C92.5837 13.9539 92.2167 13.8546 91.8856 13.6559C91.56 13.4572 91.3034 13.1786 91.1158 12.8199C90.9281 12.4612 90.8343 12.0528 90.8343 11.5948ZM94.6751 11.603C94.6751 11.2609 94.6062 10.9629 94.4682 10.7091C94.3302 10.4552 94.1426 10.2621 93.9053 10.1296C93.6735 9.99167 93.4169 9.92269 93.1355 9.92269C92.8541 9.92269 92.5974 9.98891 92.3657 10.1213C92.1339 10.2538 91.949 10.4469 91.8111 10.7008C91.6731 10.9546 91.6041 11.2526 91.6041 11.5948C91.6041 11.9424 91.6731 12.2459 91.8111 12.5053C91.949 12.7592 92.1339 12.9551 92.3657 13.093C92.5974 13.2255 92.8541 13.2917 93.1355 13.2917C93.4169 13.2917 93.6735 13.2255 93.9053 13.093C94.1426 12.9551 94.3302 12.7592 94.4682 12.5053C94.6062 12.2459 94.6751 11.9452 94.6751 11.603ZM100.895 13.9539C100.47 13.9539 100.084 13.8573 99.7359 13.6642C99.3938 13.471 99.1234 13.1979 98.9247 12.8447C98.7316 12.486 98.635 12.0721 98.635 11.603C98.635 11.1395 98.7343 10.7311 98.933 10.378C99.1372 10.0193 99.4131 9.7461 99.7608 9.55847C100.108 9.36532 100.497 9.26875 100.928 9.26875C101.358 9.26875 101.747 9.36532 102.095 9.55847C102.443 9.7461 102.716 10.0165 102.915 10.3697C103.119 10.7229 103.221 11.134 103.221 11.603C103.221 12.0721 103.116 12.486 102.906 12.8447C102.702 13.1979 102.423 13.471 102.07 13.6642C101.717 13.8573 101.325 13.9539 100.895 13.9539ZM100.895 13.2917C101.165 13.2917 101.419 13.2282 101.656 13.1013C101.894 12.9744 102.084 12.784 102.228 12.5301C102.377 12.2763 102.451 11.9673 102.451 11.603C102.451 11.2388 102.379 10.9298 102.236 10.676C102.092 10.4221 101.905 10.2345 101.673 10.1131C101.441 9.98615 101.19 9.92269 100.92 9.92269C100.644 9.92269 100.39 9.98615 100.158 10.1131C99.9318 10.2345 99.7497 10.4221 99.6118 10.676C99.4738 10.9298 99.4048 11.2388 99.4048 11.603C99.4048 11.9728 99.4711 12.2846 99.6035 12.5384C99.7415 12.7923 99.9236 12.9827 100.15 13.1096C100.376 13.231 100.624 13.2917 100.895 13.2917ZM106.421 9.26047C106.973 9.26047 107.42 9.42879 107.762 9.76541C108.104 10.0965 108.276 10.5766 108.276 11.2057V13.8794H107.531V11.3133C107.531 10.8608 107.417 10.5159 107.191 10.2786C106.965 10.0358 106.656 9.91441 106.264 9.91441C105.867 9.91441 105.549 10.0386 105.312 10.2869C105.08 10.5352 104.964 10.8967 104.964 11.3713V13.8794H104.211V9.34325H104.964V9.98891C105.113 9.75713 105.315 9.57778 105.569 9.45086C105.828 9.32394 106.112 9.26047 106.421 9.26047ZM112.632 9.96407V12.6377C112.632 12.8585 112.679 13.0158 112.772 13.1096C112.866 13.1979 113.029 13.242 113.261 13.242H113.815V13.8794H113.137C112.717 13.8794 112.403 13.7828 112.193 13.5897C111.983 13.3965 111.878 13.0792 111.878 12.6377V9.96407H111.291V9.34325H111.878V8.20094H112.632V9.34325H113.815V9.96407H112.632ZM116.98 9.26047C117.322 9.26047 117.631 9.33497 117.907 9.48397C118.183 9.62745 118.398 9.84543 118.552 10.1379C118.712 10.4304 118.792 10.7863 118.792 11.2057V13.8794H118.047V11.3133C118.047 10.8608 117.934 10.5159 117.708 10.2786C117.482 10.0358 117.173 9.91441 116.781 9.91441C116.384 9.91441 116.066 10.0386 115.829 10.2869C115.597 10.5352 115.481 10.8967 115.481 11.3713V13.8794H114.728V7.75395H115.481V9.98891C115.63 9.75713 115.834 9.57778 116.094 9.45086C116.359 9.32394 116.654 9.26047 116.98 9.26047ZM124.162 11.4375C124.162 11.581 124.153 11.7327 124.137 11.8928H120.511C120.539 12.3398 120.691 12.6902 120.966 12.944C121.248 13.1924 121.587 13.3165 121.985 13.3165C122.31 13.3165 122.581 13.242 122.796 13.093C123.017 12.9385 123.171 12.7343 123.259 12.4805H124.071C123.949 12.9164 123.706 13.2724 123.342 13.5483C122.978 13.8187 122.525 13.9539 121.985 13.9539C121.554 13.9539 121.168 13.8573 120.826 13.6642C120.489 13.471 120.224 13.1979 120.031 12.8447C119.838 12.486 119.741 12.0721 119.741 11.603C119.741 11.134 119.835 10.7229 120.023 10.3697C120.21 10.0165 120.473 9.7461 120.809 9.55847C121.151 9.36532 121.543 9.26875 121.985 9.26875C122.415 9.26875 122.796 9.36257 123.127 9.55019C123.458 9.73782 123.712 9.99718 123.888 10.3283C124.071 10.6539 124.162 11.0236 124.162 11.4375ZM123.384 11.2802C123.384 10.9933 123.32 10.7477 123.193 10.5435C123.066 10.3338 122.892 10.1765 122.672 10.0717C122.456 9.96131 122.216 9.90613 121.951 9.90613C121.571 9.90613 121.245 10.0275 120.975 10.2703C120.71 10.5132 120.558 10.8498 120.519 11.2802H123.384ZM125.396 13.9291C125.252 13.9291 125.131 13.8794 125.032 13.7801C124.932 13.6807 124.883 13.5593 124.883 13.4158C124.883 13.2724 124.932 13.151 125.032 13.0516C125.131 12.9523 125.252 12.9026 125.396 12.9026C125.534 12.9026 125.65 12.9523 125.744 13.0516C125.843 13.151 125.893 13.2724 125.893 13.4158C125.893 13.5593 125.843 13.6807 125.744 13.7801C125.65 13.8794 125.534 13.9291 125.396 13.9291ZM125.396 10.3862C125.252 10.3862 125.131 10.3366 125.032 10.2372C124.932 10.1379 124.883 10.0165 124.883 9.87302C124.883 9.72954 124.932 9.60814 125.032 9.5088C125.131 9.40947 125.252 9.35981 125.396 9.35981C125.534 9.35981 125.65 9.40947 125.744 9.5088C125.843 9.60814 125.893 9.72954 125.893 9.87302C125.893 10.0165 125.843 10.1379 125.744 10.2372C125.65 10.3366 125.534 10.3862 125.396 10.3862Z" fill="#8A8484"/>
<path d="M60.3043 31.5764H56.9571L56.4033 33.1777H54.6334L57.6554 24.7616H59.618L62.6401 33.1777H60.8581L60.3043 31.5764ZM59.8468 30.2279L58.6307 26.7121L57.4146 30.2279H59.8468ZM65.4553 27.4707C65.6721 27.1657 65.969 26.9128 66.3463 26.7121C66.7316 26.5035 67.1691 26.3991 67.6587 26.3991C68.2286 26.3991 68.7423 26.5396 69.1998 26.8205C69.6654 27.1014 70.0306 27.5028 70.2955 28.0245C70.5684 28.5382 70.7049 29.1362 70.7049 29.8185C70.7049 30.5008 70.5684 31.1068 70.2955 31.6366C70.0306 32.1583 69.6654 32.5637 69.1998 32.8526C68.7423 33.1416 68.2286 33.2861 67.6587 33.2861C67.1691 33.2861 66.7356 33.1858 66.3583 32.9851C65.9891 32.7844 65.6881 32.5316 65.4553 32.2266V36.3563H63.7697V26.5075H65.4553V27.4707ZM68.9831 29.8185C68.9831 29.4172 68.8988 29.072 68.7303 28.7831C68.5697 28.4861 68.353 28.2613 68.0801 28.1088C67.8152 27.9563 67.5262 27.88 67.2132 27.88C66.9082 27.88 66.6192 27.9603 66.3463 28.1209C66.0814 28.2734 65.8647 28.4981 65.6961 28.7951C65.5356 29.0921 65.4553 29.4413 65.4553 29.8426C65.4553 30.2439 65.5356 30.5931 65.6961 30.8901C65.8647 31.1871 66.0814 31.4159 66.3463 31.5764C66.6192 31.7289 66.9082 31.8052 67.2132 31.8052C67.5262 31.8052 67.8152 31.7249 68.0801 31.5643C68.353 31.4038 68.5697 31.175 68.7303 30.8781C68.8988 30.5811 68.9831 30.2279 68.9831 29.8185ZM73.6154 27.4707C73.8321 27.1657 74.1291 26.9128 74.5064 26.7121C74.8916 26.5035 75.3291 26.3991 75.8187 26.3991C76.3886 26.3991 76.9024 26.5396 77.3599 26.8205C77.8254 27.1014 78.1907 27.5028 78.4555 28.0245C78.7285 28.5382 78.8649 29.1362 78.8649 29.8185C78.8649 30.5008 78.7285 31.1068 78.4555 31.6366C78.1907 32.1583 77.8254 32.5637 77.3599 32.8526C76.9024 33.1416 76.3886 33.2861 75.8187 33.2861C75.3291 33.2861 74.8957 33.1858 74.5184 32.9851C74.1492 32.7844 73.8482 32.5316 73.6154 32.2266V36.3563H71.9298V26.5075H73.6154V27.4707ZM77.1432 29.8185C77.1432 29.4172 77.0589 29.072 76.8903 28.7831C76.7298 28.4861 76.5131 28.2613 76.2401 28.1088C75.9753 27.9563 75.6863 27.88 75.3733 27.88C75.0682 27.88 74.7793 27.9603 74.5064 28.1209C74.2415 28.2734 74.0248 28.4981 73.8562 28.7951C73.6957 29.0921 73.6154 29.4413 73.6154 29.8426C73.6154 30.2439 73.6957 30.5931 73.8562 30.8901C74.0248 31.1871 74.2415 31.4159 74.5064 31.5764C74.7793 31.7289 75.0682 31.8052 75.3733 31.8052C75.6863 31.8052 75.9753 31.7249 76.2401 31.5643C76.5131 31.4038 76.7298 31.175 76.8903 30.8781C77.0589 30.5811 77.1432 30.2279 77.1432 29.8185ZM85.8605 33.262C85.2745 33.262 84.7447 33.1617 84.2711 32.961C83.8056 32.7603 83.4364 32.4714 83.1634 32.0941C82.8905 31.7169 82.7501 31.2714 82.742 30.7577H84.5481C84.5722 31.1028 84.6926 31.3757 84.9093 31.5764C85.134 31.7771 85.439 31.8774 85.8243 31.8774C86.2176 31.8774 86.5267 31.7851 86.7514 31.6005C86.9762 31.4078 87.0886 31.159 87.0886 30.854C87.0886 30.6051 87.0123 30.4005 86.8598 30.2399C86.7073 30.0794 86.5146 29.955 86.2819 29.8667C86.0571 29.7704 85.7441 29.666 85.3427 29.5536C84.7969 29.3931 84.3514 29.2366 84.0063 29.0841C83.6691 28.9235 83.3762 28.6867 83.1273 28.3737C82.8865 28.0526 82.7661 27.6272 82.7661 27.0974C82.7661 26.5998 82.8905 26.1663 83.1394 25.7971C83.3882 25.4279 83.7374 25.1469 84.1869 24.9543C84.6364 24.7536 85.1501 24.6533 85.728 24.6533C86.5949 24.6533 87.2972 24.866 87.835 25.2914C88.3809 25.7088 88.6819 26.2948 88.7381 27.0493H86.8839C86.8678 26.7603 86.7434 26.5235 86.5106 26.3389C86.2859 26.1463 85.9849 26.0499 85.6076 26.0499C85.2785 26.0499 85.0136 26.1342 84.813 26.3028C84.6203 26.4713 84.524 26.7162 84.524 27.0372C84.524 27.262 84.5962 27.4506 84.7407 27.6031C84.8932 27.7476 85.0778 27.868 85.2946 27.9643C85.5193 28.0526 85.8324 28.157 86.2337 28.2774C86.7795 28.4379 87.225 28.5984 87.5702 28.759C87.9153 28.9195 88.2123 29.1603 88.4611 29.4814C88.71 29.8025 88.8344 30.2239 88.8344 30.7456C88.8344 31.1951 88.718 31.6125 88.4852 31.9978C88.2524 32.3831 87.9113 32.6921 87.4618 32.9249C87.0123 33.1496 86.4785 33.262 85.8605 33.262ZM92.2583 27.8921V31.1189C92.2583 31.3436 92.3105 31.5082 92.4148 31.6125C92.5272 31.7088 92.7118 31.757 92.9687 31.757H93.7513V33.1777H92.6918C91.271 33.1777 90.5606 32.4874 90.5606 31.1068V27.8921H89.766V26.5075H90.5606V24.858H92.2583V26.5075H93.7513V27.8921H92.2583ZM97.9256 33.2861C97.2834 33.2861 96.7055 33.1456 96.1918 32.8647C95.6781 32.5757 95.2727 32.1704 94.9757 31.6486C94.6868 31.1269 94.5423 30.5249 94.5423 29.8426C94.5423 29.1603 94.6908 28.5583 94.9878 28.0366C95.2928 27.5148 95.7062 27.1135 96.2279 26.8326C96.7496 26.5436 97.3316 26.3991 97.9737 26.3991C98.6159 26.3991 99.1978 26.5436 99.7196 26.8326C100.241 27.1135 100.651 27.5148 100.948 28.0366C101.253 28.5583 101.405 29.1603 101.405 29.8426C101.405 30.5249 101.249 31.1269 100.936 31.6486C100.631 32.1704 100.213 32.5757 99.6834 32.8647C99.1617 33.1456 98.5757 33.2861 97.9256 33.2861ZM97.9256 31.8172C98.2306 31.8172 98.5155 31.745 98.7804 31.6005C99.0533 31.448 99.2701 31.2232 99.4306 30.9262C99.5911 30.6292 99.6714 30.268 99.6714 29.8426C99.6714 29.2085 99.5028 28.7229 99.1657 28.3857C98.8366 28.0406 98.4313 27.868 97.9497 27.868C97.468 27.868 97.0627 28.0406 96.7336 28.3857C96.4125 28.7229 96.252 29.2085 96.252 29.8426C96.252 30.4767 96.4085 30.9664 96.7216 31.3115C97.0426 31.6486 97.444 31.8172 97.9256 31.8172ZM104.327 27.5429C104.544 27.1897 104.825 26.9128 105.17 26.7121C105.523 26.5115 105.925 26.4111 106.374 26.4111V28.1811H105.929C105.399 28.1811 104.998 28.3055 104.725 28.5543C104.46 28.8031 104.327 29.2366 104.327 29.8546V33.1777H102.642V26.5075H104.327V27.5429ZM113.71 29.6981C113.71 29.9389 113.694 30.1556 113.662 30.3483H108.786C108.826 30.8299 108.994 31.2072 109.291 31.4801C109.588 31.753 109.954 31.8894 110.387 31.8894C111.013 31.8894 111.459 31.6205 111.724 31.0827H113.542C113.349 31.7249 112.98 32.2547 112.434 32.672C111.888 33.0814 111.218 33.2861 110.423 33.2861C109.781 33.2861 109.203 33.1456 108.689 32.8647C108.184 32.5757 107.786 32.1704 107.497 31.6486C107.216 31.1269 107.076 30.5249 107.076 29.8426C107.076 29.1523 107.216 28.5463 107.497 28.0245C107.778 27.5028 108.172 27.1014 108.677 26.8205C109.183 26.5396 109.765 26.3991 110.423 26.3991C111.057 26.3991 111.623 26.5356 112.121 26.8085C112.627 27.0814 113.016 27.4707 113.289 27.9764C113.57 28.474 113.71 29.0479 113.71 29.6981ZM111.964 29.2165C111.956 28.7831 111.8 28.4379 111.495 28.1811C111.19 27.9162 110.817 27.7837 110.375 27.7837C109.958 27.7837 109.604 27.9122 109.316 28.169C109.035 28.4178 108.862 28.767 108.798 29.2165H111.964Z" fill="white"/>
<path d="M34.5588 21.8495C34.5476 19.945 35.4105 18.5097 37.153 17.4513C36.1784 16.055 34.704 15.2871 32.7604 15.1391C30.9201 14.9939 28.9067 16.2114 28.1695 16.2114C27.3904 16.2114 25.6087 15.1894 24.2069 15.1894C21.3138 15.234 18.2393 17.496 18.2393 22.0981C18.2393 23.458 18.4878 24.8627 18.9849 26.3092C19.6495 28.2137 22.0455 32.88 24.5448 32.8046C25.8517 32.7739 26.776 31.8775 28.4767 31.8775C30.127 31.8775 30.9816 32.8046 32.4393 32.8046C34.9609 32.7683 37.1279 28.5265 37.759 26.6164C34.3773 25.0218 34.5588 21.9473 34.5588 21.8495ZM31.6238 13.3323C33.0396 11.6512 32.9112 10.1209 32.8693 9.5708C31.6182 9.64341 30.1717 10.4225 29.3479 11.3804C28.4404 12.408 27.907 13.6786 28.0215 15.1112C29.3731 15.2145 30.6074 14.5192 31.6238 13.3323Z" fill="white"/>
<path d="M152.146 6.88965H159.672C168.399 6.88965 175.474 13.9648 175.474 22.6924C175.474 31.42 168.399 38.4952 159.672 38.4952H152.146V6.88965Z" fill="#29344C"/>
<path d="M166.344 22.0853L162.735 18.9528C162.707 18.9289 162.672 18.9155 162.635 18.9155H161.789C161.718 18.9155 161.686 19.0034 161.74 19.0493L165.085 21.9535L165.232 22.135L165.266 22.1767C165.333 22.2588 165.334 22.3757 165.27 22.4598L165.161 22.6031L165.084 22.6796L161.739 25.5838C161.685 25.6306 161.718 25.7175 161.788 25.7175H162.662C162.681 25.7175 162.699 25.7108 162.712 25.6984L166.344 22.5477C166.377 22.519 166.404 22.4834 166.422 22.4436C166.44 22.4037 166.45 22.3604 166.45 22.3165C166.45 22.2727 166.44 22.2294 166.422 22.1895C166.404 22.1496 166.377 22.1141 166.344 22.0853Z" fill="white"/>
</svg>
