<svg width="183" height="46" viewBox="0 0 183 46" fill="none" xmlns="http://www.w3.org/2000/svg">
<rect y="0.116699" width="182.86" height="45.1507" rx="22.5754" fill="#262B3A"/>
<path d="M56.6133 8.10988C57.2424 8.10988 57.786 8.22853 58.244 8.46582C58.7076 8.6976 59.0607 9.03146 59.3035 9.46742C59.5519 9.90337 59.676 10.4166 59.676 11.0071C59.676 11.5975 59.5519 12.1107 59.3035 12.5467C59.0607 12.9771 58.7076 13.3082 58.244 13.54C57.786 13.7663 57.2424 13.8794 56.6133 13.8794H54.8171V8.10988H56.6133ZM56.6133 13.2586C57.3583 13.2586 57.9267 13.0627 58.3185 12.6709C58.7103 12.2735 58.9062 11.7189 58.9062 11.0071C58.9062 10.2897 58.7076 9.72954 58.3102 9.3267C57.9184 8.92385 57.3528 8.72243 56.6133 8.72243H55.5703V13.2586H56.6133ZM62.648 13.9539C62.223 13.9539 61.8368 13.8573 61.4891 13.6642C61.147 13.471 60.8766 13.1979 60.6779 12.8447C60.4847 12.486 60.3882 12.0721 60.3882 11.603C60.3882 11.1395 60.4875 10.7311 60.6862 10.378C60.8903 10.0193 61.1663 9.7461 61.5139 9.55847C61.8616 9.36532 62.2506 9.26875 62.6811 9.26875C63.1115 9.26875 63.5006 9.36532 63.8482 9.55847C64.1959 9.7461 64.469 10.0165 64.6677 10.3697C64.8719 10.7229 64.974 11.134 64.974 11.603C64.974 12.0721 64.8691 12.486 64.6594 12.8447C64.4552 13.1979 64.1766 13.471 63.8234 13.6642C63.4702 13.8573 63.0784 13.9539 62.648 13.9539ZM62.648 13.2917C62.9184 13.2917 63.1722 13.2282 63.4095 13.1013C63.6468 12.9744 63.8372 12.784 63.9807 12.5301C64.1297 12.2763 64.2042 11.9673 64.2042 11.603C64.2042 11.2388 64.1324 10.9298 63.9889 10.676C63.8455 10.4221 63.6578 10.2345 63.4261 10.1131C63.1943 9.98615 62.9432 9.92269 62.6728 9.92269C62.3969 9.92269 62.143 9.98615 61.9113 10.1131C61.685 10.2345 61.5029 10.4221 61.3649 10.676C61.227 10.9298 61.158 11.2388 61.158 11.603C61.158 11.9728 61.2242 12.2846 61.3567 12.5384C61.4946 12.7923 61.6767 12.9827 61.903 13.1096C62.1292 13.231 62.3776 13.2917 62.648 13.2917ZM72.0071 9.34325L70.5916 13.8794H69.8135L68.7208 10.2786L67.6282 13.8794H66.8501L65.4263 9.34325H66.1962L67.2391 13.151L68.3649 9.34325H69.1347L70.2356 13.1592L71.2621 9.34325H72.0071ZM74.9648 9.26047C75.5166 9.26047 75.9636 9.42879 76.3057 9.76541C76.6479 10.0965 76.819 10.5766 76.819 11.2057V13.8794H76.074V11.3133C76.074 10.8608 75.9608 10.5159 75.7346 10.2786C75.5083 10.0358 75.1993 9.91441 74.8075 9.91441C74.4102 9.91441 74.0929 10.0386 73.8556 10.2869C73.6238 10.5352 73.5079 10.8967 73.5079 11.3713V13.8794H72.7546V9.34325H73.5079V9.98891C73.6569 9.75713 73.8583 9.57778 74.1122 9.45086C74.3715 9.32394 74.6557 9.26047 74.9648 9.26047ZM78.8027 7.75395V13.8794H78.0494V7.75395H78.8027ZM82.0648 13.9539C81.6399 13.9539 81.2536 13.8573 80.906 13.6642C80.5638 13.471 80.2934 13.1979 80.0948 12.8447C79.9016 12.486 79.805 12.0721 79.805 11.603C79.805 11.1395 79.9044 10.7311 80.103 10.378C80.3072 10.0193 80.5831 9.7461 80.9308 9.55847C81.2785 9.36532 81.6675 9.26875 82.0979 9.26875C82.5284 9.26875 82.9174 9.36532 83.2651 9.55847C83.6128 9.7461 83.8859 10.0165 84.0846 10.3697C84.2888 10.7229 84.3909 11.134 84.3909 11.603C84.3909 12.0721 84.286 12.486 84.0763 12.8447C83.8721 13.1979 83.5934 13.471 83.2403 13.6642C82.8871 13.8573 82.4953 13.9539 82.0648 13.9539ZM82.0648 13.2917C82.3352 13.2917 82.5891 13.2282 82.8264 13.1013C83.0637 12.9744 83.2541 12.784 83.3975 12.5301C83.5465 12.2763 83.621 11.9673 83.621 11.603C83.621 11.2388 83.5493 10.9298 83.4058 10.676C83.2623 10.4221 83.0747 10.2345 82.8429 10.1131C82.6112 9.98615 82.3601 9.92269 82.0897 9.92269C81.8137 9.92269 81.5599 9.98615 81.3281 10.1131C81.1019 10.2345 80.9198 10.4221 80.7818 10.676C80.6438 10.9298 80.5749 11.2388 80.5749 11.603C80.5749 11.9728 80.6411 12.2846 80.7735 12.5384C80.9115 12.7923 81.0936 12.9827 81.3198 13.1096C81.5461 13.231 81.7944 13.2917 82.0648 13.2917ZM85.0998 11.5948C85.0998 11.1312 85.1936 10.7256 85.3813 10.378C85.5689 10.0248 85.8255 9.75161 86.1511 9.55847C86.4822 9.36532 86.8492 9.26875 87.252 9.26875C87.6493 9.26875 87.9942 9.35429 88.2867 9.52536C88.5792 9.69643 88.7972 9.91165 88.9406 10.171V9.34325H89.7022V13.8794H88.9406V13.0351C88.7916 13.3 88.5681 13.5207 88.2702 13.6973C87.9777 13.8684 87.6355 13.9539 87.2437 13.9539C86.8409 13.9539 86.4767 13.8546 86.1511 13.6559C85.8255 13.4572 85.5689 13.1786 85.3813 12.8199C85.1936 12.4612 85.0998 12.0528 85.0998 11.5948ZM88.9406 11.603C88.9406 11.2609 88.8717 10.9629 88.7337 10.7091C88.5957 10.4552 88.4081 10.2621 88.1708 10.1296C87.939 9.99167 87.6824 9.92269 87.401 9.92269C87.1196 9.92269 86.863 9.98891 86.6312 10.1213C86.3994 10.2538 86.2145 10.4469 86.0766 10.7008C85.9386 10.9546 85.8696 11.2526 85.8696 11.5948C85.8696 11.9424 85.9386 12.2459 86.0766 12.5053C86.2145 12.7592 86.3994 12.9551 86.6312 13.093C86.863 13.2255 87.1196 13.2917 87.401 13.2917C87.6824 13.2917 87.939 13.2255 88.1708 13.093C88.4081 12.9551 88.5957 12.7592 88.7337 12.5053C88.8717 12.2459 88.9406 11.9452 88.9406 11.603ZM90.6937 11.5948C90.6937 11.1312 90.7875 10.7256 90.9751 10.378C91.1628 10.0248 91.4194 9.75161 91.7449 9.55847C92.0761 9.36532 92.4458 9.26875 92.8542 9.26875C93.2073 9.26875 93.5357 9.35153 93.8392 9.51708C94.1427 9.67712 94.3745 9.88957 94.5345 10.1545V7.75395H95.2961V13.8794H94.5345V13.0268C94.3855 13.2972 94.1648 13.5207 93.8723 13.6973C93.5798 13.8684 93.2377 13.9539 92.8459 13.9539C92.443 13.9539 92.0761 13.8546 91.7449 13.6559C91.4194 13.4572 91.1628 13.1786 90.9751 12.8199C90.7875 12.4612 90.6937 12.0528 90.6937 11.5948ZM94.5345 11.603C94.5345 11.2609 94.4655 10.9629 94.3276 10.7091C94.1896 10.4552 94.002 10.2621 93.7647 10.1296C93.5329 9.99167 93.2763 9.92269 92.9949 9.92269C92.7134 9.92269 92.4568 9.98891 92.2251 10.1213C91.9933 10.2538 91.8084 10.4469 91.6704 10.7008C91.5325 10.9546 91.4635 11.2526 91.4635 11.5948C91.4635 11.9424 91.5325 12.2459 91.6704 12.5053C91.8084 12.7592 91.9933 12.9551 92.2251 13.093C92.4568 13.2255 92.7134 13.2917 92.9949 13.2917C93.2763 13.2917 93.5329 13.2255 93.7647 13.093C94.002 12.9551 94.1896 12.7592 94.3276 12.5053C94.4655 12.2459 94.5345 11.9452 94.5345 11.603ZM100.754 13.9539C100.329 13.9539 99.943 13.8573 99.5953 13.6642C99.2532 13.471 98.9828 13.1979 98.7841 12.8447C98.591 12.486 98.4944 12.0721 98.4944 11.603C98.4944 11.1395 98.5937 10.7311 98.7924 10.378C98.9966 10.0193 99.2725 9.7461 99.6201 9.55847C99.9678 9.36532 100.357 9.26875 100.787 9.26875C101.218 9.26875 101.607 9.36532 101.954 9.55847C102.302 9.7461 102.575 10.0165 102.774 10.3697C102.978 10.7229 103.08 11.134 103.08 11.603C103.08 12.0721 102.975 12.486 102.766 12.8447C102.561 13.1979 102.283 13.471 101.93 13.6642C101.576 13.8573 101.185 13.9539 100.754 13.9539ZM100.754 13.2917C101.025 13.2917 101.278 13.2282 101.516 13.1013C101.753 12.9744 101.943 12.784 102.087 12.5301C102.236 12.2763 102.31 11.9673 102.31 11.603C102.31 11.2388 102.239 10.9298 102.095 10.676C101.952 10.4221 101.764 10.2345 101.532 10.1131C101.301 9.98615 101.049 9.92269 100.779 9.92269C100.503 9.92269 100.249 9.98615 100.017 10.1131C99.7912 10.2345 99.6091 10.4221 99.4711 10.676C99.3332 10.9298 99.2642 11.2388 99.2642 11.603C99.2642 11.9728 99.3304 12.2846 99.4629 12.5384C99.6008 12.7923 99.7829 12.9827 100.009 13.1096C100.235 13.231 100.484 13.2917 100.754 13.2917ZM106.281 9.26047C106.833 9.26047 107.28 9.42879 107.622 9.76541C107.964 10.0965 108.135 10.5766 108.135 11.2057V13.8794H107.39V11.3133C107.39 10.8608 107.277 10.5159 107.051 10.2786C106.824 10.0358 106.515 9.91441 106.123 9.91441C105.726 9.91441 105.409 10.0386 105.172 10.2869C104.94 10.5352 104.824 10.8967 104.824 11.3713V13.8794H104.071V9.34325H104.824V9.98891C104.973 9.75713 105.174 9.57778 105.428 9.45086C105.687 9.32394 105.972 9.26047 106.281 9.26047ZM112.491 9.96407V12.6377C112.491 12.8585 112.538 13.0158 112.632 13.1096C112.726 13.1979 112.888 13.242 113.12 13.242H113.675V13.8794H112.996C112.577 13.8794 112.262 13.7828 112.052 13.5897C111.843 13.3965 111.738 13.0792 111.738 12.6377V9.96407H111.15V9.34325H111.738V8.20094H112.491V9.34325H113.675V9.96407H112.491ZM116.839 9.26047C117.181 9.26047 117.49 9.33497 117.766 9.48397C118.042 9.62745 118.257 9.84543 118.412 10.1379C118.572 10.4304 118.652 10.7863 118.652 11.2057V13.8794H117.907V11.3133C117.907 10.8608 117.794 10.5159 117.567 10.2786C117.341 10.0358 117.032 9.91441 116.64 9.91441C116.243 9.91441 115.926 10.0386 115.688 10.2869C115.457 10.5352 115.341 10.8967 115.341 11.3713V13.8794H114.587V7.75395H115.341V9.98891C115.49 9.75713 115.694 9.57778 115.953 9.45086C116.218 9.32394 116.513 9.26047 116.839 9.26047ZM124.021 11.4375C124.021 11.581 124.013 11.7327 123.996 11.8928H120.371C120.398 12.3398 120.55 12.6902 120.826 12.944C121.107 13.1924 121.447 13.3165 121.844 13.3165C122.17 13.3165 122.44 13.242 122.655 13.093C122.876 12.9385 123.03 12.7343 123.119 12.4805H123.93C123.809 12.9164 123.566 13.2724 123.202 13.5483C122.837 13.8187 122.385 13.9539 121.844 13.9539C121.414 13.9539 121.027 13.8573 120.685 13.6642C120.348 13.471 120.084 13.1979 119.89 12.8447C119.697 12.486 119.601 12.0721 119.601 11.603C119.601 11.134 119.695 10.7229 119.882 10.3697C120.07 10.0165 120.332 9.7461 120.669 9.55847C121.011 9.36532 121.403 9.26875 121.844 9.26875C122.274 9.26875 122.655 9.36257 122.986 9.55019C123.317 9.73782 123.571 9.99718 123.748 10.3283C123.93 10.6539 124.021 11.0236 124.021 11.4375ZM123.243 11.2802C123.243 10.9933 123.179 10.7477 123.053 10.5435C122.926 10.3338 122.752 10.1765 122.531 10.0717C122.316 9.96131 122.076 9.90613 121.811 9.90613C121.43 9.90613 121.105 10.0275 120.834 10.2703C120.569 10.5132 120.417 10.8498 120.379 11.2802H123.243ZM125.255 13.9291C125.112 13.9291 124.99 13.8794 124.891 13.7801C124.792 13.6807 124.742 13.5593 124.742 13.4158C124.742 13.2724 124.792 13.151 124.891 13.0516C124.99 12.9523 125.112 12.9026 125.255 12.9026C125.393 12.9026 125.509 12.9523 125.603 13.0516C125.702 13.151 125.752 13.2724 125.752 13.4158C125.752 13.5593 125.702 13.6807 125.603 13.7801C125.509 13.8794 125.393 13.9291 125.255 13.9291ZM125.255 10.3862C125.112 10.3862 124.99 10.3366 124.891 10.2372C124.792 10.1379 124.742 10.0165 124.742 9.87302C124.742 9.72954 124.792 9.60814 124.891 9.5088C124.99 9.40947 125.112 9.35981 125.255 9.35981C125.393 9.35981 125.509 9.40947 125.603 9.5088C125.702 9.60814 125.752 9.72954 125.752 9.87302C125.752 10.0165 125.702 10.1379 125.603 10.2372C125.509 10.3366 125.393 10.3862 125.255 10.3862Z" fill="#8A8484"/>
<path d="M60.862 27.3021C60.6694 26.9489 60.4045 26.68 60.0673 26.4954C59.7302 26.3108 59.3369 26.2185 58.8874 26.2185C58.3897 26.2185 57.9483 26.3309 57.563 26.5556C57.1777 26.7804 56.8767 27.1014 56.66 27.5188C56.4432 27.9362 56.3349 28.4178 56.3349 28.9637C56.3349 29.5255 56.4432 30.0152 56.66 30.4326C56.8847 30.85 57.1937 31.171 57.5871 31.3958C57.9804 31.6205 58.4379 31.7329 58.9596 31.7329C59.6018 31.7329 60.1275 31.5643 60.5369 31.2272C60.9463 30.8821 61.2152 30.4045 61.3436 29.7944H58.454V28.5061H63.0052V29.975C62.8928 30.561 62.652 31.1028 62.2827 31.6005C61.9135 32.0981 61.4359 32.4995 60.85 32.8045C60.272 33.1015 59.6219 33.25 58.8994 33.25C58.0887 33.25 57.3543 33.0694 56.6961 32.7082C56.0459 32.3389 55.5322 31.8292 55.1549 31.1791C54.7857 30.5289 54.6011 29.7904 54.6011 28.9637C54.6011 28.1369 54.7857 27.3984 55.1549 26.7483C55.5322 26.0901 56.0459 25.5804 56.6961 25.2192C57.3543 24.8499 58.0847 24.6653 58.8874 24.6653C59.8346 24.6653 60.6573 24.8981 61.3556 25.3636C62.054 25.8212 62.5356 26.4673 62.8005 27.3021H60.862ZM67.2141 33.2861C66.572 33.2861 65.9941 33.1456 65.4804 32.8647C64.9666 32.5757 64.5613 32.1704 64.2643 31.6486C63.9753 31.1269 63.8308 30.5249 63.8308 29.8426C63.8308 29.1603 63.9793 28.5583 64.2763 28.0366C64.5814 27.5148 64.9947 27.1135 65.5165 26.8326C66.0382 26.5436 66.6202 26.3991 67.2623 26.3991C67.9044 26.3991 68.4864 26.5436 69.0081 26.8326C69.5299 27.1135 69.9392 27.5148 70.2362 28.0366C70.5412 28.5583 70.6938 29.1603 70.6938 29.8426C70.6938 30.5249 70.5372 31.1269 70.2242 31.6486C69.9192 32.1704 69.5018 32.5757 68.972 32.8647C68.4503 33.1456 67.8643 33.2861 67.2141 33.2861ZM67.2141 31.8172C67.5192 31.8172 67.8041 31.745 68.069 31.6005C68.3419 31.448 68.5586 31.2232 68.7192 30.9262C68.8797 30.6292 68.96 30.268 68.96 29.8426C68.96 29.2085 68.7914 28.7229 68.4543 28.3857C68.1252 28.0406 67.7198 27.868 67.2382 27.868C66.7566 27.868 66.3513 28.0406 66.0222 28.3857C65.7011 28.7229 65.5406 29.2085 65.5406 29.8426C65.5406 30.4767 65.6971 30.9664 66.0101 31.3115C66.3312 31.6486 66.7325 31.8172 67.2141 31.8172ZM74.8921 33.2861C74.25 33.2861 73.672 33.1456 73.1583 32.8647C72.6446 32.5757 72.2393 32.1704 71.9423 31.6486C71.6533 31.1269 71.5088 30.5249 71.5088 29.8426C71.5088 29.1603 71.6573 28.5583 71.9543 28.0366C72.2593 27.5148 72.6727 27.1135 73.1944 26.8326C73.7162 26.5436 74.2981 26.3991 74.9403 26.3991C75.5824 26.3991 76.1644 26.5436 76.6861 26.8326C77.2078 27.1135 77.6172 27.5148 77.9142 28.0366C78.2192 28.5583 78.3717 29.1603 78.3717 29.8426C78.3717 30.5249 78.2152 31.1269 77.9022 31.6486C77.5971 32.1704 77.1798 32.5757 76.65 32.8647C76.1282 33.1456 75.5423 33.2861 74.8921 33.2861ZM74.8921 31.8172C75.1971 31.8172 75.4821 31.745 75.747 31.6005C76.0199 31.448 76.2366 31.2232 76.3971 30.9262C76.5577 30.6292 76.6379 30.268 76.6379 29.8426C76.6379 29.2085 76.4694 28.7229 76.1323 28.3857C75.8032 28.0406 75.3978 27.868 74.9162 27.868C74.4346 27.868 74.0292 28.0406 73.7001 28.3857C73.3791 28.7229 73.2185 29.2085 73.2185 29.8426C73.2185 30.4767 73.3751 30.9664 73.6881 31.3115C74.0092 31.6486 74.4105 31.8172 74.8921 31.8172ZM82.2209 26.3991C82.7186 26.3991 83.156 26.4994 83.5333 26.7001C83.9106 26.8928 84.2076 27.1456 84.4243 27.4586V26.5075H86.122V33.2259C86.122 33.844 85.9975 34.3938 85.7487 34.8754C85.4999 35.365 85.1266 35.7503 84.629 36.0313C84.1313 36.3202 83.5293 36.4647 82.8229 36.4647C81.8758 36.4647 81.0972 36.244 80.4871 35.8025C79.8851 35.361 79.544 34.759 79.4637 33.9965H81.1373C81.2256 34.3015 81.4142 34.5423 81.7032 34.7189C82.0002 34.9035 82.3574 34.9958 82.7748 34.9958C83.2644 34.9958 83.6617 34.8473 83.9668 34.5503C84.2718 34.2614 84.4243 33.8199 84.4243 33.2259V32.1904C84.2076 32.5035 83.9066 32.7644 83.5213 32.9731C83.144 33.1817 82.7106 33.2861 82.2209 33.2861C81.6591 33.2861 81.1453 33.1416 80.6798 32.8526C80.2142 32.5637 79.845 32.1583 79.5721 31.6366C79.3072 31.1068 79.1748 30.5008 79.1748 29.8185C79.1748 29.1443 79.3072 28.5463 79.5721 28.0245C79.845 27.5028 80.2102 27.1014 80.6677 26.8205C81.1333 26.5396 81.651 26.3991 82.2209 26.3991ZM84.4243 29.8426C84.4243 29.4332 84.344 29.0841 84.1835 28.7951C84.0229 28.4981 83.8062 28.2734 83.5333 28.1209C83.2604 27.9603 82.9674 27.88 82.6544 27.88C82.3413 27.88 82.0524 27.9563 81.7875 28.1088C81.5226 28.2613 81.3059 28.4861 81.1373 28.7831C80.9768 29.072 80.8965 29.4172 80.8965 29.8185C80.8965 30.2199 80.9768 30.573 81.1373 30.8781C81.3059 31.175 81.5226 31.4038 81.7875 31.5643C82.0604 31.7249 82.3494 31.8052 82.6544 31.8052C82.9674 31.8052 83.2604 31.7289 83.5333 31.5764C83.8062 31.4159 84.0229 31.1911 84.1835 30.9021C84.344 30.6051 84.4243 30.252 84.4243 29.8426ZM89.4539 24.268V33.1777H87.7683V24.268H89.4539ZM97.32 29.6981C97.32 29.9389 97.3039 30.1556 97.2718 30.3483H92.3956C92.4357 30.8299 92.6042 31.2072 92.9012 31.4801C93.1982 31.753 93.5635 31.8894 93.9969 31.8894C94.623 31.8894 95.0685 31.6205 95.3334 31.0827H97.1514C96.9588 31.7249 96.5896 32.2547 96.0437 32.672C95.4979 33.0814 94.8277 33.2861 94.033 33.2861C93.3909 33.2861 92.8129 33.1456 92.2992 32.8647C91.7935 32.5757 91.3962 32.1704 91.1073 31.6486C90.8263 31.1269 90.6858 30.5249 90.6858 29.8426C90.6858 29.1523 90.8263 28.5463 91.1073 28.0245C91.3882 27.5028 91.7815 27.1014 92.2872 26.8205C92.7929 26.5396 93.3748 26.3991 94.033 26.3991C94.6671 26.3991 95.233 26.5356 95.7307 26.8085C96.2364 27.0814 96.6257 27.4707 96.8986 27.9764C97.1795 28.474 97.32 29.0479 97.32 29.6981ZM95.5742 29.2165C95.5661 28.7831 95.4096 28.4379 95.1046 28.1811C94.7996 27.9162 94.4263 27.7837 93.9849 27.7837C93.5675 27.7837 93.2143 27.9122 92.9253 28.169C92.6444 28.4178 92.4718 28.767 92.4076 29.2165H95.5742ZM103.105 27.4707C103.322 27.1657 103.619 26.9128 103.996 26.7121C104.381 26.5035 104.819 26.3991 105.308 26.3991C105.878 26.3991 106.392 26.5396 106.849 26.8205C107.315 27.1014 107.68 27.5028 107.945 28.0245C108.218 28.5382 108.354 29.1362 108.354 29.8185C108.354 30.5008 108.218 31.1068 107.945 31.6366C107.68 32.1583 107.315 32.5637 106.849 32.8526C106.392 33.1416 105.878 33.2861 105.308 33.2861C104.819 33.2861 104.385 33.1858 104.008 32.9851C103.639 32.7844 103.338 32.5316 103.105 32.2266V36.3563H101.419V26.5075H103.105V27.4707ZM106.633 29.8185C106.633 29.4172 106.548 29.072 106.38 28.7831C106.219 28.4861 106.003 28.2613 105.73 28.1088C105.465 27.9563 105.176 27.88 104.863 27.88C104.558 27.88 104.269 27.9603 103.996 28.1209C103.731 28.2734 103.514 28.4981 103.346 28.7951C103.185 29.0921 103.105 29.4413 103.105 29.8426C103.105 30.2439 103.185 30.5931 103.346 30.8901C103.514 31.1871 103.731 31.4159 103.996 31.5764C104.269 31.7289 104.558 31.8052 104.863 31.8052C105.176 31.8052 105.465 31.7249 105.73 31.5643C106.003 31.4038 106.219 31.175 106.38 30.8781C106.548 30.5811 106.633 30.2279 106.633 29.8185ZM111.265 24.268V33.1777H109.579V24.268H111.265ZM112.497 29.8185C112.497 29.1443 112.629 28.5463 112.894 28.0245C113.167 27.5028 113.532 27.1014 113.99 26.8205C114.455 26.5396 114.973 26.3991 115.543 26.3991C116.041 26.3991 116.474 26.4994 116.843 26.7001C117.221 26.9008 117.522 27.1536 117.746 27.4586V26.5075H119.444V33.1777H117.746V32.2025C117.53 32.5155 117.229 32.7764 116.843 32.9851C116.466 33.1858 116.029 33.2861 115.531 33.2861C114.969 33.2861 114.455 33.1416 113.99 32.8526C113.532 32.5637 113.167 32.1583 112.894 31.6366C112.629 31.1068 112.497 30.5008 112.497 29.8185ZM117.746 29.8426C117.746 29.4332 117.666 29.0841 117.506 28.7951C117.345 28.4981 117.128 28.2734 116.855 28.1209C116.583 27.9603 116.29 27.88 115.977 27.88C115.664 27.88 115.375 27.9563 115.11 28.1088C114.845 28.2613 114.628 28.4861 114.459 28.7831C114.299 29.072 114.219 29.4172 114.219 29.8185C114.219 30.2199 114.299 30.573 114.459 30.8781C114.628 31.175 114.845 31.4038 115.11 31.5643C115.383 31.7249 115.672 31.8052 115.977 31.8052C116.29 31.8052 116.583 31.7289 116.855 31.5764C117.128 31.4159 117.345 31.1911 117.506 30.9021C117.666 30.6051 117.746 30.252 117.746 29.8426ZM127.472 26.5075L123.342 36.3323H121.548L122.993 33.0092L120.32 26.5075H122.21L123.932 31.167L125.678 26.5075H127.472Z" fill="white"/>
<path d="M19.374 32.8206V12.5655C19.374 11.8626 19.7791 11.243 20.3749 10.957L32.1109 22.6931L20.3749 34.4291C19.7791 34.1313 19.374 33.5236 19.374 32.8206ZM35.8283 26.4105L23.008 33.8215L33.1237 23.7058L35.8283 26.4105ZM39.8198 21.2752C40.2249 21.5969 40.5228 22.0973 40.5228 22.6931C40.5228 23.2888 40.2606 23.7654 39.8436 24.099L37.1151 25.6718L34.1364 22.6931L37.1151 19.7144L39.8198 21.2752ZM23.008 11.5647L35.8283 18.9757L33.1237 21.6803L23.008 11.5647Z" fill="white"/>
<path d="M152.006 6.89014H159.531C168.259 6.89014 175.334 13.9653 175.334 22.6929C175.334 31.4205 168.259 38.4956 159.531 38.4956H152.006V6.89014Z" fill="#29344C"/>
<path d="M166.207 22.0844L162.597 18.9518C162.57 18.9279 162.534 18.9146 162.497 18.9146H161.651C161.581 18.9146 161.548 19.0024 161.602 19.0483L164.947 21.9525L165.095 22.134L165.128 22.1757C165.195 22.2578 165.197 22.3747 165.133 22.4589L165.024 22.6022L164.946 22.6786L161.601 25.5828C161.547 25.6296 161.58 25.7166 161.651 25.7166H162.525C162.543 25.7166 162.561 25.7099 162.574 25.6974L166.207 22.5467C166.24 22.518 166.266 22.4825 166.284 22.4426C166.302 22.4027 166.312 22.3594 166.312 22.3156C166.312 22.2717 166.302 22.2284 166.284 22.1885C166.266 22.1486 166.24 22.1131 166.207 22.0844Z" fill="white"/>
</svg>
