<svg xmlns="http://www.w3.org/2000/svg" width="144" height="144" viewBox="0 0 144 144" fill="none">
    <g clip-path="url(#clip0_15701_28744)">
        <path d="M144 0H0V144H144V0Z" fill="#171717"/>
        <path d="M12.0248 10.8008H15.6968V15.6968H10.8008V12.0248C10.8008 11.7002 10.9297 11.3888 11.1593 11.1593C11.3888 10.9297 11.7002 10.8008 12.0248 10.8008Z" fill="white"/>
        <path d="M15.6953 10.8008H20.5913V15.6968H15.6953V10.8008Z" fill="white"/>
        <path d="M20.5938 10.8008H25.4897V15.6968H20.5938V10.8008Z" fill="white"/>
        <path d="M25.4883 10.8008H30.3843V15.6968H25.4883V10.8008Z" fill="white"/>
        <path d="M30.3828 10.8008H35.2788V15.6968H30.3828V10.8008Z" fill="white"/>
        <path d="M35.2812 10.8008H40.1772V15.6968H35.2812V10.8008Z" fill="white"/>
        <path d="M40.1758 10.8008H43.8478C44.1724 10.8008 44.4837 10.9297 44.7133 11.1593C44.9428 11.3888 45.0718 11.7002 45.0718 12.0248V15.6968H40.1758V10.8008Z" fill="white"/>
        <path d="M53.1817 10.8008H51.0397C50.4483 10.8008 49.9688 11.2803 49.9688 11.8718V14.0138C49.9688 14.6053 50.4483 15.0848 51.0397 15.0848H53.1817C53.7732 15.0848 54.2527 14.6053 54.2527 14.0138V11.8718C54.2527 11.2803 53.7732 10.8008 53.1817 10.8008Z" fill="white"/>
        <path d="M58.0782 10.8008H55.9362C55.3447 10.8008 54.8652 11.2803 54.8652 11.8718V14.0138C54.8652 14.6053 55.3447 15.0848 55.9362 15.0848H58.0782C58.6697 15.0848 59.1492 14.6053 59.1492 14.0138V11.8718C59.1492 11.2803 58.6697 10.8008 58.0782 10.8008Z" fill="white"/>
        <path d="M62.9747 10.8008H60.8327C60.2412 10.8008 59.7617 11.2803 59.7617 11.8718V14.0138C59.7617 14.6053 60.2412 15.0848 60.8327 15.0848H62.9747C63.5662 15.0848 64.0457 14.6053 64.0457 14.0138V11.8718C64.0457 11.2803 63.5662 10.8008 62.9747 10.8008Z" fill="white"/>
        <path d="M82.5567 10.8008H80.4147C79.8233 10.8008 79.3438 11.2803 79.3438 11.8718V14.0138C79.3438 14.6053 79.8233 15.0848 80.4147 15.0848H82.5567C83.1482 15.0848 83.6277 14.6053 83.6277 14.0138V11.8718C83.6277 11.2803 83.1482 10.8008 82.5567 10.8008Z" fill="white"/>
        <path d="M100.154 10.8008H103.826V15.6968H98.9297V12.0248C98.9297 11.7002 99.0586 11.3888 99.2882 11.1593C99.5177 10.9297 99.8291 10.8008 100.154 10.8008Z" fill="white"/>
        <path d="M103.824 10.8008H108.72V15.6968H103.824V10.8008Z" fill="white"/>
        <path d="M108.719 10.8008H113.615V15.6968H108.719V10.8008Z" fill="white"/>
        <path d="M113.617 10.8008H118.513V15.6968H113.617V10.8008Z" fill="white"/>
        <path d="M118.512 10.8008H123.408V15.6968H118.512V10.8008Z" fill="white"/>
        <path d="M123.41 10.8008H128.306V15.6968H123.41V10.8008Z" fill="white"/>
        <path d="M128.305 10.8008H131.977C132.301 10.8008 132.613 10.9297 132.842 11.1593C133.072 11.3888 133.201 11.7002 133.201 12.0248V15.6968H128.305V10.8008Z" fill="white"/>
        <path d="M10.8008 15.6953H15.6968V20.5913H10.8008V15.6953Z" fill="white"/>
        <path d="M40.1758 15.6953H45.0718V20.5913H40.1758V15.6953Z" fill="white"/>
        <path d="M58.0782 15.6953H55.9362C55.3447 15.6953 54.8652 16.1748 54.8652 16.7663V18.9083C54.8652 19.4998 55.3447 19.9793 55.9362 19.9793H58.0782C58.6697 19.9793 59.1492 19.4998 59.1492 18.9083V16.7663C59.1492 16.1748 58.6697 15.6953 58.0782 15.6953Z" fill="white"/>
        <path d="M77.6622 15.6953H75.5202C74.9287 15.6953 74.4492 16.1748 74.4492 16.7663V18.9083C74.4492 19.4998 74.9287 19.9793 75.5202 19.9793H77.6622C78.2537 19.9793 78.7332 19.4998 78.7332 18.9083V16.7663C78.7332 16.1748 78.2537 15.6953 77.6622 15.6953Z" fill="white"/>
        <path d="M82.5567 15.6953H80.4147C79.8233 15.6953 79.3438 16.1748 79.3438 16.7663V18.9083C79.3438 19.4998 79.8233 19.9793 80.4147 19.9793H82.5567C83.1482 19.9793 83.6277 19.4998 83.6277 18.9083V16.7663C83.6277 16.1748 83.1482 15.6953 82.5567 15.6953Z" fill="white"/>
        <path d="M98.9297 15.6953H103.826V20.5913H98.9297V15.6953Z" fill="white"/>
        <path d="M128.305 15.6953H133.201V20.5913H128.305V15.6953Z" fill="white"/>
        <path d="M10.8008 20.5938H15.6968V25.4897H10.8008V20.5938Z" fill="white"/>
        <path d="M21.8177 20.5938H25.4897V25.4897H20.5938V21.8177C20.5938 21.4931 20.7227 21.1818 20.9523 20.9523C21.1818 20.7227 21.4931 20.5938 21.8177 20.5938Z" fill="white"/>
        <path d="M25.4883 20.5938H30.3843V25.4897H25.4883V20.5938Z" fill="white"/>
        <path d="M30.3828 20.5938H34.0548C34.3794 20.5938 34.6908 20.7227 34.9203 20.9523C35.1498 21.1818 35.2788 21.4931 35.2788 21.8177V25.4897H30.3828V20.5938Z" fill="white"/>
        <path d="M40.1758 20.5938H45.0718V25.4897H40.1758V20.5938Z" fill="white"/>
        <path d="M53.1817 20.5938H51.0397C50.4483 20.5938 49.9688 21.0733 49.9688 21.6647V23.8067C49.9688 24.3982 50.4483 24.8777 51.0397 24.8777H53.1817C53.7732 24.8777 54.2527 24.3982 54.2527 23.8067V21.6647C54.2527 21.0733 53.7732 20.5938 53.1817 20.5938Z" fill="white"/>
        <path d="M67.8692 20.5938H65.7272C65.1358 20.5938 64.6562 21.0733 64.6562 21.6647V23.8067C64.6562 24.3982 65.1358 24.8777 65.7272 24.8777H67.8692C68.4607 24.8777 68.9402 24.3982 68.9402 23.8067V21.6647C68.9402 21.0733 68.4607 20.5938 67.8692 20.5938Z" fill="white"/>
        <path d="M77.6622 20.5938H75.5202C74.9287 20.5938 74.4492 21.0733 74.4492 21.6647V23.8067C74.4492 24.3982 74.9287 24.8777 75.5202 24.8777H77.6622C78.2537 24.8777 78.7332 24.3982 78.7332 23.8067V21.6647C78.7332 21.0733 78.2537 20.5938 77.6622 20.5938Z" fill="white"/>
        <path d="M87.4552 20.5938H85.3132C84.7217 20.5938 84.2422 21.0733 84.2422 21.6647V23.8067C84.2422 24.3982 84.7217 24.8777 85.3132 24.8777H87.4552C88.0467 24.8777 88.5262 24.3982 88.5262 23.8067V21.6647C88.5262 21.0733 88.0467 20.5938 87.4552 20.5938Z" fill="white"/>
        <path d="M98.9297 20.5938H103.826V25.4897H98.9297V20.5938Z" fill="white"/>
        <path d="M109.943 20.5938H113.615V25.4897H108.719V21.8177C108.719 21.4931 108.848 21.1818 109.077 20.9523C109.307 20.7227 109.618 20.5938 109.943 20.5938Z" fill="white"/>
        <path d="M113.617 20.5938H118.513V25.4897H113.617V20.5938Z" fill="white"/>
        <path d="M118.512 20.5938H122.184C122.508 20.5938 122.82 20.7227 123.049 20.9523C123.279 21.1818 123.408 21.4931 123.408 21.8177V25.4897H118.512V20.5938Z" fill="white"/>
        <path d="M128.305 20.5938H133.201V25.4897H128.305V20.5938Z" fill="white"/>
        <path d="M10.8008 25.4883H15.6968V30.3843H10.8008V25.4883Z" fill="white"/>
        <path d="M20.5938 25.4883H25.4897V30.3843H20.5938V25.4883Z" fill="white"/>
        <path d="M25.4883 25.4883H30.3843V30.3843H25.4883V25.4883Z" fill="white"/>
        <path d="M30.3828 25.4883H35.2788V30.3843H30.3828V25.4883Z" fill="white"/>
        <path d="M40.1758 25.4883H45.0718V30.3843H40.1758V25.4883Z" fill="white"/>
        <path d="M67.8692 25.4883H65.7272C65.1358 25.4883 64.6562 25.9678 64.6562 26.5593V28.7013C64.6562 29.2928 65.1358 29.7723 65.7272 29.7723H67.8692C68.4607 29.7723 68.9402 29.2928 68.9402 28.7013V26.5593C68.9402 25.9678 68.4607 25.4883 67.8692 25.4883Z" fill="white"/>
        <path d="M77.6622 25.4883H75.5202C74.9287 25.4883 74.4492 25.9678 74.4492 26.5593V28.7013C74.4492 29.2928 74.9287 29.7723 75.5202 29.7723H77.6622C78.2537 29.7723 78.7332 29.2928 78.7332 28.7013V26.5593C78.7332 25.9678 78.2537 25.4883 77.6622 25.4883Z" fill="white"/>
        <path d="M92.3497 25.4883H90.2077C89.6162 25.4883 89.1367 25.9678 89.1367 26.5593V28.7013C89.1367 29.2928 89.6162 29.7723 90.2077 29.7723H92.3497C92.9412 29.7723 93.4207 29.2928 93.4207 28.7013V26.5593C93.4207 25.9678 92.9412 25.4883 92.3497 25.4883Z" fill="white"/>
        <path d="M98.9297 25.4883H103.826V30.3843H98.9297V25.4883Z" fill="white"/>
        <path d="M108.719 25.4883H113.615V30.3843H108.719V25.4883Z" fill="white"/>
        <path d="M113.617 25.4883H118.513V30.3843H113.617V25.4883Z" fill="white"/>
        <path d="M118.512 25.4883H123.408V30.3843H118.512V25.4883Z" fill="white"/>
        <path d="M128.305 25.4883H133.201V30.3843H128.305V25.4883Z" fill="white"/>
        <path d="M10.8008 30.3828H15.6968V35.2788H10.8008V30.3828Z" fill="white"/>
        <path d="M20.5938 30.3828H25.4897V35.2788H21.8177C21.4931 35.2788 21.1818 35.1498 20.9523 34.9203C20.7227 34.6908 20.5938 34.3794 20.5938 34.0548V30.3828Z" fill="white"/>
        <path d="M25.4883 30.3828H30.3843V35.2788H25.4883V30.3828Z" fill="white"/>
        <path d="M30.3828 30.3828H35.2788V34.0548C35.2788 34.3794 35.1498 34.6908 34.9203 34.9203C34.6908 35.1498 34.3794 35.2788 34.0548 35.2788H30.3828V30.3828Z" fill="white"/>
        <path d="M40.1758 30.3828H45.0718V35.2788H40.1758V30.3828Z" fill="white"/>
        <path d="M58.0782 30.3828H55.9362C55.3447 30.3828 54.8652 30.8623 54.8652 31.4538V33.5958C54.8652 34.1873 55.3447 34.6668 55.9362 34.6668H58.0782C58.6697 34.6668 59.1492 34.1873 59.1492 33.5958V31.4538C59.1492 30.8623 58.6697 30.3828 58.0782 30.3828Z" fill="white"/>
        <path d="M62.9747 30.3828H60.8327C60.2412 30.3828 59.7617 30.8623 59.7617 31.4538V33.5958C59.7617 34.1873 60.2412 34.6668 60.8327 34.6668H62.9747C63.5662 34.6668 64.0457 34.1873 64.0457 33.5958V31.4538C64.0457 30.8623 63.5662 30.3828 62.9747 30.3828Z" fill="white"/>
        <path d="M67.8692 30.3828H65.7272C65.1358 30.3828 64.6562 30.8623 64.6562 31.4538V33.5958C64.6562 34.1873 65.1358 34.6668 65.7272 34.6668H67.8692C68.4607 34.6668 68.9402 34.1873 68.9402 33.5958V31.4538C68.9402 30.8623 68.4607 30.3828 67.8692 30.3828Z" fill="white"/>
        <path d="M72.7657 30.3828H70.6237C70.0322 30.3828 69.5527 30.8623 69.5527 31.4538V33.5958C69.5527 34.1873 70.0322 34.6668 70.6237 34.6668H72.7657C73.3572 34.6668 73.8367 34.1873 73.8367 33.5958V31.4538C73.8367 30.8623 73.3572 30.3828 72.7657 30.3828Z" fill="white"/>
        <path d="M82.5567 30.3828H80.4147C79.8233 30.3828 79.3438 30.8623 79.3438 31.4538V33.5958C79.3438 34.1873 79.8233 34.6668 80.4147 34.6668H82.5567C83.1482 34.6668 83.6277 34.1873 83.6277 33.5958V31.4538C83.6277 30.8623 83.1482 30.3828 82.5567 30.3828Z" fill="white"/>
        <path d="M98.9297 30.3828H103.826V35.2788H98.9297V30.3828Z" fill="white"/>
        <path d="M108.719 30.3828H113.615V35.2788H109.943C109.618 35.2788 109.307 35.1498 109.077 34.9203C108.848 34.6908 108.719 34.3794 108.719 34.0548V30.3828Z" fill="white"/>
        <path d="M113.617 30.3828H118.513V35.2788H113.617V30.3828Z" fill="white"/>
        <path d="M118.512 30.3828H123.408V34.0548C123.408 34.3794 123.279 34.6908 123.049 34.9203C122.82 35.1498 122.508 35.2788 122.184 35.2788H118.512V30.3828Z" fill="white"/>
        <path d="M128.305 30.3828H133.201V35.2788H128.305V30.3828Z" fill="white"/>
        <path d="M10.8008 35.2812H15.6968V40.1772H10.8008V35.2812Z" fill="white"/>
        <path d="M40.1758 35.2812H45.0718V40.1772H40.1758V35.2812Z" fill="white"/>
        <path d="M53.1817 35.2812H51.0397C50.4483 35.2812 49.9688 35.7608 49.9688 36.3522V38.4942C49.9688 39.0857 50.4483 39.5652 51.0397 39.5652H53.1817C53.7732 39.5652 54.2527 39.0857 54.2527 38.4942V36.3522C54.2527 35.7608 53.7732 35.2812 53.1817 35.2812Z" fill="white"/>
        <path d="M58.0782 35.2812H55.9362C55.3447 35.2812 54.8652 35.7608 54.8652 36.3522V38.4942C54.8652 39.0857 55.3447 39.5652 55.9362 39.5652H58.0782C58.6697 39.5652 59.1492 39.0857 59.1492 38.4942V36.3522C59.1492 35.7608 58.6697 35.2812 58.0782 35.2812Z" fill="white"/>
        <path d="M72.7657 35.2812H70.6237C70.0322 35.2812 69.5527 35.7608 69.5527 36.3522V38.4942C69.5527 39.0857 70.0322 39.5652 70.6237 39.5652H72.7657C73.3572 39.5652 73.8367 39.0857 73.8367 38.4942V36.3522C73.8367 35.7608 73.3572 35.2812 72.7657 35.2812Z" fill="white"/>
        <path d="M77.6622 35.2812H75.5202C74.9287 35.2812 74.4492 35.7608 74.4492 36.3522V38.4942C74.4492 39.0857 74.9287 39.5652 75.5202 39.5652H77.6622C78.2537 39.5652 78.7332 39.0857 78.7332 38.4942V36.3522C78.7332 35.7608 78.2537 35.2812 77.6622 35.2812Z" fill="white"/>
        <path d="M82.5567 35.2812H80.4147C79.8233 35.2812 79.3438 35.7608 79.3438 36.3522V38.4942C79.3438 39.0857 79.8233 39.5652 80.4147 39.5652H82.5567C83.1482 39.5652 83.6277 39.0857 83.6277 38.4942V36.3522C83.6277 35.7608 83.1482 35.2812 82.5567 35.2812Z" fill="white"/>
        <path d="M98.9297 35.2812H103.826V40.1772H98.9297V35.2812Z" fill="white"/>
        <path d="M128.305 35.2812H133.201V40.1772H128.305V35.2812Z" fill="white"/>
        <path d="M10.8008 40.1758H15.6968V45.0718H12.0248C11.7002 45.0718 11.3888 44.9428 11.1593 44.7133C10.9297 44.4837 10.8008 44.1724 10.8008 43.8478V40.1758Z" fill="white"/>
        <path d="M15.6953 40.1758H20.5913V45.0718H15.6953V40.1758Z" fill="white"/>
        <path d="M20.5938 40.1758H25.4897V45.0718H20.5938V40.1758Z" fill="white"/>
        <path d="M25.4883 40.1758H30.3843V45.0718H25.4883V40.1758Z" fill="white"/>
        <path d="M30.3828 40.1758H35.2788V45.0718H30.3828V40.1758Z" fill="white"/>
        <path d="M35.2812 40.1758H40.1772V45.0718H35.2812V40.1758Z" fill="white"/>
        <path d="M40.1758 40.1758H45.0718V43.8478C45.0718 44.1724 44.9428 44.4837 44.7133 44.7133C44.4837 44.9428 44.1724 45.0718 43.8478 45.0718H40.1758V40.1758Z" fill="white"/>
        <path d="M53.1817 40.1758H51.0397C50.4483 40.1758 49.9688 40.6553 49.9688 41.2468V43.3888C49.9688 43.9803 50.4483 44.4598 51.0397 44.4598H53.1817C53.7732 44.4598 54.2527 43.9803 54.2527 43.3888V41.2468C54.2527 40.6553 53.7732 40.1758 53.1817 40.1758Z" fill="white"/>
        <path d="M62.9747 40.1758H60.8327C60.2412 40.1758 59.7617 40.6553 59.7617 41.2468V43.3888C59.7617 43.9803 60.2412 44.4598 60.8327 44.4598H62.9747C63.5662 44.4598 64.0457 43.9803 64.0457 43.3888V41.2468C64.0457 40.6553 63.5662 40.1758 62.9747 40.1758Z" fill="white"/>
        <path d="M72.7657 40.1758H70.6237C70.0322 40.1758 69.5527 40.6553 69.5527 41.2468V43.3888C69.5527 43.9803 70.0322 44.4598 70.6237 44.4598H72.7657C73.3572 44.4598 73.8367 43.9803 73.8367 43.3888V41.2468C73.8367 40.6553 73.3572 40.1758 72.7657 40.1758Z" fill="white"/>
        <path d="M82.5567 40.1758H80.4147C79.8233 40.1758 79.3438 40.6553 79.3438 41.2468V43.3888C79.3438 43.9803 79.8233 44.4598 80.4147 44.4598H82.5567C83.1482 44.4598 83.6277 43.9803 83.6277 43.3888V41.2468C83.6277 40.6553 83.1482 40.1758 82.5567 40.1758Z" fill="white"/>
        <path d="M92.3497 40.1758H90.2077C89.6162 40.1758 89.1367 40.6553 89.1367 41.2468V43.3888C89.1367 43.9803 89.6162 44.4598 90.2077 44.4598H92.3497C92.9412 44.4598 93.4207 43.9803 93.4207 43.3888V41.2468C93.4207 40.6553 92.9412 40.1758 92.3497 40.1758Z" fill="white"/>
        <path d="M98.9297 40.1758H103.826V45.0718H100.154C99.8291 45.0718 99.5177 44.9428 99.2882 44.7133C99.0586 44.4837 98.9297 44.1724 98.9297 43.8478V40.1758Z" fill="white"/>
        <path d="M103.824 40.1758H108.72V45.0718H103.824V40.1758Z" fill="white"/>
        <path d="M108.719 40.1758H113.615V45.0718H108.719V40.1758Z" fill="white"/>
        <path d="M113.617 40.1758H118.513V45.0718H113.617V40.1758Z" fill="white"/>
        <path d="M118.512 40.1758H123.408V45.0718H118.512V40.1758Z" fill="white"/>
        <path d="M123.41 40.1758H128.306V45.0718H123.41V40.1758Z" fill="white"/>
        <path d="M128.305 40.1758H133.201V43.8478C133.201 44.1724 133.072 44.4837 132.842 44.7133C132.613 44.9428 132.301 45.0718 131.977 45.0718H128.305V40.1758Z" fill="white"/>
        <path d="M58.0782 45.0742H55.9362C55.3447 45.0742 54.8652 45.5537 54.8652 46.1452V48.2872C54.8652 48.8787 55.3447 49.3582 55.9362 49.3582H58.0782C58.6697 49.3582 59.1492 48.8787 59.1492 48.2872V46.1452C59.1492 45.5537 58.6697 45.0742 58.0782 45.0742Z" fill="white"/>
        <path d="M62.9747 45.0742H60.8327C60.2412 45.0742 59.7617 45.5537 59.7617 46.1452V48.2872C59.7617 48.8787 60.2412 49.3582 60.8327 49.3582H62.9747C63.5662 49.3582 64.0457 48.8787 64.0457 48.2872V46.1452C64.0457 45.5537 63.5662 45.0742 62.9747 45.0742Z" fill="white"/>
        <path d="M67.8692 45.0742H65.7272C65.1358 45.0742 64.6562 45.5537 64.6562 46.1452V48.2872C64.6562 48.8787 65.1358 49.3582 65.7272 49.3582H67.8692C68.4607 49.3582 68.9402 48.8787 68.9402 48.2872V46.1452C68.9402 45.5537 68.4607 45.0742 67.8692 45.0742Z" fill="white"/>
        <path d="M82.5567 45.0742H80.4147C79.8233 45.0742 79.3438 45.5537 79.3438 46.1452V48.2872C79.3438 48.8787 79.8233 49.3582 80.4147 49.3582H82.5567C83.1482 49.3582 83.6277 48.8787 83.6277 48.2872V46.1452C83.6277 45.5537 83.1482 45.0742 82.5567 45.0742Z" fill="white"/>
        <path d="M87.4552 45.0742H85.3132C84.7217 45.0742 84.2422 45.5537 84.2422 46.1452V48.2872C84.2422 48.8787 84.7217 49.3582 85.3132 49.3582H87.4552C88.0467 49.3582 88.5262 48.8787 88.5262 48.2872V46.1452C88.5262 45.5537 88.0467 45.0742 87.4552 45.0742Z" fill="white"/>
        <path d="M92.3497 45.0742H90.2077C89.6162 45.0742 89.1367 45.5537 89.1367 46.1452V48.2872C89.1367 48.8787 89.6162 49.3582 90.2077 49.3582H92.3497C92.9412 49.3582 93.4207 48.8787 93.4207 48.2872V46.1452C93.4207 45.5537 92.9412 45.0742 92.3497 45.0742Z" fill="white"/>
        <path d="M14.0138 49.9688H11.8718C11.2803 49.9688 10.8008 50.4483 10.8008 51.0397V53.1817C10.8008 53.7732 11.2803 54.2527 11.8718 54.2527H14.0138C14.6053 54.2527 15.0848 53.7732 15.0848 53.1817V51.0397C15.0848 50.4483 14.6053 49.9688 14.0138 49.9688Z" fill="white"/>
        <path d="M23.8067 49.9688H21.6647C21.0733 49.9688 20.5938 50.4483 20.5938 51.0397V53.1817C20.5938 53.7732 21.0733 54.2527 21.6647 54.2527H23.8067C24.3982 54.2527 24.8777 53.7732 24.8777 53.1817V51.0397C24.8777 50.4483 24.3982 49.9688 23.8067 49.9688Z" fill="white"/>
        <path d="M43.3888 49.9688H41.2468C40.6553 49.9688 40.1758 50.4483 40.1758 51.0397V53.1817C40.1758 53.7732 40.6553 54.2527 41.2468 54.2527H43.3888C43.9803 54.2527 44.4598 53.7732 44.4598 53.1817V51.0397C44.4598 50.4483 43.9803 49.9688 43.3888 49.9688Z" fill="white"/>
        <path d="M48.2872 49.9688H46.1452C45.5537 49.9688 45.0742 50.4483 45.0742 51.0397V53.1817C45.0742 53.7732 45.5537 54.2527 46.1452 54.2527H48.2872C48.8787 54.2527 49.3582 53.7732 49.3582 53.1817V51.0397C49.3582 50.4483 48.8787 49.9688 48.2872 49.9688Z" fill="white"/>
        <path d="M92.3497 49.9688H90.2077C89.6162 49.9688 89.1367 50.4483 89.1367 51.0397V53.1817C89.1367 53.7732 89.6162 54.2527 90.2077 54.2527H92.3497C92.9412 54.2527 93.4207 53.7732 93.4207 53.1817V51.0397C93.4207 50.4483 92.9412 49.9688 92.3497 49.9688Z" fill="white"/>
        <path d="M107.037 49.9688H104.895C104.304 49.9688 103.824 50.4483 103.824 51.0397V53.1817C103.824 53.7732 104.304 54.2527 104.895 54.2527H107.037C107.629 54.2527 108.108 53.7732 108.108 53.1817V51.0397C108.108 50.4483 107.629 49.9688 107.037 49.9688Z" fill="white"/>
        <path d="M121.725 49.9688H119.583C118.991 49.9688 118.512 50.4483 118.512 51.0397V53.1817C118.512 53.7732 118.991 54.2527 119.583 54.2527H121.725C122.316 54.2527 122.796 53.7732 122.796 53.1817V51.0397C122.796 50.4483 122.316 49.9688 121.725 49.9688Z" fill="white"/>
        <path d="M131.518 49.9688H129.376C128.784 49.9688 128.305 50.4483 128.305 51.0397V53.1817C128.305 53.7732 128.784 54.2527 129.376 54.2527H131.518C132.109 54.2527 132.589 53.7732 132.589 53.1817V51.0397C132.589 50.4483 132.109 49.9688 131.518 49.9688Z" fill="white"/>
        <path d="M14.0138 54.8652H11.8718C11.2803 54.8652 10.8008 55.3447 10.8008 55.9362V58.0782C10.8008 58.6697 11.2803 59.1492 11.8718 59.1492H14.0138C14.6053 59.1492 15.0848 58.6697 15.0848 58.0782V55.9362C15.0848 55.3447 14.6053 54.8652 14.0138 54.8652Z" fill="white"/>
        <path d="M18.9083 54.8652H16.7663C16.1748 54.8652 15.6953 55.3447 15.6953 55.9362V58.0782C15.6953 58.6697 16.1748 59.1492 16.7663 59.1492H18.9083C19.4998 59.1492 19.9793 58.6697 19.9793 58.0782V55.9362C19.9793 55.3447 19.4998 54.8652 18.9083 54.8652Z" fill="white"/>
        <path d="M33.5958 54.8652H31.4538C30.8623 54.8652 30.3828 55.3447 30.3828 55.9362V58.0782C30.3828 58.6697 30.8623 59.1492 31.4538 59.1492H33.5958C34.1873 59.1492 34.6668 58.6697 34.6668 58.0782V55.9362C34.6668 55.3447 34.1873 54.8652 33.5958 54.8652Z" fill="white"/>
        <path d="M48.2872 54.8652H46.1452C45.5537 54.8652 45.0742 55.3447 45.0742 55.9362V58.0782C45.0742 58.6697 45.5537 59.1492 46.1452 59.1492H48.2872C48.8787 59.1492 49.3582 58.6697 49.3582 58.0782V55.9362C49.3582 55.3447 48.8787 54.8652 48.2872 54.8652Z" fill="white"/>
        <path d="M53.1817 54.8652H51.0397C50.4483 54.8652 49.9688 55.3447 49.9688 55.9362V58.0782C49.9688 58.6697 50.4483 59.1492 51.0397 59.1492H53.1817C53.7732 59.1492 54.2527 58.6697 54.2527 58.0782V55.9362C54.2527 55.3447 53.7732 54.8652 53.1817 54.8652Z" fill="white"/>
        <path d="M58.0782 54.8652H55.9362C55.3447 54.8652 54.8652 55.3447 54.8652 55.9362V58.0782C54.8652 58.6697 55.3447 59.1492 55.9362 59.1492H58.0782C58.6697 59.1492 59.1492 58.6697 59.1492 58.0782V55.9362C59.1492 55.3447 58.6697 54.8652 58.0782 54.8652Z" fill="white"/>
        <path d="M62.9747 54.8652H60.8327C60.2412 54.8652 59.7617 55.3447 59.7617 55.9362V58.0782C59.7617 58.6697 60.2412 59.1492 60.8327 59.1492H62.9747C63.5662 59.1492 64.0457 58.6697 64.0457 58.0782V55.9362C64.0457 55.3447 63.5662 54.8652 62.9747 54.8652Z" fill="white"/>
        <path d="M77.6622 54.8652H75.5202C74.9287 54.8652 74.4492 55.3447 74.4492 55.9362V58.0782C74.4492 58.6697 74.9287 59.1492 75.5202 59.1492H77.6622C78.2537 59.1492 78.7332 58.6697 78.7332 58.0782V55.9362C78.7332 55.3447 78.2537 54.8652 77.6622 54.8652Z" fill="white"/>
        <path d="M82.5567 54.8652H80.4147C79.8233 54.8652 79.3438 55.3447 79.3438 55.9362V58.0782C79.3438 58.6697 79.8233 59.1492 80.4147 59.1492H82.5567C83.1482 59.1492 83.6277 58.6697 83.6277 58.0782V55.9362C83.6277 55.3447 83.1482 54.8652 82.5567 54.8652Z" fill="white"/>
        <path d="M87.4552 54.8652H85.3132C84.7217 54.8652 84.2422 55.3447 84.2422 55.9362V58.0782C84.2422 58.6697 84.7217 59.1492 85.3132 59.1492H87.4552C88.0467 59.1492 88.5262 58.6697 88.5262 58.0782V55.9362C88.5262 55.3447 88.0467 54.8652 87.4552 54.8652Z" fill="white"/>
        <path d="M102.143 54.8652H100.001C99.4092 54.8652 98.9297 55.3447 98.9297 55.9362V58.0782C98.9297 58.6697 99.4092 59.1492 100.001 59.1492H102.143C102.734 59.1492 103.214 58.6697 103.214 58.0782V55.9362C103.214 55.3447 102.734 54.8652 102.143 54.8652Z" fill="white"/>
        <path d="M107.037 54.8652H104.895C104.304 54.8652 103.824 55.3447 103.824 55.9362V58.0782C103.824 58.6697 104.304 59.1492 104.895 59.1492H107.037C107.629 59.1492 108.108 58.6697 108.108 58.0782V55.9362C108.108 55.3447 107.629 54.8652 107.037 54.8652Z" fill="white"/>
        <path d="M116.83 54.8652H114.688C114.097 54.8652 113.617 55.3447 113.617 55.9362V58.0782C113.617 58.6697 114.097 59.1492 114.688 59.1492H116.83C117.422 59.1492 117.901 58.6697 117.901 58.0782V55.9362C117.901 55.3447 117.422 54.8652 116.83 54.8652Z" fill="white"/>
        <path d="M126.623 54.8652H124.481C123.89 54.8652 123.41 55.3447 123.41 55.9362V58.0782C123.41 58.6697 123.89 59.1492 124.481 59.1492H126.623C127.215 59.1492 127.694 58.6697 127.694 58.0782V55.9362C127.694 55.3447 127.215 54.8652 126.623 54.8652Z" fill="white"/>
        <path d="M131.518 54.8652H129.376C128.784 54.8652 128.305 55.3447 128.305 55.9362V58.0782C128.305 58.6697 128.784 59.1492 129.376 59.1492H131.518C132.109 59.1492 132.589 58.6697 132.589 58.0782V55.9362C132.589 55.3447 132.109 54.8652 131.518 54.8652Z" fill="white"/>
        <path d="M14.0138 59.7617H11.8718C11.2803 59.7617 10.8008 60.2412 10.8008 60.8327V62.9747C10.8008 63.5662 11.2803 64.0457 11.8718 64.0457H14.0138C14.6053 64.0457 15.0848 63.5662 15.0848 62.9747V60.8327C15.0848 60.2412 14.6053 59.7617 14.0138 59.7617Z" fill="white"/>
        <path d="M18.9083 59.7617H16.7663C16.1748 59.7617 15.6953 60.2412 15.6953 60.8327V62.9747C15.6953 63.5662 16.1748 64.0457 16.7663 64.0457H18.9083C19.4998 64.0457 19.9793 63.5662 19.9793 62.9747V60.8327C19.9793 60.2412 19.4998 59.7617 18.9083 59.7617Z" fill="white"/>
        <path d="M33.5958 59.7617H31.4538C30.8623 59.7617 30.3828 60.2412 30.3828 60.8327V62.9747C30.3828 63.5662 30.8623 64.0457 31.4538 64.0457H33.5958C34.1873 64.0457 34.6668 63.5662 34.6668 62.9747V60.8327C34.6668 60.2412 34.1873 59.7617 33.5958 59.7617Z" fill="white"/>
        <path d="M43.3888 59.7617H41.2468C40.6553 59.7617 40.1758 60.2412 40.1758 60.8327V62.9747C40.1758 63.5662 40.6553 64.0457 41.2468 64.0457H43.3888C43.9803 64.0457 44.4598 63.5662 44.4598 62.9747V60.8327C44.4598 60.2412 43.9803 59.7617 43.3888 59.7617Z" fill="white"/>
        <path d="M58.0782 59.7617H55.9362C55.3447 59.7617 54.8652 60.2412 54.8652 60.8327V62.9747C54.8652 63.5662 55.3447 64.0457 55.9362 64.0457H58.0782C58.6697 64.0457 59.1492 63.5662 59.1492 62.9747V60.8327C59.1492 60.2412 58.6697 59.7617 58.0782 59.7617Z" fill="white"/>
        <path d="M62.9747 59.7617H60.8327C60.2412 59.7617 59.7617 60.2412 59.7617 60.8327V62.9747C59.7617 63.5662 60.2412 64.0457 60.8327 64.0457H62.9747C63.5662 64.0457 64.0457 63.5662 64.0457 62.9747V60.8327C64.0457 60.2412 63.5662 59.7617 62.9747 59.7617Z" fill="white"/>
        <path d="M72.7657 59.7617H70.6237C70.0322 59.7617 69.5527 60.2412 69.5527 60.8327V62.9747C69.5527 63.5662 70.0322 64.0457 70.6237 64.0457H72.7657C73.3572 64.0457 73.8367 63.5662 73.8367 62.9747V60.8327C73.8367 60.2412 73.3572 59.7617 72.7657 59.7617Z" fill="white"/>
        <path d="M77.6622 59.7617H75.5202C74.9287 59.7617 74.4492 60.2412 74.4492 60.8327V62.9747C74.4492 63.5662 74.9287 64.0457 75.5202 64.0457H77.6622C78.2537 64.0457 78.7332 63.5662 78.7332 62.9747V60.8327C78.7332 60.2412 78.2537 59.7617 77.6622 59.7617Z" fill="white"/>
        <path d="M82.5567 59.7617H80.4147C79.8233 59.7617 79.3438 60.2412 79.3438 60.8327V62.9747C79.3438 63.5662 79.8233 64.0457 80.4147 64.0457H82.5567C83.1482 64.0457 83.6277 63.5662 83.6277 62.9747V60.8327C83.6277 60.2412 83.1482 59.7617 82.5567 59.7617Z" fill="white"/>
        <path d="M87.4552 59.7617H85.3132C84.7217 59.7617 84.2422 60.2412 84.2422 60.8327V62.9747C84.2422 63.5662 84.7217 64.0457 85.3132 64.0457H87.4552C88.0467 64.0457 88.5262 63.5662 88.5262 62.9747V60.8327C88.5262 60.2412 88.0467 59.7617 87.4552 59.7617Z" fill="white"/>
        <path d="M116.83 59.7617H114.688C114.097 59.7617 113.617 60.2412 113.617 60.8327V62.9747C113.617 63.5662 114.097 64.0457 114.688 64.0457H116.83C117.422 64.0457 117.901 63.5662 117.901 62.9747V60.8327C117.901 60.2412 117.422 59.7617 116.83 59.7617Z" fill="white"/>
        <path d="M121.725 59.7617H119.583C118.991 59.7617 118.512 60.2412 118.512 60.8327V62.9747C118.512 63.5662 118.991 64.0457 119.583 64.0457H121.725C122.316 64.0457 122.796 63.5662 122.796 62.9747V60.8327C122.796 60.2412 122.316 59.7617 121.725 59.7617Z" fill="white"/>
        <path d="M131.518 59.7617H129.376C128.784 59.7617 128.305 60.2412 128.305 60.8327V62.9747C128.305 63.5662 128.784 64.0457 129.376 64.0457H131.518C132.109 64.0457 132.589 63.5662 132.589 62.9747V60.8327C132.589 60.2412 132.109 59.7617 131.518 59.7617Z" fill="white"/>
        <path d="M14.0138 64.6562H11.8718C11.2803 64.6562 10.8008 65.1358 10.8008 65.7272V67.8692C10.8008 68.4607 11.2803 68.9402 11.8718 68.9402H14.0138C14.6053 68.9402 15.0848 68.4607 15.0848 67.8692V65.7272C15.0848 65.1358 14.6053 64.6562 14.0138 64.6562Z" fill="white"/>
        <path d="M18.9083 64.6562H16.7663C16.1748 64.6562 15.6953 65.1358 15.6953 65.7272V67.8692C15.6953 68.4607 16.1748 68.9402 16.7663 68.9402H18.9083C19.4998 68.9402 19.9793 68.4607 19.9793 67.8692V65.7272C19.9793 65.1358 19.4998 64.6562 18.9083 64.6562Z" fill="white"/>
        <path d="M23.8067 64.6562H21.6647C21.0733 64.6562 20.5938 65.1358 20.5938 65.7272V67.8692C20.5938 68.4607 21.0733 68.9402 21.6647 68.9402H23.8067C24.3982 68.9402 24.8777 68.4607 24.8777 67.8692V65.7272C24.8777 65.1358 24.3982 64.6562 23.8067 64.6562Z" fill="white"/>
        <path d="M38.4942 64.6562H36.3522C35.7608 64.6562 35.2812 65.1358 35.2812 65.7272V67.8692C35.2812 68.4607 35.7608 68.9402 36.3522 68.9402H38.4942C39.0857 68.9402 39.5652 68.4607 39.5652 67.8692V65.7272C39.5652 65.1358 39.0857 64.6562 38.4942 64.6562Z" fill="white"/>
        <path d="M53.1817 64.6562H51.0397C50.4483 64.6562 49.9688 65.1358 49.9688 65.7272V67.8692C49.9688 68.4607 50.4483 68.9402 51.0397 68.9402H53.1817C53.7732 68.9402 54.2527 68.4607 54.2527 67.8692V65.7272C54.2527 65.1358 53.7732 64.6562 53.1817 64.6562Z" fill="white"/>
        <path d="M58.0782 64.6562H55.9362C55.3447 64.6562 54.8652 65.1358 54.8652 65.7272V67.8692C54.8652 68.4607 55.3447 68.9402 55.9362 68.9402H58.0782C58.6697 68.9402 59.1492 68.4607 59.1492 67.8692V65.7272C59.1492 65.1358 58.6697 64.6562 58.0782 64.6562Z" fill="white"/>
        <path d="M72.7657 64.6562H70.6237C70.0322 64.6562 69.5527 65.1358 69.5527 65.7272V67.8692C69.5527 68.4607 70.0322 68.9402 70.6237 68.9402H72.7657C73.3572 68.9402 73.8367 68.4607 73.8367 67.8692V65.7272C73.8367 65.1358 73.3572 64.6562 72.7657 64.6562Z" fill="white"/>
        <path d="M82.5567 64.6562H80.4147C79.8233 64.6562 79.3438 65.1358 79.3438 65.7272V67.8692C79.3438 68.4607 79.8233 68.9402 80.4147 68.9402H82.5567C83.1482 68.9402 83.6277 68.4607 83.6277 67.8692V65.7272C83.6277 65.1358 83.1482 64.6562 82.5567 64.6562Z" fill="white"/>
        <path d="M87.4552 64.6562H85.3132C84.7217 64.6562 84.2422 65.1358 84.2422 65.7272V67.8692C84.2422 68.4607 84.7217 68.9402 85.3132 68.9402H87.4552C88.0467 68.9402 88.5262 68.4607 88.5262 67.8692V65.7272C88.5262 65.1358 88.0467 64.6562 87.4552 64.6562Z" fill="white"/>
        <path d="M102.143 64.6562H100.001C99.4092 64.6562 98.9297 65.1358 98.9297 65.7272V67.8692C98.9297 68.4607 99.4092 68.9402 100.001 68.9402H102.143C102.734 68.9402 103.214 68.4607 103.214 67.8692V65.7272C103.214 65.1358 102.734 64.6562 102.143 64.6562Z" fill="white"/>
        <path d="M107.037 64.6562H104.895C104.304 64.6562 103.824 65.1358 103.824 65.7272V67.8692C103.824 68.4607 104.304 68.9402 104.895 68.9402H107.037C107.629 68.9402 108.108 68.4607 108.108 67.8692V65.7272C108.108 65.1358 107.629 64.6562 107.037 64.6562Z" fill="white"/>
        <path d="M111.932 64.6562H109.79C109.198 64.6562 108.719 65.1358 108.719 65.7272V67.8692C108.719 68.4607 109.198 68.9402 109.79 68.9402H111.932C112.523 68.9402 113.003 68.4607 113.003 67.8692V65.7272C113.003 65.1358 112.523 64.6562 111.932 64.6562Z" fill="white"/>
        <path d="M116.83 64.6562H114.688C114.097 64.6562 113.617 65.1358 113.617 65.7272V67.8692C113.617 68.4607 114.097 68.9402 114.688 68.9402H116.83C117.422 68.9402 117.901 68.4607 117.901 67.8692V65.7272C117.901 65.1358 117.422 64.6562 116.83 64.6562Z" fill="white"/>
        <path d="M43.3888 69.5527H41.2468C40.6553 69.5527 40.1758 70.0322 40.1758 70.6237V72.7657C40.1758 73.3572 40.6553 73.8367 41.2468 73.8367H43.3888C43.9803 73.8367 44.4598 73.3572 44.4598 72.7657V70.6237C44.4598 70.0322 43.9803 69.5527 43.3888 69.5527Z" fill="white"/>
        <path d="M48.2872 69.5527H46.1452C45.5537 69.5527 45.0742 70.0322 45.0742 70.6237V72.7657C45.0742 73.3572 45.5537 73.8367 46.1452 73.8367H48.2872C48.8787 73.8367 49.3582 73.3572 49.3582 72.7657V70.6237C49.3582 70.0322 48.8787 69.5527 48.2872 69.5527Z" fill="white"/>
        <path d="M62.9747 69.5527H60.8327C60.2412 69.5527 59.7617 70.0322 59.7617 70.6237V72.7657C59.7617 73.3572 60.2412 73.8367 60.8327 73.8367H62.9747C63.5662 73.8367 64.0457 73.3572 64.0457 72.7657V70.6237C64.0457 70.0322 63.5662 69.5527 62.9747 69.5527Z" fill="white"/>
        <path d="M67.8692 69.5527H65.7272C65.1358 69.5527 64.6562 70.0322 64.6562 70.6237V72.7657C64.6562 73.3572 65.1358 73.8367 65.7272 73.8367H67.8692C68.4607 73.8367 68.9402 73.3572 68.9402 72.7657V70.6237C68.9402 70.0322 68.4607 69.5527 67.8692 69.5527Z" fill="white"/>
        <path d="M72.7657 69.5527H70.6237C70.0322 69.5527 69.5527 70.0322 69.5527 70.6237V72.7657C69.5527 73.3572 70.0322 73.8367 70.6237 73.8367H72.7657C73.3572 73.8367 73.8367 73.3572 73.8367 72.7657V70.6237C73.8367 70.0322 73.3572 69.5527 72.7657 69.5527Z" fill="white"/>
        <path d="M92.3497 69.5527H90.2077C89.6162 69.5527 89.1367 70.0322 89.1367 70.6237V72.7657C89.1367 73.3572 89.6162 73.8367 90.2077 73.8367H92.3497C92.9412 73.8367 93.4207 73.3572 93.4207 72.7657V70.6237C93.4207 70.0322 92.9412 69.5527 92.3497 69.5527Z" fill="white"/>
        <path d="M102.143 69.5527H100.001C99.4092 69.5527 98.9297 70.0322 98.9297 70.6237V72.7657C98.9297 73.3572 99.4092 73.8367 100.001 73.8367H102.143C102.734 73.8367 103.214 73.3572 103.214 72.7657V70.6237C103.214 70.0322 102.734 69.5527 102.143 69.5527Z" fill="white"/>
        <path d="M107.037 69.5527H104.895C104.304 69.5527 103.824 70.0322 103.824 70.6237V72.7657C103.824 73.3572 104.304 73.8367 104.895 73.8367H107.037C107.629 73.8367 108.108 73.3572 108.108 72.7657V70.6237C108.108 70.0322 107.629 69.5527 107.037 69.5527Z" fill="white"/>
        <path d="M131.518 69.5527H129.376C128.784 69.5527 128.305 70.0322 128.305 70.6237V72.7657C128.305 73.3572 128.784 73.8367 129.376 73.8367H131.518C132.109 73.8367 132.589 73.3572 132.589 72.7657V70.6237C132.589 70.0322 132.109 69.5527 131.518 69.5527Z" fill="white"/>
        <path d="M23.8067 74.4492H21.6647C21.0733 74.4492 20.5938 74.9287 20.5938 75.5202V77.6622C20.5938 78.2537 21.0733 78.7332 21.6647 78.7332H23.8067C24.3982 78.7332 24.8777 78.2537 24.8777 77.6622V75.5202C24.8777 74.9287 24.3982 74.4492 23.8067 74.4492Z" fill="white"/>
        <path d="M28.7013 74.4492H26.5593C25.9678 74.4492 25.4883 74.9287 25.4883 75.5202V77.6622C25.4883 78.2537 25.9678 78.7332 26.5593 78.7332H28.7013C29.2928 78.7332 29.7723 78.2537 29.7723 77.6622V75.5202C29.7723 74.9287 29.2928 74.4492 28.7013 74.4492Z" fill="white"/>
        <path d="M33.5958 74.4492H31.4538C30.8623 74.4492 30.3828 74.9287 30.3828 75.5202V77.6622C30.3828 78.2537 30.8623 78.7332 31.4538 78.7332H33.5958C34.1873 78.7332 34.6668 78.2537 34.6668 77.6622V75.5202C34.6668 74.9287 34.1873 74.4492 33.5958 74.4492Z" fill="white"/>
        <path d="M38.4942 74.4492H36.3522C35.7608 74.4492 35.2812 74.9287 35.2812 75.5202V77.6622C35.2812 78.2537 35.7608 78.7332 36.3522 78.7332H38.4942C39.0857 78.7332 39.5652 78.2537 39.5652 77.6622V75.5202C39.5652 74.9287 39.0857 74.4492 38.4942 74.4492Z" fill="white"/>
        <path d="M53.1817 74.4492H51.0397C50.4483 74.4492 49.9688 74.9287 49.9688 75.5202V77.6622C49.9688 78.2537 50.4483 78.7332 51.0397 78.7332H53.1817C53.7732 78.7332 54.2527 78.2537 54.2527 77.6622V75.5202C54.2527 74.9287 53.7732 74.4492 53.1817 74.4492Z" fill="white"/>
        <path d="M72.7657 74.4492H70.6237C70.0322 74.4492 69.5527 74.9287 69.5527 75.5202V77.6622C69.5527 78.2537 70.0322 78.7332 70.6237 78.7332H72.7657C73.3572 78.7332 73.8367 78.2537 73.8367 77.6622V75.5202C73.8367 74.9287 73.3572 74.4492 72.7657 74.4492Z" fill="white"/>
        <path d="M82.5567 74.4492H80.4147C79.8233 74.4492 79.3438 74.9287 79.3438 75.5202V77.6622C79.3438 78.2537 79.8233 78.7332 80.4147 78.7332H82.5567C83.1482 78.7332 83.6277 78.2537 83.6277 77.6622V75.5202C83.6277 74.9287 83.1482 74.4492 82.5567 74.4492Z" fill="white"/>
        <path d="M87.4552 74.4492H85.3132C84.7217 74.4492 84.2422 74.9287 84.2422 75.5202V77.6622C84.2422 78.2537 84.7217 78.7332 85.3132 78.7332H87.4552C88.0467 78.7332 88.5262 78.2537 88.5262 77.6622V75.5202C88.5262 74.9287 88.0467 74.4492 87.4552 74.4492Z" fill="white"/>
        <path d="M92.3497 74.4492H90.2077C89.6162 74.4492 89.1367 74.9287 89.1367 75.5202V77.6622C89.1367 78.2537 89.6162 78.7332 90.2077 78.7332H92.3497C92.9412 78.7332 93.4207 78.2537 93.4207 77.6622V75.5202C93.4207 74.9287 92.9412 74.4492 92.3497 74.4492Z" fill="white"/>
        <path d="M102.143 74.4492H100.001C99.4092 74.4492 98.9297 74.9287 98.9297 75.5202V77.6622C98.9297 78.2537 99.4092 78.7332 100.001 78.7332H102.143C102.734 78.7332 103.214 78.2537 103.214 77.6622V75.5202C103.214 74.9287 102.734 74.4492 102.143 74.4492Z" fill="white"/>
        <path d="M107.037 74.4492H104.895C104.304 74.4492 103.824 74.9287 103.824 75.5202V77.6622C103.824 78.2537 104.304 78.7332 104.895 78.7332H107.037C107.629 78.7332 108.108 78.2537 108.108 77.6622V75.5202C108.108 74.9287 107.629 74.4492 107.037 74.4492Z" fill="white"/>
        <path d="M126.623 74.4492H124.481C123.89 74.4492 123.41 74.9287 123.41 75.5202V77.6622C123.41 78.2537 123.89 78.7332 124.481 78.7332H126.623C127.215 78.7332 127.694 78.2537 127.694 77.6622V75.5202C127.694 74.9287 127.215 74.4492 126.623 74.4492Z" fill="white"/>
        <path d="M131.518 74.4492H129.376C128.784 74.4492 128.305 74.9287 128.305 75.5202V77.6622C128.305 78.2537 128.784 78.7332 129.376 78.7332H131.518C132.109 78.7332 132.589 78.2537 132.589 77.6622V75.5202C132.589 74.9287 132.109 74.4492 131.518 74.4492Z" fill="white"/>
        <path d="M14.0138 79.3438H11.8718C11.2803 79.3438 10.8008 79.8233 10.8008 80.4147V82.5567C10.8008 83.1482 11.2803 83.6277 11.8718 83.6277H14.0138C14.6053 83.6277 15.0848 83.1482 15.0848 82.5567V80.4147C15.0848 79.8233 14.6053 79.3438 14.0138 79.3438Z" fill="white"/>
        <path d="M18.9083 79.3438H16.7663C16.1748 79.3438 15.6953 79.8233 15.6953 80.4147V82.5567C15.6953 83.1482 16.1748 83.6277 16.7663 83.6277H18.9083C19.4998 83.6277 19.9793 83.1482 19.9793 82.5567V80.4147C19.9793 79.8233 19.4998 79.3438 18.9083 79.3438Z" fill="white"/>
        <path d="M23.8067 79.3438H21.6647C21.0733 79.3438 20.5938 79.8233 20.5938 80.4147V82.5567C20.5938 83.1482 21.0733 83.6277 21.6647 83.6277H23.8067C24.3982 83.6277 24.8777 83.1482 24.8777 82.5567V80.4147C24.8777 79.8233 24.3982 79.3438 23.8067 79.3438Z" fill="white"/>
        <path d="M43.3888 79.3438H41.2468C40.6553 79.3438 40.1758 79.8233 40.1758 80.4147V82.5567C40.1758 83.1482 40.6553 83.6277 41.2468 83.6277H43.3888C43.9803 83.6277 44.4598 83.1482 44.4598 82.5567V80.4147C44.4598 79.8233 43.9803 79.3438 43.3888 79.3438Z" fill="white"/>
        <path d="M48.2872 79.3438H46.1452C45.5537 79.3438 45.0742 79.8233 45.0742 80.4147V82.5567C45.0742 83.1482 45.5537 83.6277 46.1452 83.6277H48.2872C48.8787 83.6277 49.3582 83.1482 49.3582 82.5567V80.4147C49.3582 79.8233 48.8787 79.3438 48.2872 79.3438Z" fill="white"/>
        <path d="M58.0782 79.3438H55.9362C55.3447 79.3438 54.8652 79.8233 54.8652 80.4147V82.5567C54.8652 83.1482 55.3447 83.6277 55.9362 83.6277H58.0782C58.6697 83.6277 59.1492 83.1482 59.1492 82.5567V80.4147C59.1492 79.8233 58.6697 79.3438 58.0782 79.3438Z" fill="white"/>
        <path d="M72.7657 79.3438H70.6237C70.0322 79.3438 69.5527 79.8233 69.5527 80.4147V82.5567C69.5527 83.1482 70.0322 83.6277 70.6237 83.6277H72.7657C73.3572 83.6277 73.8367 83.1482 73.8367 82.5567V80.4147C73.8367 79.8233 73.3572 79.3438 72.7657 79.3438Z" fill="white"/>
        <path d="M87.4552 79.3438H85.3132C84.7217 79.3438 84.2422 79.8233 84.2422 80.4147V82.5567C84.2422 83.1482 84.7217 83.6277 85.3132 83.6277H87.4552C88.0467 83.6277 88.5262 83.1482 88.5262 82.5567V80.4147C88.5262 79.8233 88.0467 79.3438 87.4552 79.3438Z" fill="white"/>
        <path d="M92.3497 79.3438H90.2077C89.6162 79.3438 89.1367 79.8233 89.1367 80.4147V82.5567C89.1367 83.1482 89.6162 83.6277 90.2077 83.6277H92.3497C92.9412 83.6277 93.4207 83.1482 93.4207 82.5567V80.4147C93.4207 79.8233 92.9412 79.3438 92.3497 79.3438Z" fill="white"/>
        <path d="M102.143 79.3438H100.001C99.4092 79.3438 98.9297 79.8233 98.9297 80.4147V82.5567C98.9297 83.1482 99.4092 83.6277 100.001 83.6277H102.143C102.734 83.6277 103.214 83.1482 103.214 82.5567V80.4147C103.214 79.8233 102.734 79.3438 102.143 79.3438Z" fill="white"/>
        <path d="M116.83 79.3438H114.688C114.097 79.3438 113.617 79.8233 113.617 80.4147V82.5567C113.617 83.1482 114.097 83.6277 114.688 83.6277H116.83C117.422 83.6277 117.901 83.1482 117.901 82.5567V80.4147C117.901 79.8233 117.422 79.3438 116.83 79.3438Z" fill="white"/>
        <path d="M121.725 79.3438H119.583C118.991 79.3438 118.512 79.8233 118.512 80.4147V82.5567C118.512 83.1482 118.991 83.6277 119.583 83.6277H121.725C122.316 83.6277 122.796 83.1482 122.796 82.5567V80.4147C122.796 79.8233 122.316 79.3438 121.725 79.3438Z" fill="white"/>
        <path d="M131.518 79.3438H129.376C128.784 79.3438 128.305 79.8233 128.305 80.4147V82.5567C128.305 83.1482 128.784 83.6277 129.376 83.6277H131.518C132.109 83.6277 132.589 83.1482 132.589 82.5567V80.4147C132.589 79.8233 132.109 79.3438 131.518 79.3438Z" fill="white"/>
        <path d="M23.8067 84.2422H21.6647C21.0733 84.2422 20.5938 84.7217 20.5938 85.3132V87.4552C20.5938 88.0467 21.0733 88.5262 21.6647 88.5262H23.8067C24.3982 88.5262 24.8777 88.0467 24.8777 87.4552V85.3132C24.8777 84.7217 24.3982 84.2422 23.8067 84.2422Z" fill="white"/>
        <path d="M28.7013 84.2422H26.5593C25.9678 84.2422 25.4883 84.7217 25.4883 85.3132V87.4552C25.4883 88.0467 25.9678 88.5262 26.5593 88.5262H28.7013C29.2928 88.5262 29.7723 88.0467 29.7723 87.4552V85.3132C29.7723 84.7217 29.2928 84.2422 28.7013 84.2422Z" fill="white"/>
        <path d="M38.4942 84.2422H36.3522C35.7608 84.2422 35.2812 84.7217 35.2812 85.3132V87.4552C35.2812 88.0467 35.7608 88.5262 36.3522 88.5262H38.4942C39.0857 88.5262 39.5652 88.0467 39.5652 87.4552V85.3132C39.5652 84.7217 39.0857 84.2422 38.4942 84.2422Z" fill="white"/>
        <path d="M62.9747 84.2422H60.8327C60.2412 84.2422 59.7617 84.7217 59.7617 85.3132V87.4552C59.7617 88.0467 60.2412 88.5262 60.8327 88.5262H62.9747C63.5662 88.5262 64.0457 88.0467 64.0457 87.4552V85.3132C64.0457 84.7217 63.5662 84.2422 62.9747 84.2422Z" fill="white"/>
        <path d="M67.8692 84.2422H65.7272C65.1358 84.2422 64.6562 84.7217 64.6562 85.3132V87.4552C64.6562 88.0467 65.1358 88.5262 65.7272 88.5262H67.8692C68.4607 88.5262 68.9402 88.0467 68.9402 87.4552V85.3132C68.9402 84.7217 68.4607 84.2422 67.8692 84.2422Z" fill="white"/>
        <path d="M72.7657 84.2422H70.6237C70.0322 84.2422 69.5527 84.7217 69.5527 85.3132V87.4552C69.5527 88.0467 70.0322 88.5262 70.6237 88.5262H72.7657C73.3572 88.5262 73.8367 88.0467 73.8367 87.4552V85.3132C73.8367 84.7217 73.3572 84.2422 72.7657 84.2422Z" fill="white"/>
        <path d="M87.4552 84.2422H85.3132C84.7217 84.2422 84.2422 84.7217 84.2422 85.3132V87.4552C84.2422 88.0467 84.7217 88.5262 85.3132 88.5262H87.4552C88.0467 88.5262 88.5262 88.0467 88.5262 87.4552V85.3132C88.5262 84.7217 88.0467 84.2422 87.4552 84.2422Z" fill="white"/>
        <path d="M92.3497 84.2422H90.2077C89.6162 84.2422 89.1367 84.7217 89.1367 85.3132V87.4552C89.1367 88.0467 89.6162 88.5262 90.2077 88.5262H92.3497C92.9412 88.5262 93.4207 88.0467 93.4207 87.4552V85.3132C93.4207 84.7217 92.9412 84.2422 92.3497 84.2422Z" fill="white"/>
        <path d="M97.2442 84.2422H95.1022C94.5108 84.2422 94.0312 84.7217 94.0312 85.3132V87.4552C94.0312 88.0467 94.5108 88.5262 95.1022 88.5262H97.2442C97.8357 88.5262 98.3152 88.0467 98.3152 87.4552V85.3132C98.3152 84.7217 97.8357 84.2422 97.2442 84.2422Z" fill="white"/>
        <path d="M107.037 84.2422H104.895C104.304 84.2422 103.824 84.7217 103.824 85.3132V87.4552C103.824 88.0467 104.304 88.5262 104.895 88.5262H107.037C107.629 88.5262 108.108 88.0467 108.108 87.4552V85.3132C108.108 84.7217 107.629 84.2422 107.037 84.2422Z" fill="white"/>
        <path d="M111.932 84.2422H109.79C109.198 84.2422 108.719 84.7217 108.719 85.3132V87.4552C108.719 88.0467 109.198 88.5262 109.79 88.5262H111.932C112.523 88.5262 113.003 88.0467 113.003 87.4552V85.3132C113.003 84.7217 112.523 84.2422 111.932 84.2422Z" fill="white"/>
        <path d="M116.83 84.2422H114.688C114.097 84.2422 113.617 84.7217 113.617 85.3132V87.4552C113.617 88.0467 114.097 88.5262 114.688 88.5262H116.83C117.422 88.5262 117.901 88.0467 117.901 87.4552V85.3132C117.901 84.7217 117.422 84.2422 116.83 84.2422Z" fill="white"/>
        <path d="M14.0138 89.1367H11.8718C11.2803 89.1367 10.8008 89.6162 10.8008 90.2077V92.3497C10.8008 92.9412 11.2803 93.4207 11.8718 93.4207H14.0138C14.6053 93.4207 15.0848 92.9412 15.0848 92.3497V90.2077C15.0848 89.6162 14.6053 89.1367 14.0138 89.1367Z" fill="white"/>
        <path d="M18.9083 89.1367H16.7663C16.1748 89.1367 15.6953 89.6162 15.6953 90.2077V92.3497C15.6953 92.9412 16.1748 93.4207 16.7663 93.4207H18.9083C19.4998 93.4207 19.9793 92.9412 19.9793 92.3497V90.2077C19.9793 89.6162 19.4998 89.1367 18.9083 89.1367Z" fill="white"/>
        <path d="M33.5958 89.1367H31.4538C30.8623 89.1367 30.3828 89.6162 30.3828 90.2077V92.3497C30.3828 92.9412 30.8623 93.4207 31.4538 93.4207H33.5958C34.1873 93.4207 34.6668 92.9412 34.6668 92.3497V90.2077C34.6668 89.6162 34.1873 89.1367 33.5958 89.1367Z" fill="white"/>
        <path d="M38.4942 89.1367H36.3522C35.7608 89.1367 35.2812 89.6162 35.2812 90.2077V92.3497C35.2812 92.9412 35.7608 93.4207 36.3522 93.4207H38.4942C39.0857 93.4207 39.5652 92.9412 39.5652 92.3497V90.2077C39.5652 89.6162 39.0857 89.1367 38.4942 89.1367Z" fill="white"/>
        <path d="M43.3888 89.1367H41.2468C40.6553 89.1367 40.1758 89.6162 40.1758 90.2077V92.3497C40.1758 92.9412 40.6553 93.4207 41.2468 93.4207H43.3888C43.9803 93.4207 44.4598 92.9412 44.4598 92.3497V90.2077C44.4598 89.6162 43.9803 89.1367 43.3888 89.1367Z" fill="white"/>
        <path d="M53.1817 89.1367H51.0397C50.4483 89.1367 49.9688 89.6162 49.9688 90.2077V92.3497C49.9688 92.9412 50.4483 93.4207 51.0397 93.4207H53.1817C53.7732 93.4207 54.2527 92.9412 54.2527 92.3497V90.2077C54.2527 89.6162 53.7732 89.1367 53.1817 89.1367Z" fill="white"/>
        <path d="M58.0782 89.1367H55.9362C55.3447 89.1367 54.8652 89.6162 54.8652 90.2077V92.3497C54.8652 92.9412 55.3447 93.4207 55.9362 93.4207H58.0782C58.6697 93.4207 59.1492 92.9412 59.1492 92.3497V90.2077C59.1492 89.6162 58.6697 89.1367 58.0782 89.1367Z" fill="white"/>
        <path d="M72.7657 89.1367H70.6237C70.0322 89.1367 69.5527 89.6162 69.5527 90.2077V92.3497C69.5527 92.9412 70.0322 93.4207 70.6237 93.4207H72.7657C73.3572 93.4207 73.8367 92.9412 73.8367 92.3497V90.2077C73.8367 89.6162 73.3572 89.1367 72.7657 89.1367Z" fill="white"/>
        <path d="M82.5567 89.1367H80.4147C79.8233 89.1367 79.3438 89.6162 79.3438 90.2077V92.3497C79.3438 92.9412 79.8233 93.4207 80.4147 93.4207H82.5567C83.1482 93.4207 83.6277 92.9412 83.6277 92.3497V90.2077C83.6277 89.6162 83.1482 89.1367 82.5567 89.1367Z" fill="white"/>
        <path d="M92.3497 89.1367H90.2077C89.6162 89.1367 89.1367 89.6162 89.1367 90.2077V92.3497C89.1367 92.9412 89.6162 93.4207 90.2077 93.4207H92.3497C92.9412 93.4207 93.4207 92.9412 93.4207 92.3497V90.2077C93.4207 89.6162 92.9412 89.1367 92.3497 89.1367Z" fill="white"/>
        <path d="M97.2442 89.1367H95.1022C94.5108 89.1367 94.0312 89.6162 94.0312 90.2077V92.3497C94.0312 92.9412 94.5108 93.4207 95.1022 93.4207H97.2442C97.8357 93.4207 98.3152 92.9412 98.3152 92.3497V90.2077C98.3152 89.6162 97.8357 89.1367 97.2442 89.1367Z" fill="white"/>
        <path d="M102.143 89.1367H100.001C99.4092 89.1367 98.9297 89.6162 98.9297 90.2077V92.3497C98.9297 92.9412 99.4092 93.4207 100.001 93.4207H102.143C102.734 93.4207 103.214 92.9412 103.214 92.3497V90.2077C103.214 89.6162 102.734 89.1367 102.143 89.1367Z" fill="white"/>
        <path d="M107.037 89.1367H104.895C104.304 89.1367 103.824 89.6162 103.824 90.2077V92.3497C103.824 92.9412 104.304 93.4207 104.895 93.4207H107.037C107.629 93.4207 108.108 92.9412 108.108 92.3497V90.2077C108.108 89.6162 107.629 89.1367 107.037 89.1367Z" fill="white"/>
        <path d="M111.932 89.1367H109.79C109.198 89.1367 108.719 89.6162 108.719 90.2077V92.3497C108.719 92.9412 109.198 93.4207 109.79 93.4207H111.932C112.523 93.4207 113.003 92.9412 113.003 92.3497V90.2077C113.003 89.6162 112.523 89.1367 111.932 89.1367Z" fill="white"/>
        <path d="M126.623 89.1367H124.481C123.89 89.1367 123.41 89.6162 123.41 90.2077V92.3497C123.41 92.9412 123.89 93.4207 124.481 93.4207H126.623C127.215 93.4207 127.694 92.9412 127.694 92.3497V90.2077C127.694 89.6162 127.215 89.1367 126.623 89.1367Z" fill="white"/>
        <path d="M53.1817 94.0312H51.0397C50.4483 94.0312 49.9688 94.5108 49.9688 95.1022V97.2442C49.9688 97.8357 50.4483 98.3152 51.0397 98.3152H53.1817C53.7732 98.3152 54.2527 97.8357 54.2527 97.2442V95.1022C54.2527 94.5108 53.7732 94.0312 53.1817 94.0312Z" fill="white"/>
        <path d="M58.0782 94.0312H55.9362C55.3447 94.0312 54.8652 94.5108 54.8652 95.1022V97.2442C54.8652 97.8357 55.3447 98.3152 55.9362 98.3152H58.0782C58.6697 98.3152 59.1492 97.8357 59.1492 97.2442V95.1022C59.1492 94.5108 58.6697 94.0312 58.0782 94.0312Z" fill="white"/>
        <path d="M62.9747 94.0312H60.8327C60.2412 94.0312 59.7617 94.5108 59.7617 95.1022V97.2442C59.7617 97.8357 60.2412 98.3152 60.8327 98.3152H62.9747C63.5662 98.3152 64.0457 97.8357 64.0457 97.2442V95.1022C64.0457 94.5108 63.5662 94.0312 62.9747 94.0312Z" fill="white"/>
        <path d="M82.5567 94.0312H80.4147C79.8233 94.0312 79.3438 94.5108 79.3438 95.1022V97.2442C79.3438 97.8357 79.8233 98.3152 80.4147 98.3152H82.5567C83.1482 98.3152 83.6277 97.8357 83.6277 97.2442V95.1022C83.6277 94.5108 83.1482 94.0312 82.5567 94.0312Z" fill="white"/>
        <path d="M92.3497 94.0312H90.2077C89.6162 94.0312 89.1367 94.5108 89.1367 95.1022V97.2442C89.1367 97.8357 89.6162 98.3152 90.2077 98.3152H92.3497C92.9412 98.3152 93.4207 97.8357 93.4207 97.2442V95.1022C93.4207 94.5108 92.9412 94.0312 92.3497 94.0312Z" fill="white"/>
        <path d="M111.932 94.0312H109.79C109.198 94.0312 108.719 94.5108 108.719 95.1022V97.2442C108.719 97.8357 109.198 98.3152 109.79 98.3152H111.932C112.523 98.3152 113.003 97.8357 113.003 97.2442V95.1022C113.003 94.5108 112.523 94.0312 111.932 94.0312Z" fill="white"/>
        <path d="M131.518 94.0312H129.376C128.784 94.0312 128.305 94.5108 128.305 95.1022V97.2442C128.305 97.8357 128.784 98.3152 129.376 98.3152H131.518C132.109 98.3152 132.589 97.8357 132.589 97.2442V95.1022C132.589 94.5108 132.109 94.0312 131.518 94.0312Z" fill="white"/>
        <path d="M12.0248 98.9297H15.6968V103.826H10.8008V100.154C10.8008 99.8291 10.9297 99.5177 11.1593 99.2882C11.3888 99.0586 11.7002 98.9297 12.0248 98.9297Z" fill="white"/>
        <path d="M15.6953 98.9297H20.5913V103.826H15.6953V98.9297Z" fill="white"/>
        <path d="M20.5938 98.9297H25.4897V103.826H20.5938V98.9297Z" fill="white"/>
        <path d="M25.4883 98.9297H30.3843V103.826H25.4883V98.9297Z" fill="white"/>
        <path d="M30.3828 98.9297H35.2788V103.826H30.3828V98.9297Z" fill="white"/>
        <path d="M35.2812 98.9297H40.1772V103.826H35.2812V98.9297Z" fill="white"/>
        <path d="M40.1758 98.9297H43.8478C44.1724 98.9297 44.4837 99.0586 44.7133 99.2882C44.9428 99.5177 45.0718 99.8291 45.0718 100.154V103.826H40.1758V98.9297Z" fill="white"/>
        <path d="M53.1817 98.9297H51.0397C50.4483 98.9297 49.9688 99.4092 49.9688 100.001V102.143C49.9688 102.734 50.4483 103.214 51.0397 103.214H53.1817C53.7732 103.214 54.2527 102.734 54.2527 102.143V100.001C54.2527 99.4092 53.7732 98.9297 53.1817 98.9297Z" fill="white"/>
        <path d="M58.0782 98.9297H55.9362C55.3447 98.9297 54.8652 99.4092 54.8652 100.001V102.143C54.8652 102.734 55.3447 103.214 55.9362 103.214H58.0782C58.6697 103.214 59.1492 102.734 59.1492 102.143V100.001C59.1492 99.4092 58.6697 98.9297 58.0782 98.9297Z" fill="white"/>
        <path d="M62.9747 98.9297H60.8327C60.2412 98.9297 59.7617 99.4092 59.7617 100.001V102.143C59.7617 102.734 60.2412 103.214 60.8327 103.214H62.9747C63.5662 103.214 64.0457 102.734 64.0457 102.143V100.001C64.0457 99.4092 63.5662 98.9297 62.9747 98.9297Z" fill="white"/>
        <path d="M67.8692 98.9297H65.7272C65.1358 98.9297 64.6562 99.4092 64.6562 100.001V102.143C64.6562 102.734 65.1358 103.214 65.7272 103.214H67.8692C68.4607 103.214 68.9402 102.734 68.9402 102.143V100.001C68.9402 99.4092 68.4607 98.9297 67.8692 98.9297Z" fill="white"/>
        <path d="M92.3497 98.9297H90.2077C89.6162 98.9297 89.1367 99.4092 89.1367 100.001V102.143C89.1367 102.734 89.6162 103.214 90.2077 103.214H92.3497C92.9412 103.214 93.4207 102.734 93.4207 102.143V100.001C93.4207 99.4092 92.9412 98.9297 92.3497 98.9297Z" fill="white"/>
        <path d="M102.143 98.9297H100.001C99.4092 98.9297 98.9297 99.4092 98.9297 100.001V102.143C98.9297 102.734 99.4092 103.214 100.001 103.214H102.143C102.734 103.214 103.214 102.734 103.214 102.143V100.001C103.214 99.4092 102.734 98.9297 102.143 98.9297Z" fill="white"/>
        <path d="M111.932 98.9297H109.79C109.198 98.9297 108.719 99.4092 108.719 100.001V102.143C108.719 102.734 109.198 103.214 109.79 103.214H111.932C112.523 103.214 113.003 102.734 113.003 102.143V100.001C113.003 99.4092 112.523 98.9297 111.932 98.9297Z" fill="white"/>
        <path d="M131.518 98.9297H129.376C128.784 98.9297 128.305 99.4092 128.305 100.001V102.143C128.305 102.734 128.784 103.214 129.376 103.214H131.518C132.109 103.214 132.589 102.734 132.589 102.143V100.001C132.589 99.4092 132.109 98.9297 131.518 98.9297Z" fill="white"/>
        <path d="M10.8008 103.824H15.6968V108.72H10.8008V103.824Z" fill="white"/>
        <path d="M40.1758 103.824H45.0718V108.72H40.1758V103.824Z" fill="white"/>
        <path d="M58.0782 103.824H55.9362C55.3447 103.824 54.8652 104.304 54.8652 104.895V107.037C54.8652 107.629 55.3447 108.108 55.9362 108.108H58.0782C58.6697 108.108 59.1492 107.629 59.1492 107.037V104.895C59.1492 104.304 58.6697 103.824 58.0782 103.824Z" fill="white"/>
        <path d="M62.9747 103.824H60.8327C60.2412 103.824 59.7617 104.304 59.7617 104.895V107.037C59.7617 107.629 60.2412 108.108 60.8327 108.108H62.9747C63.5662 108.108 64.0457 107.629 64.0457 107.037V104.895C64.0457 104.304 63.5662 103.824 62.9747 103.824Z" fill="white"/>
        <path d="M67.8692 103.824H65.7272C65.1358 103.824 64.6562 104.304 64.6562 104.895V107.037C64.6562 107.629 65.1358 108.108 65.7272 108.108H67.8692C68.4607 108.108 68.9402 107.629 68.9402 107.037V104.895C68.9402 104.304 68.4607 103.824 67.8692 103.824Z" fill="white"/>
        <path d="M72.7657 103.824H70.6237C70.0322 103.824 69.5527 104.304 69.5527 104.895V107.037C69.5527 107.629 70.0322 108.108 70.6237 108.108H72.7657C73.3572 108.108 73.8367 107.629 73.8367 107.037V104.895C73.8367 104.304 73.3572 103.824 72.7657 103.824Z" fill="white"/>
        <path d="M82.5567 103.824H80.4147C79.8233 103.824 79.3438 104.304 79.3438 104.895V107.037C79.3438 107.629 79.8233 108.108 80.4147 108.108H82.5567C83.1482 108.108 83.6277 107.629 83.6277 107.037V104.895C83.6277 104.304 83.1482 103.824 82.5567 103.824Z" fill="white"/>
        <path d="M87.4552 103.824H85.3132C84.7217 103.824 84.2422 104.304 84.2422 104.895V107.037C84.2422 107.629 84.7217 108.108 85.3132 108.108H87.4552C88.0467 108.108 88.5262 107.629 88.5262 107.037V104.895C88.5262 104.304 88.0467 103.824 87.4552 103.824Z" fill="white"/>
        <path d="M92.3497 103.824H90.2077C89.6162 103.824 89.1367 104.304 89.1367 104.895V107.037C89.1367 107.629 89.6162 108.108 90.2077 108.108H92.3497C92.9412 108.108 93.4207 107.629 93.4207 107.037V104.895C93.4207 104.304 92.9412 103.824 92.3497 103.824Z" fill="white"/>
        <path d="M111.932 103.824H109.79C109.198 103.824 108.719 104.304 108.719 104.895V107.037C108.719 107.629 109.198 108.108 109.79 108.108H111.932C112.523 108.108 113.003 107.629 113.003 107.037V104.895C113.003 104.304 112.523 103.824 111.932 103.824Z" fill="white"/>
        <path d="M126.623 103.824H124.481C123.89 103.824 123.41 104.304 123.41 104.895V107.037C123.41 107.629 123.89 108.108 124.481 108.108H126.623C127.215 108.108 127.694 107.629 127.694 107.037V104.895C127.694 104.304 127.215 103.824 126.623 103.824Z" fill="white"/>
        <path d="M10.8008 108.719H15.6968V113.615H10.8008V108.719Z" fill="white"/>
        <path d="M21.8177 108.719H25.4897V113.615H20.5938V109.943C20.5938 109.618 20.7227 109.307 20.9523 109.077C21.1818 108.848 21.4931 108.719 21.8177 108.719Z" fill="white"/>
        <path d="M25.4883 108.719H30.3843V113.615H25.4883V108.719Z" fill="white"/>
        <path d="M30.3828 108.719H34.0548C34.3794 108.719 34.6908 108.848 34.9203 109.077C35.1498 109.307 35.2788 109.618 35.2788 109.943V113.615H30.3828V108.719Z" fill="white"/>
        <path d="M40.1758 108.719H45.0718V113.615H40.1758V108.719Z" fill="white"/>
        <path d="M58.0782 108.719H55.9362C55.3447 108.719 54.8652 109.198 54.8652 109.79V111.932C54.8652 112.523 55.3447 113.003 55.9362 113.003H58.0782C58.6697 113.003 59.1492 112.523 59.1492 111.932V109.79C59.1492 109.198 58.6697 108.719 58.0782 108.719Z" fill="white"/>
        <path d="M67.8692 108.719H65.7272C65.1358 108.719 64.6562 109.198 64.6562 109.79V111.932C64.6562 112.523 65.1358 113.003 65.7272 113.003H67.8692C68.4607 113.003 68.9402 112.523 68.9402 111.932V109.79C68.9402 109.198 68.4607 108.719 67.8692 108.719Z" fill="white"/>
        <path d="M87.4552 108.719H85.3132C84.7217 108.719 84.2422 109.198 84.2422 109.79V111.932C84.2422 112.523 84.7217 113.003 85.3132 113.003H87.4552C88.0467 113.003 88.5262 112.523 88.5262 111.932V109.79C88.5262 109.198 88.0467 108.719 87.4552 108.719Z" fill="white"/>
        <path d="M92.3497 108.719H90.2077C89.6162 108.719 89.1367 109.198 89.1367 109.79V111.932C89.1367 112.523 89.6162 113.003 90.2077 113.003H92.3497C92.9412 113.003 93.4207 112.523 93.4207 111.932V109.79C93.4207 109.198 92.9412 108.719 92.3497 108.719Z" fill="white"/>
        <path d="M97.2442 108.719H95.1022C94.5108 108.719 94.0312 109.198 94.0312 109.79V111.932C94.0312 112.523 94.5108 113.003 95.1022 113.003H97.2442C97.8357 113.003 98.3152 112.523 98.3152 111.932V109.79C98.3152 109.198 97.8357 108.719 97.2442 108.719Z" fill="white"/>
        <path d="M102.143 108.719H100.001C99.4092 108.719 98.9297 109.198 98.9297 109.79V111.932C98.9297 112.523 99.4092 113.003 100.001 113.003H102.143C102.734 113.003 103.214 112.523 103.214 111.932V109.79C103.214 109.198 102.734 108.719 102.143 108.719Z" fill="white"/>
        <path d="M107.037 108.719H104.895C104.304 108.719 103.824 109.198 103.824 109.79V111.932C103.824 112.523 104.304 113.003 104.895 113.003H107.037C107.629 113.003 108.108 112.523 108.108 111.932V109.79C108.108 109.198 107.629 108.719 107.037 108.719Z" fill="white"/>
        <path d="M111.932 108.719H109.79C109.198 108.719 108.719 109.198 108.719 109.79V111.932C108.719 112.523 109.198 113.003 109.79 113.003H111.932C112.523 113.003 113.003 112.523 113.003 111.932V109.79C113.003 109.198 112.523 108.719 111.932 108.719Z" fill="white"/>
        <path d="M126.623 108.719H124.481C123.89 108.719 123.41 109.198 123.41 109.79V111.932C123.41 112.523 123.89 113.003 124.481 113.003H126.623C127.215 113.003 127.694 112.523 127.694 111.932V109.79C127.694 109.198 127.215 108.719 126.623 108.719Z" fill="white"/>
        <path d="M10.8008 113.617H15.6968V118.513H10.8008V113.617Z" fill="white"/>
        <path d="M20.5938 113.617H25.4897V118.513H20.5938V113.617Z" fill="white"/>
        <path d="M25.4883 113.617H30.3843V118.513H25.4883V113.617Z" fill="white"/>
        <path d="M30.3828 113.617H35.2788V118.513H30.3828V113.617Z" fill="white"/>
        <path d="M40.1758 113.617H45.0718V118.513H40.1758V113.617Z" fill="white"/>
        <path d="M58.0782 113.617H55.9362C55.3447 113.617 54.8652 114.097 54.8652 114.688V116.83C54.8652 117.422 55.3447 117.901 55.9362 117.901H58.0782C58.6697 117.901 59.1492 117.422 59.1492 116.83V114.688C59.1492 114.097 58.6697 113.617 58.0782 113.617Z" fill="white"/>
        <path d="M67.8692 113.617H65.7272C65.1358 113.617 64.6562 114.097 64.6562 114.688V116.83C64.6562 117.422 65.1358 117.901 65.7272 117.901H67.8692C68.4607 117.901 68.9402 117.422 68.9402 116.83V114.688C68.9402 114.097 68.4607 113.617 67.8692 113.617Z" fill="white"/>
        <path d="M82.5567 113.617H80.4147C79.8233 113.617 79.3438 114.097 79.3438 114.688V116.83C79.3438 117.422 79.8233 117.901 80.4147 117.901H82.5567C83.1482 117.901 83.6277 117.422 83.6277 116.83V114.688C83.6277 114.097 83.1482 113.617 82.5567 113.617Z" fill="white"/>
        <path d="M87.4552 113.617H85.3132C84.7217 113.617 84.2422 114.097 84.2422 114.688V116.83C84.2422 117.422 84.7217 117.901 85.3132 117.901H87.4552C88.0467 117.901 88.5262 117.422 88.5262 116.83V114.688C88.5262 114.097 88.0467 113.617 87.4552 113.617Z" fill="white"/>
        <path d="M97.2442 113.617H95.1022C94.5108 113.617 94.0312 114.097 94.0312 114.688V116.83C94.0312 117.422 94.5108 117.901 95.1022 117.901H97.2442C97.8357 117.901 98.3152 117.422 98.3152 116.83V114.688C98.3152 114.097 97.8357 113.617 97.2442 113.617Z" fill="white"/>
        <path d="M111.932 113.617H109.79C109.198 113.617 108.719 114.097 108.719 114.688V116.83C108.719 117.422 109.198 117.901 109.79 117.901H111.932C112.523 117.901 113.003 117.422 113.003 116.83V114.688C113.003 114.097 112.523 113.617 111.932 113.617Z" fill="white"/>
        <path d="M121.725 113.617H119.583C118.991 113.617 118.512 114.097 118.512 114.688V116.83C118.512 117.422 118.991 117.901 119.583 117.901H121.725C122.316 117.901 122.796 117.422 122.796 116.83V114.688C122.796 114.097 122.316 113.617 121.725 113.617Z" fill="white"/>
        <path d="M126.623 113.617H124.481C123.89 113.617 123.41 114.097 123.41 114.688V116.83C123.41 117.422 123.89 117.901 124.481 117.901H126.623C127.215 117.901 127.694 117.422 127.694 116.83V114.688C127.694 114.097 127.215 113.617 126.623 113.617Z" fill="white"/>
        <path d="M10.8008 118.512H15.6968V123.408H10.8008V118.512Z" fill="white"/>
        <path d="M20.5938 118.512H25.4897V123.408H21.8177C21.4931 123.408 21.1818 123.279 20.9523 123.049C20.7227 122.82 20.5938 122.508 20.5938 122.184V118.512Z" fill="white"/>
        <path d="M25.4883 118.512H30.3843V123.408H25.4883V118.512Z" fill="white"/>
        <path d="M30.3828 118.512H35.2788V122.184C35.2788 122.508 35.1498 122.82 34.9203 123.049C34.6908 123.279 34.3794 123.408 34.0548 123.408H30.3828V118.512Z" fill="white"/>
        <path d="M40.1758 118.512H45.0718V123.408H40.1758V118.512Z" fill="white"/>
        <path d="M53.1817 118.512H51.0397C50.4483 118.512 49.9688 118.991 49.9688 119.583V121.725C49.9688 122.316 50.4483 122.796 51.0397 122.796H53.1817C53.7732 122.796 54.2527 122.316 54.2527 121.725V119.583C54.2527 118.991 53.7732 118.512 53.1817 118.512Z" fill="white"/>
        <path d="M67.8692 118.512H65.7272C65.1358 118.512 64.6562 118.991 64.6562 119.583V121.725C64.6562 122.316 65.1358 122.796 65.7272 122.796H67.8692C68.4607 122.796 68.9402 122.316 68.9402 121.725V119.583C68.9402 118.991 68.4607 118.512 67.8692 118.512Z" fill="white"/>
        <path d="M72.7657 118.512H70.6237C70.0322 118.512 69.5527 118.991 69.5527 119.583V121.725C69.5527 122.316 70.0322 122.796 70.6237 122.796H72.7657C73.3572 122.796 73.8367 122.316 73.8367 121.725V119.583C73.8367 118.991 73.3572 118.512 72.7657 118.512Z" fill="white"/>
        <path d="M77.6622 118.512H75.5202C74.9287 118.512 74.4492 118.991 74.4492 119.583V121.725C74.4492 122.316 74.9287 122.796 75.5202 122.796H77.6622C78.2537 122.796 78.7332 122.316 78.7332 121.725V119.583C78.7332 118.991 78.2537 118.512 77.6622 118.512Z" fill="white"/>
        <path d="M82.5567 118.512H80.4147C79.8233 118.512 79.3438 118.991 79.3438 119.583V121.725C79.3438 122.316 79.8233 122.796 80.4147 122.796H82.5567C83.1482 122.796 83.6277 122.316 83.6277 121.725V119.583C83.6277 118.991 83.1482 118.512 82.5567 118.512Z" fill="white"/>
        <path d="M87.4552 118.512H85.3132C84.7217 118.512 84.2422 118.991 84.2422 119.583V121.725C84.2422 122.316 84.7217 122.796 85.3132 122.796H87.4552C88.0467 122.796 88.5262 122.316 88.5262 121.725V119.583C88.5262 118.991 88.0467 118.512 87.4552 118.512Z" fill="white"/>
        <path d="M97.2442 118.512H95.1022C94.5108 118.512 94.0312 118.991 94.0312 119.583V121.725C94.0312 122.316 94.5108 122.796 95.1022 122.796H97.2442C97.8357 122.796 98.3152 122.316 98.3152 121.725V119.583C98.3152 118.991 97.8357 118.512 97.2442 118.512Z" fill="white"/>
        <path d="M107.037 118.512H104.895C104.304 118.512 103.824 118.991 103.824 119.583V121.725C103.824 122.316 104.304 122.796 104.895 122.796H107.037C107.629 122.796 108.108 122.316 108.108 121.725V119.583C108.108 118.991 107.629 118.512 107.037 118.512Z" fill="white"/>
        <path d="M111.932 118.512H109.79C109.198 118.512 108.719 118.991 108.719 119.583V121.725C108.719 122.316 109.198 122.796 109.79 122.796H111.932C112.523 122.796 113.003 122.316 113.003 121.725V119.583C113.003 118.991 112.523 118.512 111.932 118.512Z" fill="white"/>
        <path d="M116.83 118.512H114.688C114.097 118.512 113.617 118.991 113.617 119.583V121.725C113.617 122.316 114.097 122.796 114.688 122.796H116.83C117.422 122.796 117.901 122.316 117.901 121.725V119.583C117.901 118.991 117.422 118.512 116.83 118.512Z" fill="white"/>
        <path d="M126.623 118.512H124.481C123.89 118.512 123.41 118.991 123.41 119.583V121.725C123.41 122.316 123.89 122.796 124.481 122.796H126.623C127.215 122.796 127.694 122.316 127.694 121.725V119.583C127.694 118.991 127.215 118.512 126.623 118.512Z" fill="white"/>
        <path d="M131.518 118.512H129.376C128.784 118.512 128.305 118.991 128.305 119.583V121.725C128.305 122.316 128.784 122.796 129.376 122.796H131.518C132.109 122.796 132.589 122.316 132.589 121.725V119.583C132.589 118.991 132.109 118.512 131.518 118.512Z" fill="white"/>
        <path d="M10.8008 123.41H15.6968V128.306H10.8008V123.41Z" fill="white"/>
        <path d="M40.1758 123.41H45.0718V128.306H40.1758V123.41Z" fill="white"/>
        <path d="M58.0782 123.41H55.9362C55.3447 123.41 54.8652 123.89 54.8652 124.481V126.623C54.8652 127.215 55.3447 127.694 55.9362 127.694H58.0782C58.6697 127.694 59.1492 127.215 59.1492 126.623V124.481C59.1492 123.89 58.6697 123.41 58.0782 123.41Z" fill="white"/>
        <path d="M82.5567 123.41H80.4147C79.8233 123.41 79.3438 123.89 79.3438 124.481V126.623C79.3438 127.215 79.8233 127.694 80.4147 127.694H82.5567C83.1482 127.694 83.6277 127.215 83.6277 126.623V124.481C83.6277 123.89 83.1482 123.41 82.5567 123.41Z" fill="white"/>
        <path d="M92.3497 123.41H90.2077C89.6162 123.41 89.1367 123.89 89.1367 124.481V126.623C89.1367 127.215 89.6162 127.694 90.2077 127.694H92.3497C92.9412 127.694 93.4207 127.215 93.4207 126.623V124.481C93.4207 123.89 92.9412 123.41 92.3497 123.41Z" fill="white"/>
        <path d="M97.2442 123.41H95.1022C94.5108 123.41 94.0312 123.89 94.0312 124.481V126.623C94.0312 127.215 94.5108 127.694 95.1022 127.694H97.2442C97.8357 127.694 98.3152 127.215 98.3152 126.623V124.481C98.3152 123.89 97.8357 123.41 97.2442 123.41Z" fill="white"/>
        <path d="M102.143 123.41H100.001C99.4092 123.41 98.9297 123.89 98.9297 124.481V126.623C98.9297 127.215 99.4092 127.694 100.001 127.694H102.143C102.734 127.694 103.214 127.215 103.214 126.623V124.481C103.214 123.89 102.734 123.41 102.143 123.41Z" fill="white"/>
        <path d="M107.037 123.41H104.895C104.304 123.41 103.824 123.89 103.824 124.481V126.623C103.824 127.215 104.304 127.694 104.895 127.694H107.037C107.629 127.694 108.108 127.215 108.108 126.623V124.481C108.108 123.89 107.629 123.41 107.037 123.41Z" fill="white"/>
        <path d="M111.932 123.41H109.79C109.198 123.41 108.719 123.89 108.719 124.481V126.623C108.719 127.215 109.198 127.694 109.79 127.694H111.932C112.523 127.694 113.003 127.215 113.003 126.623V124.481C113.003 123.89 112.523 123.41 111.932 123.41Z" fill="white"/>
        <path d="M10.8008 128.305H15.6968V133.201H12.0248C11.7002 133.201 11.3888 133.072 11.1593 132.842C10.9297 132.613 10.8008 132.301 10.8008 131.977V128.305Z" fill="white"/>
        <path d="M15.6953 128.305H20.5913V133.201H15.6953V128.305Z" fill="white"/>
        <path d="M20.5938 128.305H25.4897V133.201H20.5938V128.305Z" fill="white"/>
        <path d="M25.4883 128.305H30.3843V133.201H25.4883V128.305Z" fill="white"/>
        <path d="M30.3828 128.305H35.2788V133.201H30.3828V128.305Z" fill="white"/>
        <path d="M35.2812 128.305H40.1772V133.201H35.2812V128.305Z" fill="white"/>
        <path d="M40.1758 128.305H45.0718V131.977C45.0718 132.301 44.9428 132.613 44.7133 132.842C44.4837 133.072 44.1724 133.201 43.8478 133.201H40.1758V128.305Z" fill="white"/>
        <path d="M53.1817 128.305H51.0397C50.4483 128.305 49.9688 128.784 49.9688 129.376V131.518C49.9688 132.109 50.4483 132.589 51.0397 132.589H53.1817C53.7732 132.589 54.2527 132.109 54.2527 131.518V129.376C54.2527 128.784 53.7732 128.305 53.1817 128.305Z" fill="white"/>
        <path d="M58.0782 128.305H55.9362C55.3447 128.305 54.8652 128.784 54.8652 129.376V131.518C54.8652 132.109 55.3447 132.589 55.9362 132.589H58.0782C58.6697 132.589 59.1492 132.109 59.1492 131.518V129.376C59.1492 128.784 58.6697 128.305 58.0782 128.305Z" fill="white"/>
        <path d="M62.9747 128.305H60.8327C60.2412 128.305 59.7617 128.784 59.7617 129.376V131.518C59.7617 132.109 60.2412 132.589 60.8327 132.589H62.9747C63.5662 132.589 64.0457 132.109 64.0457 131.518V129.376C64.0457 128.784 63.5662 128.305 62.9747 128.305Z" fill="white"/>
        <path d="M72.7657 128.305H70.6237C70.0322 128.305 69.5527 128.784 69.5527 129.376V131.518C69.5527 132.109 70.0322 132.589 70.6237 132.589H72.7657C73.3572 132.589 73.8367 132.109 73.8367 131.518V129.376C73.8367 128.784 73.3572 128.305 72.7657 128.305Z" fill="white"/>
        <path d="M92.3497 128.305H90.2077C89.6162 128.305 89.1367 128.784 89.1367 129.376V131.518C89.1367 132.109 89.6162 132.589 90.2077 132.589H92.3497C92.9412 132.589 93.4207 132.109 93.4207 131.518V129.376C93.4207 128.784 92.9412 128.305 92.3497 128.305Z" fill="white"/>
        <path d="M97.2442 128.305H95.1022C94.5108 128.305 94.0312 128.784 94.0312 129.376V131.518C94.0312 132.109 94.5108 132.589 95.1022 132.589H97.2442C97.8357 132.589 98.3152 132.109 98.3152 131.518V129.376C98.3152 128.784 97.8357 128.305 97.2442 128.305Z" fill="white"/>
        <path d="M102.143 128.305H100.001C99.4092 128.305 98.9297 128.784 98.9297 129.376V131.518C98.9297 132.109 99.4092 132.589 100.001 132.589H102.143C102.734 132.589 103.214 132.109 103.214 131.518V129.376C103.214 128.784 102.734 128.305 102.143 128.305Z" fill="white"/>
        <path d="M116.83 128.305H114.688C114.097 128.305 113.617 128.784 113.617 129.376V131.518C113.617 132.109 114.097 132.589 114.688 132.589H116.83C117.422 132.589 117.901 132.109 117.901 131.518V129.376C117.901 128.784 117.422 128.305 116.83 128.305Z" fill="white"/>
        <path d="M131.518 128.305H129.376C128.784 128.305 128.305 128.784 128.305 129.376V131.518C128.305 132.109 128.784 132.589 129.376 132.589H131.518C132.109 132.589 132.589 132.109 132.589 131.518V129.376C132.589 128.784 132.109 128.305 131.518 128.305Z" fill="white"/>
        <path d="M15.6953 15.6953H16.9193C16.5947 15.6953 16.2834 15.8243 16.0538 16.0538C15.8243 16.2834 15.6953 16.5947 15.6953 16.9193V15.6953Z" fill="white"/>
        <path d="M40.1771 15.6953V16.9193C40.1771 16.5947 40.0482 16.2834 39.8186 16.0538C39.5891 15.8243 39.2777 15.6953 38.9531 15.6953H40.1771Z" fill="white"/>
        <path d="M103.824 15.6953H105.048C104.724 15.6953 104.412 15.8243 104.183 16.0538C103.953 16.2834 103.824 16.5947 103.824 16.9193V15.6953Z" fill="white"/>
        <path d="M128.304 15.6953V16.9193C128.304 16.5947 128.175 16.2834 127.946 16.0538C127.716 15.8243 127.405 15.6953 127.08 15.6953H128.304Z" fill="white"/>
        <path d="M15.6953 40.1771V38.9531C15.6953 39.2777 15.8243 39.5891 16.0538 39.8186C16.2834 40.0482 16.5947 40.1771 16.9193 40.1771H15.6953Z" fill="white"/>
        <path d="M40.1771 40.1771H38.9531C39.2777 40.1771 39.5891 40.0482 39.8186 39.8186C40.0482 39.5891 40.1771 39.2777 40.1771 38.9531V40.1771Z" fill="white"/>
        <path d="M103.824 40.1771V38.9531C103.824 39.2777 103.953 39.5891 104.183 39.8186C104.412 40.0482 104.724 40.1771 105.048 40.1771H103.824Z" fill="white"/>
        <path d="M128.304 40.1771H127.08C127.405 40.1771 127.716 40.0482 127.946 39.8186C128.175 39.5891 128.304 39.2777 128.304 38.9531V40.1771Z" fill="white"/>
        <path d="M15.6953 103.824H16.9193C16.5947 103.824 16.2834 103.953 16.0538 104.183C15.8243 104.412 15.6953 104.724 15.6953 105.048V103.824Z" fill="white"/>
        <path d="M40.1771 103.824V105.048C40.1771 104.724 40.0482 104.412 39.8186 104.183C39.5891 103.953 39.2777 103.824 38.9531 103.824H40.1771Z" fill="white"/>
        <path d="M15.6953 128.304V127.08C15.6953 127.405 15.8243 127.716 16.0538 127.946C16.2834 128.175 16.5947 128.304 16.9193 128.304H15.6953Z" fill="white"/>
        <path d="M40.1771 128.304H38.9531C39.2777 128.304 39.5891 128.175 39.8186 127.946C40.0482 127.716 40.1771 127.405 40.1771 127.08V128.304Z" fill="white"/>
    </g>
    <defs>
        <clipPath id="clip0_15701_28744">
            <rect width="144" height="144" rx="16" fill="white"/>
        </clipPath>
    </defs>
</svg>