<svg width="24" height="24" viewBox="0 0 24 24" fill="none" xmlns="http://www.w3.org/2000/svg">
<path d="M11.299 20L16.299 10.25H12.799V4L7.79902 13.75H11.299V20ZM11.999 22C10.6157 22 9.31569 21.7373 8.09902 21.212C6.88236 20.6867 5.82402 19.9743 4.92402 19.075C4.02402 18.175 3.31169 17.1167 2.78702 15.9C2.26236 14.6833 1.99969 13.3833 1.99902 12C1.99902 10.6167 2.26169 9.31667 2.78702 8.1C3.31236 6.88333 4.02469 5.825 4.92402 4.925C5.82402 4.025 6.88236 3.31267 8.09902 2.788C9.31569 2.26333 10.6157 2.00067 11.999 2C13.3824 2 14.6824 2.26267 15.899 2.788C17.1157 3.31333 18.174 4.02567 19.074 4.925C19.974 5.825 20.6867 6.88333 21.212 8.1C21.7374 9.31667 21.9997 10.6167 21.999 12C21.999 13.3833 21.7364 14.6833 21.211 15.9C20.6857 17.1167 19.9734 18.175 19.074 19.075C18.174 19.975 17.1157 20.6877 15.899 21.213C14.6824 21.7383 13.3824 22.0007 11.999 22ZM11.999 20C14.2157 20 16.1034 19.221 17.662 17.663C19.2207 16.105 19.9997 14.2173 19.999 12C19.999 9.78333 19.22 7.89567 17.662 6.337C16.104 4.77833 14.2164 3.99933 11.999 4C9.78236 4 7.89469 4.77933 6.33602 6.338C4.77736 7.89667 3.99836 9.784 3.99902 12C3.99902 14.2167 4.77836 16.1043 6.33702 17.663C7.89569 19.2217 9.78302 20.0007 11.999 20Z" fill="#1E558E"/>
</svg>
