<svg width="24" height="24" viewBox="0 0 24 24" fill="none" xmlns="http://www.w3.org/2000/svg">
<path d="M12.0059 22.0029C6.48286 22.0029 2.00586 17.5259 2.00586 12.0029C2.00586 6.47993 6.48286 2.00293 12.0059 2.00293C17.5289 2.00293 22.0059 6.47993 22.0059 12.0029C22.0059 17.5259 17.5289 22.0029 12.0059 22.0029ZM12.0059 20.0029C14.1276 20.0029 16.1624 19.1601 17.6627 17.6598C19.163 16.1595 20.0059 14.1247 20.0059 12.0029C20.0059 9.8812 19.163 7.84637 17.6627 6.34608C16.1624 4.84578 14.1276 4.00293 12.0059 4.00293C9.88413 4.00293 7.8493 4.84578 6.34901 6.34608C4.84871 7.84637 4.00586 9.8812 4.00586 12.0029C4.00586 14.1247 4.84871 16.1595 6.34901 17.6598C7.8493 19.1601 9.88413 20.0029 12.0059 20.0029ZM7.00586 9.00293L10.0059 5.50293L13.0059 9.00293H11.0059V13.0029H9.00586V9.00293H7.00586ZM17.0059 15.0029L14.0059 18.5029L11.0059 15.0029H13.0059V11.0029H15.0059V15.0029H17.0059Z" fill="#1E558E"/>
</svg>
