<svg width="24" height="24" viewBox="0 0 24 24" fill="none" xmlns="http://www.w3.org/2000/svg">
<path d="M2.99805 10V8C2.99805 7.46957 3.20876 6.96086 3.58383 6.58579C3.95891 6.21071 4.46761 6 4.99805 6H6.99805M2.99805 10C4.33105 10 6.99805 9.2 6.99805 6M2.99805 10V14M6.99805 6H16.998M2.99805 14V16C2.99805 16.5304 3.20876 17.0391 3.58383 17.4142C3.95891 17.7893 4.46761 18 4.99805 18H6.99805M2.99805 14C4.33105 14 6.99805 14.8 6.99805 18M20.998 10V8C20.998 7.46957 20.7873 6.96086 20.4123 6.58579C20.0372 6.21071 19.5285 6 18.998 6H16.998M20.998 10C19.665 10 16.998 9.2 16.998 6M20.998 10V12M6.99805 18H10.998" stroke="#1E558E" stroke-width="3" stroke-linecap="round" stroke-linejoin="round"/>
<path d="M11.998 14C13.1026 14 13.998 13.1046 13.998 12C13.998 10.8954 13.1026 10 11.998 10C10.8935 10 9.99805 10.8954 9.99805 12C9.99805 13.1046 10.8935 14 11.998 14Z" stroke="#1E558E" stroke-width="3" stroke-linecap="round" stroke-linejoin="round"/>
<path d="M17.998 15V18M17.998 18V21M17.998 18H14.998M17.998 18H20.998" stroke="#1E558E" stroke-width="3" stroke-linecap="round" stroke-linejoin="round"/>
</svg>
