<svg width="38" height="38" viewBox="0 0 38 38" fill="none" xmlns="http://www.w3.org/2000/svg">
<rect x="0.905762" y="0.5" width="37" height="37" rx="18.5" fill="#4769B1"/>
<path d="M14.9058 16.5C13.5058 16.5 12.4058 17.6 12.4058 19C12.4058 20.4 13.5058 21.5 14.9058 21.5C16.3058 21.5 17.4058 20.4 17.4058 19C17.4058 17.6 16.3058 16.5 14.9058 16.5ZM23.9058 16.5C22.5058 16.5 21.4058 17.6 21.4058 19C21.4058 20.4 22.5058 21.5 23.9058 21.5C25.3058 21.5 26.4058 20.4 26.4058 19C26.4058 17.6 25.3058 16.5 23.9058 16.5ZM19.4058 11C23.8058 11 27.4058 14.6 27.4058 19C27.4058 23.4 23.8058 27 19.4058 27C15.0058 27 11.4058 23.4 11.4058 19C11.4058 14.6 15.0058 11 19.4058 11ZM19.4058 9C13.9058 9 9.40576 13.5 9.40576 19C9.40576 24.5 13.9058 29 19.4058 29C24.9058 29 29.4058 24.5 29.4058 19C29.4058 13.5 24.9058 9 19.4058 9ZM19.4058 12C18.0058 12 16.9058 13.1 16.9058 14.5C16.9058 15.9 18.0058 17 19.4058 17C20.8058 17 21.9058 15.9 21.9058 14.5C21.9058 13.1 20.8058 12 19.4058 12ZM20.9058 14.5C20.9058 14.7 20.8058 14.9 20.7058 15.1L20.1058 14.5L20.7058 13.9C20.8058 14.1 20.9058 14.3 20.9058 14.5ZM20.0058 13.2L19.4058 13.8L18.8058 13.2C19.0058 13.1 19.2058 13 19.4058 13C19.6058 13 19.8058 13.1 20.0058 13.2ZM18.1058 15.1C18.0058 14.9 17.9058 14.7 17.9058 14.5C17.9058 14.3 18.0058 14.1 18.1058 13.9L18.7058 14.5L18.1058 15.1ZM18.8058 15.8L19.4058 15.2L20.0058 15.8C19.8058 15.9 19.6058 16 19.4058 16C19.2058 16 19.0058 15.9 18.8058 15.8ZM19.4058 21C18.0058 21 16.9058 22.1 16.9058 23.5C16.9058 24.9 18.0058 26 19.4058 26C20.8058 26 21.9058 24.9 21.9058 23.5C21.9058 22.1 20.8058 21 19.4058 21ZM20.9058 23.5C20.9058 23.7 20.8058 23.9 20.7058 24.1L20.1058 23.5L20.7058 22.9C20.8058 23.1 20.9058 23.3 20.9058 23.5ZM20.0058 22.2L19.4058 22.8L18.8058 22.2C19.0058 22.1 19.2058 22 19.4058 22C19.6058 22 19.8058 22.1 20.0058 22.2ZM18.1058 24.1C18.0058 23.9 17.9058 23.7 17.9058 23.5C17.9058 23.3 18.0058 23.1 18.1058 22.9L18.7058 23.5L18.1058 24.1ZM18.8058 24.8L19.4058 24.2L20.0058 24.8C19.8058 24.9 19.6058 25 19.4058 25C19.2058 25 19.0058 24.9 18.8058 24.8Z" fill="white"/>
</svg>
