<svg width="15" height="16" viewBox="0 0 15 16" fill="none" xmlns="http://www.w3.org/2000/svg">
<path d="M7.5 8.62476V6.12476M13.125 4.24976L11.875 2.99976M6.25 1.74976H8.75M7.5 13.6248C6.17392 13.6248 4.90215 13.098 3.96447 12.1603C3.02678 11.2226 2.5 9.95084 2.5 8.62476C2.5 7.29867 3.02678 6.0269 3.96447 5.08922C4.90215 4.15154 6.17392 3.62476 7.5 3.62476C8.82608 3.62476 10.0979 4.15154 11.0355 5.08922C11.9732 6.0269 12.5 7.29867 12.5 8.62476C12.5 9.95084 11.9732 11.2226 11.0355 12.1603C10.0979 13.098 8.82608 13.6248 7.5 13.6248Z" stroke="#62646A" stroke-width="1.125" stroke-linecap="round" stroke-linejoin="round"/>
</svg>
