<svg width="24" height="25" viewBox="0 0 24 25" fill="none" xmlns="http://www.w3.org/2000/svg">
<g clip-path="url(#clip0_6968_37188)">
<path d="M11.333 8.49991H9.43301C8.46277 8.48653 7.51829 8.8122 6.76249 9.42073C6.00669 10.0293 5.48698 10.8825 5.29301 11.8332H1.33301V13.1666H5.28634C5.47691 14.1203 5.99663 14.9766 6.75462 15.5859C7.51261 16.1953 8.46066 16.5188 9.43301 16.4999H11.333V8.49991Z" fill="#1E558E"/>
<path d="M18.8203 11.8334C18.6259 10.8804 18.1043 10.0254 17.3457 9.41663C16.5871 8.80784 15.6395 8.4836 14.667 8.50011H12.667V16.5001H14.667C15.6393 16.519 16.5874 16.1955 17.3454 15.5861C18.1034 14.9768 18.6231 14.1205 18.8137 13.1668H22.667V11.8334H18.8203Z" fill="#1E558E"/>
</g>
<defs>
<clipPath id="clip0_6968_37188">
<rect width="24" height="24" fill="white" transform="translate(0 0.5)"/>
</clipPath>
</defs>
</svg>
