<svg width="25" height="25" viewBox="0 0 25 25" fill="none" xmlns="http://www.w3.org/2000/svg">
<g clip-path="url(#clip0_6897_28792)">
<path d="M12.5065 2.15332C10.3968 2.15332 8.33456 2.77891 6.58043 3.95098C4.82631 5.12305 3.45913 6.78895 2.6518 8.73803C1.84447 10.6871 1.63323 12.8318 2.04481 14.901C2.45638 16.9701 3.47228 18.8707 4.96404 20.3625C6.4558 21.8542 8.35642 22.8701 10.4256 23.2817C12.4947 23.6933 14.6394 23.482 16.5885 22.6747C18.5375 21.8674 20.2035 20.5002 21.3755 18.7461C22.5476 16.9919 23.1732 14.9297 23.1732 12.82C23.1732 9.99101 22.0494 7.2779 20.049 5.27751C18.0486 3.27713 15.3355 2.15332 12.5065 2.15332ZM16.6398 16.2733C16.5914 16.3466 16.529 16.4096 16.4561 16.4587C16.3833 16.5077 16.3014 16.5419 16.2153 16.5593C16.1292 16.5766 16.0405 16.5768 15.9543 16.5597C15.8682 16.5427 15.7862 16.5088 15.7132 16.46L11.7798 13.7933V7.98665C11.7798 7.80984 11.8501 7.64027 11.9751 7.51525C12.1001 7.39022 12.2697 7.31999 12.4465 7.31999C12.6233 7.31999 12.7929 7.39022 12.9179 7.51525C13.0429 7.64027 13.1132 7.80984 13.1132 7.98665V13.0867L16.4465 15.3467C16.5203 15.3946 16.5839 15.4566 16.6337 15.5292C16.6834 15.6018 16.7182 15.6836 16.7362 15.7697C16.7542 15.8559 16.7549 15.9447 16.7384 16.0312C16.7218 16.1176 16.6884 16.1999 16.6398 16.2733ZM16.4065 6.30665C15.4685 5.74126 14.4193 5.38549 13.3308 5.26373C12.2423 5.14197 11.1404 5.25712 10.1007 5.60127C9.06089 5.94542 8.10788 6.51043 7.307 7.25753C6.50613 8.00463 5.87635 8.91614 5.46088 9.92953C5.04541 10.9429 4.85408 12.0342 4.90001 13.1285C4.94594 14.2227 5.22806 15.2941 5.72699 16.2691C6.22593 17.2441 6.92988 18.0997 7.79055 18.777C8.65122 19.4544 9.64823 19.9375 10.7132 20.1933L10.5065 21.24C9.28515 20.9557 8.14002 20.4098 7.15018 19.6398C6.16034 18.8699 5.34938 17.8944 4.77327 16.7805C4.19716 15.6667 3.86963 14.4411 3.8133 13.1883C3.75696 11.9356 3.97315 10.6855 4.44696 9.52444C4.92076 8.36337 5.64089 7.31896 6.55762 6.46329C7.47435 5.60763 8.56586 4.9611 9.75678 4.56834C10.9477 4.17558 12.2097 4.04594 13.4556 4.18837C14.7015 4.3308 15.9016 4.74191 16.9732 5.39332L16.4065 6.30665Z" fill="#252834"/>
</g>
<defs>
<clipPath id="clip0_6897_28792">
<rect width="24" height="24" fill="white" transform="translate(0.507812 0.819824)"/>
</clipPath>
</defs>
</svg>
