<svg width="24" height="25" viewBox="0 0 24 25" fill="none" xmlns="http://www.w3.org/2000/svg">
<path d="M11.9994 23.543C10.4965 23.5428 9.02836 23.0912 7.78527 22.2467C6.54217 21.4021 5.58146 20.2036 5.02771 18.8065C4.47395 17.4094 4.35269 15.8781 4.67964 14.4113C5.0066 12.9444 5.76669 11.6096 6.86136 10.58C8.20336 9.31697 11.4994 7.04297 10.9994 2.04297C16.9994 6.04297 19.9994 10.043 13.9994 16.043C14.9994 16.043 16.4994 16.043 18.9994 13.573C19.2694 14.346 19.4994 15.177 19.4994 16.043C19.4994 18.0321 18.7092 19.9397 17.3027 21.3463C15.8961 22.7528 13.9885 23.543 11.9994 23.543Z" fill="#252834"/>
</svg>
