<svg width="16" height="16" viewBox="0 0 16 16" fill="none" xmlns="http://www.w3.org/2000/svg">
<path d="M8.80279 1.91039C8.58253 1.7125 8.29689 1.60303 8.00079 1.60303C7.70469 1.60303 7.41905 1.7125 7.19879 1.91039L2.79879 5.86399C2.67354 5.97642 2.57335 6.11394 2.50471 6.26762C2.43607 6.42129 2.40053 6.58769 2.40039 6.75599V12.4C2.40039 12.7183 2.52682 13.0235 2.75186 13.2485C2.97691 13.4736 3.28213 13.6 3.60039 13.6H5.20039C5.51865 13.6 5.82388 13.4736 6.04892 13.2485C6.27396 13.0235 6.40039 12.7183 6.40039 12.4V9.19999C6.40039 9.09391 6.44253 8.99216 6.51755 8.91715C6.59256 8.84214 6.6943 8.79999 6.80039 8.79999H9.20039C9.30648 8.79999 9.40822 8.84214 9.48323 8.91715C9.55825 8.99216 9.60039 9.09391 9.60039 9.19999V12.4C9.60039 12.7183 9.72682 13.0235 9.95186 13.2485C10.1769 13.4736 10.4821 13.6 10.8004 13.6H12.4004C12.7187 13.6 13.0239 13.4736 13.2489 13.2485C13.474 13.0235 13.6004 12.7183 13.6004 12.4V6.75599C13.6004 6.58775 13.5649 6.42139 13.4964 6.26772C13.4279 6.11404 13.3279 5.97649 13.2028 5.86399L8.80279 1.91039Z" fill="#62646A"/>
</svg>
