<svg width="15" height="15" viewBox="0 0 15 15" fill="none" xmlns="http://www.w3.org/2000/svg">
<path d="M11.0809 3.54068C11.0269 3.4866 10.9628 3.4437 10.8923 3.41443C10.8217 3.38516 10.746 3.37009 10.6696 3.37009C10.5932 3.37009 10.5176 3.38516 10.447 3.41443C10.3765 3.4437 10.3124 3.4866 10.2584 3.54068L7.40589 6.38735L4.55339 3.53485C4.49939 3.48084 4.43527 3.438 4.36471 3.40877C4.29415 3.37955 4.21852 3.3645 4.14214 3.3645C4.06577 3.3645 3.99014 3.37955 3.91958 3.40877C3.84901 3.438 3.7849 3.48084 3.73089 3.53485C3.67689 3.58885 3.63405 3.65297 3.60482 3.72353C3.57559 3.79409 3.56055 3.86972 3.56055 3.9461C3.56055 4.02247 3.57559 4.0981 3.60482 4.16866C3.63405 4.23923 3.67689 4.30334 3.73089 4.35735L6.58339 7.20985L3.73089 10.0623C3.67689 10.1164 3.63405 10.1805 3.60482 10.251C3.57559 10.3216 3.56055 10.3972 3.56055 10.4736C3.56055 10.55 3.57559 10.6256 3.60482 10.6962C3.63405 10.7667 3.67689 10.8308 3.73089 10.8848C3.7849 10.9389 3.84901 10.9817 3.91958 11.0109C3.99014 11.0401 4.06577 11.0552 4.14214 11.0552C4.21852 11.0552 4.29415 11.0401 4.36471 11.0109C4.43527 10.9817 4.49939 10.9389 4.55339 10.8848L7.40589 8.03235L10.2584 10.8848C10.3124 10.9389 10.3765 10.9817 10.4471 11.0109C10.5176 11.0401 10.5933 11.0552 10.6696 11.0552C10.746 11.0552 10.8216 11.0401 10.8922 11.0109C10.9628 10.9817 11.0269 10.9389 11.0809 10.8848C11.1349 10.8308 11.1777 10.7667 11.207 10.6962C11.2362 10.6256 11.2512 10.55 11.2512 10.4736C11.2512 10.3972 11.2362 10.3216 11.207 10.251C11.1777 10.1805 11.1349 10.1164 11.0809 10.0623L8.22839 7.20985L11.0809 4.35735C11.3026 4.13568 11.3026 3.76235 11.0809 3.54068Z" fill="#252834"/>
</svg>
