<svg width="15" height="15" viewBox="0 0 15 15" fill="none" xmlns="http://www.w3.org/2000/svg">
<path d="M8.0675 3.179L5.19871 7.93714C5.18475 7.96023 5.17718 7.98662 5.17678 8.01359C5.17637 8.04057 5.18314 8.06717 5.19639 8.09067C5.20964 8.11418 5.2289 8.13373 5.2522 8.14734C5.2755 8.16096 5.30199 8.16813 5.32897 8.16814H6.68314C6.78421 8.16814 6.86591 8.25017 6.86591 8.3509V11.8618C6.86591 11.9537 6.98732 11.9878 7.03522 11.9091L10.0126 7.03119C10.021 7.01732 10.0255 7.00149 10.0258 6.9853C10.026 6.96911 10.0219 6.95315 10.014 6.93904C10.0061 6.92494 9.99453 6.91318 9.98057 6.90499C9.96661 6.89679 9.95072 6.89244 9.93453 6.89239H8.38939C8.34901 6.89239 8.31029 6.87635 8.28174 6.8478C8.25318 6.81924 8.23714 6.78052 8.23714 6.74014V3.22625C8.23714 3.13372 8.11541 3.09992 8.0675 3.179Z" fill="#E47C00"/>
</svg>
