<svg width="25" height="24" viewBox="0 0 25 24" fill="none" xmlns="http://www.w3.org/2000/svg">
<path d="M13.7786 2.00123C14.5083 1.99843 15.238 2.00576 15.9676 2.02323L16.1616 2.03023C16.3856 2.03823 16.6066 2.04823 16.8736 2.06023C17.9376 2.11023 18.6636 2.27823 19.3006 2.52523C19.9606 2.77923 20.5166 3.12323 21.0726 3.67923C21.581 4.17884 21.9744 4.78318 22.2256 5.45023C22.4726 6.08723 22.6406 6.81423 22.6906 7.87823C22.7026 8.14423 22.7126 8.36623 22.7206 8.59023L22.7266 8.78423C22.7443 9.51342 22.752 10.2428 22.7496 10.9722L22.7506 11.7182V13.0282C22.753 13.758 22.7454 14.4877 22.7276 15.2172L22.7216 15.4112C22.7136 15.6352 22.7036 15.8562 22.6916 16.1232C22.6416 17.1872 22.4716 17.9132 22.2256 18.5502C21.9752 19.218 21.5817 19.8228 21.0726 20.3222C20.5725 20.8306 19.9679 21.224 19.3006 21.4752C18.6636 21.7222 17.9376 21.8902 16.8736 21.9402C16.6066 21.9522 16.3856 21.9622 16.1616 21.9702L15.9676 21.9762C15.2381 21.994 14.5083 22.0017 13.7786 21.9992L13.0326 22.0002H11.7236C10.9938 22.0027 10.2641 21.995 9.53458 21.9772L9.34058 21.9712C9.10319 21.9626 8.86585 21.9526 8.62858 21.9412C7.56458 21.8912 6.83858 21.7212 6.20058 21.4752C5.53326 21.2246 4.92881 20.8311 4.42958 20.3222C3.92062 19.8225 3.5268 19.2178 3.27558 18.5502C3.02858 17.9132 2.86058 17.1872 2.81058 16.1232C2.79944 15.8859 2.78944 15.6486 2.78058 15.4112L2.77558 15.2172C2.75714 14.4877 2.74881 13.758 2.75058 13.0282V10.9722C2.74779 10.2428 2.75512 9.51343 2.77258 8.78423L2.77958 8.59023C2.78758 8.36623 2.79758 8.14423 2.80958 7.87823C2.85958 6.81323 3.02758 6.08823 3.27458 5.45023C3.52595 4.78285 3.92054 4.17868 4.43058 3.68023C4.92947 3.17098 5.53354 2.7768 6.20058 2.52523C6.83858 2.27823 7.56358 2.11023 8.62858 2.06023L9.34058 2.03023L9.53458 2.02523C10.2638 2.0068 10.9932 1.99847 11.7226 2.00023L13.7786 2.00123ZM12.7506 7.00123C12.0881 6.99186 11.4303 7.11425 10.8156 7.3613C10.2008 7.60834 9.64122 7.97511 9.16942 8.44029C8.69762 8.90546 8.32298 9.45977 8.06726 10.071C7.81155 10.6822 7.67987 11.3382 7.67987 12.0007C7.67987 12.6633 7.81155 13.3192 8.06726 13.9305C8.32298 14.5417 8.69762 15.096 9.16942 15.5612C9.64122 16.0264 10.2008 16.3931 10.8156 16.6402C11.4303 16.8872 12.0881 17.0096 12.7506 17.0002C14.0767 17.0002 15.3484 16.4734 16.2861 15.5358C17.2238 14.5981 17.7506 13.3263 17.7506 12.0002C17.7506 10.6741 17.2238 9.40238 16.2861 8.4647C15.3484 7.52701 14.0767 7.00123 12.7506 7.00123ZM12.7506 9.00123C13.1491 8.99389 13.5451 9.06603 13.9154 9.21344C14.2857 9.36085 14.6229 9.58057 14.9074 9.85978C15.1918 10.139 15.4178 10.4721 15.572 10.8396C15.7263 11.2071 15.8058 11.6016 15.8058 12.0002C15.8059 12.3988 15.7266 12.7934 15.5724 13.1609C15.4183 13.5285 15.1924 13.8617 14.9081 14.141C14.6237 14.4203 14.2866 14.6401 13.9163 14.7876C13.546 14.9352 13.1501 15.0074 12.7516 15.0002C11.9559 15.0002 11.1929 14.6842 10.6303 14.1216C10.0676 13.5589 9.75158 12.7959 9.75158 12.0002C9.75158 11.2046 10.0676 10.4415 10.6303 9.87891C11.1929 9.3163 11.9559 9.00023 12.7516 9.00023L12.7506 9.00123ZM18.0006 5.50123C17.678 5.51414 17.3729 5.65138 17.1492 5.8842C16.9255 6.11702 16.8006 6.42736 16.8006 6.75023C16.8006 7.0731 16.9255 7.38344 17.1492 7.61626C17.3729 7.84908 17.678 7.98632 18.0006 7.99923C18.3321 7.99923 18.65 7.86753 18.8845 7.63311C19.1189 7.39869 19.2506 7.08075 19.2506 6.74923C19.2506 6.41771 19.1189 6.09977 18.8845 5.86535C18.65 5.63093 18.3321 5.49923 18.0006 5.49923V5.50123Z" fill="black"/>
</svg>
