<svg width="25" height="25" viewBox="0 0 25 25" fill="none" xmlns="http://www.w3.org/2000/svg">
<path fill-rule="evenodd" clip-rule="evenodd" d="M3.09381 6.40582C2.50781 6.99182 2.50781 7.93382 2.50781 9.81982V15.8198C2.50781 17.7058 2.50781 18.6478 3.09381 19.2338C3.67981 19.8198 4.62181 19.8198 6.50781 19.8198H18.5078C20.3938 19.8198 21.3358 19.8198 21.9218 19.2338C22.5078 18.6478 22.5078 17.7058 22.5078 15.8198V9.81982C22.5078 7.93382 22.5078 6.99182 21.9218 6.40582C21.3358 5.81982 20.3938 5.81982 18.5078 5.81982H6.50781C4.62181 5.81982 3.67981 5.81982 3.09381 6.40582ZM5.50781 7.81982C5.2426 7.81982 4.98824 7.92518 4.80071 8.11272C4.61317 8.30025 4.50781 8.55461 4.50781 8.81982C4.50781 9.08504 4.61317 9.33939 4.80071 9.52693C4.98824 9.71447 5.2426 9.81982 5.50781 9.81982H7.50781C7.77303 9.81982 8.02738 9.71447 8.21492 9.52693C8.40246 9.33939 8.50781 9.08504 8.50781 8.81982C8.50781 8.55461 8.40246 8.30025 8.21492 8.11272C8.02738 7.92518 7.77303 7.81982 7.50781 7.81982H5.50781ZM16.5078 16.8198C16.5078 16.5546 16.6132 16.3003 16.8007 16.1127C16.9882 15.9252 17.2426 15.8198 17.5078 15.8198H19.5078C19.773 15.8198 20.0274 15.9252 20.2149 16.1127C20.4025 16.3003 20.5078 16.5546 20.5078 16.8198C20.5078 17.085 20.4025 17.3394 20.2149 17.5269C20.0274 17.7145 19.773 17.8198 19.5078 17.8198H17.5078C17.2426 17.8198 16.9882 17.7145 16.8007 17.5269C16.6132 17.3394 16.5078 17.085 16.5078 16.8198ZM13.5078 12.8198C13.5078 13.085 13.4025 13.3394 13.2149 13.5269C13.0274 13.7145 12.773 13.8198 12.5078 13.8198C12.2426 13.8198 11.9882 13.7145 11.8007 13.5269C11.6132 13.3394 11.5078 13.085 11.5078 12.8198C11.5078 12.5546 11.6132 12.3003 11.8007 12.1127C11.9882 11.9252 12.2426 11.8198 12.5078 11.8198C12.773 11.8198 13.0274 11.9252 13.2149 12.1127C13.4025 12.3003 13.5078 12.5546 13.5078 12.8198ZM15.5078 12.8198C15.5078 13.6155 15.1917 14.3785 14.6291 14.9411C14.0665 15.5038 13.3035 15.8198 12.5078 15.8198C11.7122 15.8198 10.9491 15.5038 10.3865 14.9411C9.82388 14.3785 9.50781 13.6155 9.50781 12.8198C9.50781 12.0242 9.82388 11.2611 10.3865 10.6985C10.9491 10.1359 11.7122 9.81982 12.5078 9.81982C13.3035 9.81982 14.0665 10.1359 14.6291 10.6985C15.1917 11.2611 15.5078 12.0242 15.5078 12.8198Z" fill="#252834"/>
</svg>
