<svg width="25" height="25" viewBox="0 0 25 25" fill="none" xmlns="http://www.w3.org/2000/svg">
<path d="M7.69141 5.501C7.69114 6.03143 7.48017 6.54004 7.10491 6.91492C6.72965 7.28981 6.22084 7.50027 5.69041 7.5C5.15997 7.49974 4.65137 7.28877 4.27649 6.91351C3.9016 6.53825 3.69114 6.02943 3.69141 5.499C3.69167 4.96857 3.90264 4.45996 4.2779 4.08508C4.65316 3.71019 5.16197 3.49974 5.69241 3.5C6.22284 3.50027 6.73144 3.71123 7.10633 4.08649C7.48121 4.46175 7.69167 4.97057 7.69141 5.501ZM7.75141 8.981H3.75141V21.501H7.75141V8.981ZM14.0714 8.981H10.0914V21.501H14.0314V14.931C14.0314 11.271 18.8014 10.931 18.8014 14.931V21.501H22.7514V13.571C22.7514 7.401 15.6914 7.631 14.0314 10.661L14.0714 8.981Z" fill="black"/>
</svg>
