<svg width="8" height="8" viewBox="0 0 8 8" fill="none" xmlns="http://www.w3.org/2000/svg">
<path d="M1.71733 7.26751L7.01955 7.2708C7.11825 7.2687 7.21553 7.24714 7.30583 7.20735C7.4879 7.1314 7.6326 6.9867 7.70855 6.80463C7.74834 6.71433 7.7699 6.61704 7.772 6.51835L7.76871 1.21613C7.76865 1.11725 7.74912 1.01934 7.71122 0.927965C7.67333 0.836594 7.61782 0.753558 7.54786 0.6836C7.40657 0.542314 7.21502 0.46287 7.01533 0.462747C6.81564 0.462623 6.62419 0.541829 6.48308 0.682941C6.34196 0.824052 6.26276 1.01551 6.26288 1.2152L6.27035 4.70936L2.24347 0.682483C2.10276 0.541773 1.91198 0.462652 1.71311 0.462529C1.51424 0.462406 1.32356 0.541289 1.18303 0.681826C1.04249 0.822362 0.963606 1.01304 0.96373 1.21191C0.963853 1.41078 1.04297 1.60156 1.18368 1.74227L5.21056 5.76915L1.7164 5.76168C1.61741 5.76121 1.51933 5.78035 1.42782 5.81799C1.33632 5.85562 1.25319 5.91102 1.18324 5.98097C1.11328 6.05092 1.05789 6.13405 1.02025 6.22556C0.982617 6.31706 0.963481 6.41514 0.963948 6.51413C0.963604 6.61312 0.982862 6.71122 1.02061 6.80277C1.05836 6.89433 1.11386 6.97752 1.1839 7.04756C1.25394 7.1176 1.33713 7.1731 1.42869 7.21085C1.52024 7.2486 1.61834 7.26785 1.71733 7.26751Z" fill="white"/>
</svg>
