<svg width="8" height="8" viewBox="0 0 8 8" fill="none" xmlns="http://www.w3.org/2000/svg">
<path d="M1.71733 7.76751L7.01955 7.7708C7.11825 7.7687 7.21553 7.74714 7.30583 7.70735C7.4879 7.6314 7.6326 7.4867 7.70855 7.30463C7.74834 7.21433 7.7699 7.11704 7.772 7.01835L7.76871 1.71613C7.76865 1.61725 7.74912 1.51934 7.71122 1.42797C7.67333 1.33659 7.61782 1.25356 7.54786 1.1836C7.40657 1.04231 7.21502 0.96287 7.01533 0.962747C6.81564 0.962623 6.62419 1.04183 6.48308 1.18294C6.34196 1.32405 6.26276 1.51551 6.26288 1.7152L6.27035 5.20936L2.24347 1.18248C2.10276 1.04177 1.91198 0.962652 1.71311 0.962529C1.51424 0.962406 1.32356 1.04129 1.18303 1.18183C1.04249 1.32236 0.963606 1.51304 0.96373 1.71191C0.963853 1.91078 1.04297 2.10156 1.18368 2.24227L5.21056 6.26915L1.7164 6.26168C1.61741 6.26121 1.51933 6.28035 1.42782 6.31799C1.33632 6.35562 1.25319 6.41102 1.18324 6.48097C1.11328 6.55092 1.05789 6.63405 1.02025 6.72556C0.982617 6.81706 0.963481 6.91514 0.963948 7.01413C0.963604 7.11312 0.982862 7.21122 1.02061 7.30277C1.05836 7.39433 1.11386 7.47752 1.1839 7.54756C1.25394 7.6176 1.33713 7.6731 1.42869 7.71085C1.52024 7.7486 1.61834 7.76785 1.71733 7.76751Z" fill="black"/>
</svg>
