<svg width="12" height="17" viewBox="0 0 12 17" fill="none" xmlns="http://www.w3.org/2000/svg">
<g clip-path="url(#clip0_6108_35596)">
<path d="M3.87439 12.6001C4.33713 13.1898 4.75829 13.811 5.13481 14.4592C5.4563 15.0687 5.59031 15.4821 5.82526 16.2165C5.96934 16.6223 6.09957 16.7435 6.37954 16.7435C6.68463 16.7435 6.82305 16.5374 6.93 16.2188C7.15208 15.5251 7.32634 14.9958 7.60126 14.4956C8.14072 13.5299 8.81106 12.6718 9.46972 11.8471C9.64803 11.6137 10.8009 10.2539 11.3199 9.18091C11.3199 9.18091 11.9578 8.00227 11.9578 6.35619C11.9578 4.81644 11.3287 3.74854 11.3287 3.74854L9.51751 4.23359L8.41756 7.13064L8.14543 7.53012L8.09102 7.60249L8.01865 7.69308L7.89161 7.83778L7.71007 8.01927L6.73059 8.81727L4.28176 10.2312L3.87439 12.6001Z" fill="#34A853"/>
<path d="M1.34692 8.98269C1.94459 10.3478 3.09711 11.5479 3.87689 12.601L8.01862 7.69489C8.01862 7.69489 7.43512 8.45801 6.37668 8.45801C5.19769 8.45801 4.24523 7.51653 4.24523 6.3294C4.24523 5.51531 4.735 4.95605 4.735 4.95605L1.92349 5.70941L1.34692 8.98269Z" fill="#FBBC04"/>
<path d="M8.06488 1.00004C9.44044 1.44355 10.6178 2.37465 11.33 3.74764L8.01989 7.69218C8.01989 7.69218 8.50965 7.12281 8.50965 6.31379C8.50965 5.09901 7.48674 4.1915 6.38169 4.1915C5.33672 4.1915 4.73657 4.95335 4.73657 4.95335V2.46834L8.06488 1V1.00004Z" fill="#4285F4"/>
<path d="M2.10571 2.74276C2.92729 1.75979 4.37296 0.747559 6.36603 0.747559C7.333 0.747559 8.06151 1.00142 8.06151 1.00142L4.73351 4.95534H2.37558L2.10571 2.74276Z" fill="#1A73E8"/>
<path d="M1.34696 8.98254C1.34696 8.98254 0.797119 7.90579 0.797119 6.3459C0.797119 4.87159 1.37024 3.58287 2.10567 2.74268L4.73534 4.9556L1.34696 8.98254Z" fill="#EA4335"/>
</g>
<defs>
<clipPath id="clip0_6108_35596">
<rect width="11.17" height="16" fill="white" transform="translate(0.79248 0.747559)"/>
</clipPath>
</defs>
</svg>
