<svg width="19" height="19" viewBox="0 0 19 19" fill="none" xmlns="http://www.w3.org/2000/svg">
<g opacity="0.5">
<path d="M9.6543 1.58325C11.4445 1.58325 13.1614 2.29441 14.4273 3.56028C15.6931 4.82615 16.4043 6.54304 16.4043 8.33325C16.4043 11.1278 14.2743 14.0558 10.1043 17.1833C9.97447 17.2806 9.81657 17.3333 9.6543 17.3333C9.49202 17.3333 9.33412 17.2806 9.2043 17.1833C5.0343 14.0558 2.9043 11.1278 2.9043 8.33325C2.9043 6.54304 3.61546 4.82615 4.88133 3.56028C6.1472 2.29441 7.86409 1.58325 9.6543 1.58325ZM9.6543 6.08325C9.05756 6.08325 8.48526 6.3203 8.06331 6.74226C7.64135 7.16422 7.4043 7.73652 7.4043 8.33325C7.4043 8.92999 7.64135 9.50229 8.06331 9.92424C8.48526 10.3462 9.05756 10.5833 9.6543 10.5833C10.251 10.5833 10.8233 10.3462 11.2453 9.92424C11.6672 9.50229 11.9043 8.92999 11.9043 8.33325C11.9043 7.73652 11.6672 7.16422 11.2453 6.74226C10.8233 6.3203 10.251 6.08325 9.6543 6.08325Z" fill="black"/>
</g>
</svg>
