<svg width="25" height="25" viewBox="0 0 25 25" fill="none" xmlns="http://www.w3.org/2000/svg">
<path d="M11.5082 15.3198L5.58315 14.5698C5.16649 14.5198 4.89549 14.2948 4.77016 13.8948C4.64482 13.4948 4.73249 13.1532 5.03316 12.8698L15.2582 3.06982C15.3415 2.98649 15.4415 2.92416 15.5582 2.88282C15.6748 2.84149 15.8332 2.82049 16.0332 2.81982C16.3665 2.81982 16.6208 2.96149 16.7962 3.24482C16.9715 3.52816 16.9755 3.81982 16.8082 4.11982L13.5082 10.3198L19.4332 11.0698C19.8498 11.1198 20.1208 11.3448 20.2462 11.7448C20.3715 12.1448 20.2838 12.4865 19.9832 12.7698L9.75815 22.5698C9.67482 22.6532 9.57482 22.7158 9.45815 22.7578C9.34149 22.7998 9.18316 22.8205 8.98316 22.8198C8.64982 22.8198 8.39549 22.6782 8.22016 22.3948C8.04482 22.1115 8.04082 21.8198 8.20815 21.5198L11.5082 15.3198Z" fill="#252834"/>
</svg>
