<svg width="17" height="16" viewBox="0 0 17 16" fill="none" xmlns="http://www.w3.org/2000/svg">
<path d="M13.1628 2C13.5164 2 13.8555 2.14048 14.1056 2.39052C14.3556 2.64057 14.4961 2.97971 14.4961 3.33333V12.6667C14.4961 13.0203 14.3556 13.3594 14.1056 13.6095C13.8555 13.8595 13.5164 14 13.1628 14H3.82943C3.47581 14 3.13667 13.8595 2.88662 13.6095C2.63657 13.3594 2.49609 13.0203 2.49609 12.6667V3.33333C2.49609 2.97971 2.63657 2.64057 2.88662 2.39052C3.13667 2.14048 3.47581 2 3.82943 2H13.1628ZM12.8294 12.3333V8.8C12.8294 8.2236 12.6005 7.6708 12.1929 7.26322C11.7853 6.85564 11.2325 6.62667 10.6561 6.62667C10.0894 6.62667 9.42943 6.97333 9.10943 7.49333V6.75333H7.24943V12.3333H9.10943V9.04667C9.10943 8.53333 9.52276 8.11333 10.0361 8.11333C10.2836 8.11333 10.521 8.21167 10.6961 8.3867C10.8711 8.56173 10.9694 8.79913 10.9694 9.04667V12.3333H12.8294ZM5.08276 5.70667C5.3798 5.70667 5.66468 5.58867 5.87472 5.37863C6.08476 5.16859 6.20276 4.88371 6.20276 4.58667C6.20276 3.96667 5.70276 3.46 5.08276 3.46C4.78395 3.46 4.49738 3.5787 4.28609 3.78999C4.0748 4.00128 3.95609 4.28786 3.95609 4.58667C3.95609 5.20667 4.46276 5.70667 5.08276 5.70667ZM6.00943 12.3333V6.75333H4.16276V12.3333H6.00943Z" fill="#252834"/>
</svg>
