<svg width="41" height="41" viewBox="0 0 41 41" fill="none" xmlns="http://www.w3.org/2000/svg">
<rect width="41" height="41" rx="20.5" fill="#F5FFCC"/>
<path d="M25.1706 24.0457L21.1937 28.0237C21.037 28.1805 20.8509 28.3049 20.6461 28.3897C20.4413 28.4746 20.2218 28.5183 20.0001 28.5183C19.7784 28.5183 19.5589 28.4746 19.3541 28.3897C19.1493 28.3049 18.9632 28.1805 18.8065 28.0237L14.8296 24.0457C14.1505 23.3667 13.6118 22.5606 13.2443 21.6734C12.8767 20.7862 12.6876 19.8353 12.6875 18.875C12.6874 17.9147 12.8765 16.9638 13.244 16.0766C13.6114 15.1893 14.15 14.3832 14.829 13.7041C15.508 13.025 16.3141 12.4863 17.2013 12.1188C18.0885 11.7513 19.0394 11.5621 19.9997 11.562C20.96 11.562 21.9109 11.7511 22.7981 12.1185C23.6854 12.4859 24.4915 13.0245 25.1706 13.7035C25.8497 14.3826 26.3884 15.1887 26.756 16.076C27.1235 16.9633 27.3127 17.9142 27.3127 18.8746C27.3127 19.835 27.1235 20.7859 26.756 21.6732C26.3884 22.5605 25.8497 23.3666 25.1706 24.0457ZM23.9781 14.8972C23.4557 14.3748 22.8355 13.9604 22.153 13.6777C21.4704 13.3949 20.7389 13.2494 20.0001 13.2494C19.2613 13.2494 18.5298 13.3949 17.8472 13.6777C17.1647 13.9604 16.5445 14.3748 16.0221 14.8972C15.4997 15.4196 15.0853 16.0397 14.8026 16.7223C14.5199 17.4048 14.3743 18.1364 14.3743 18.8752C14.3743 19.6139 14.5199 20.3455 14.8026 21.028C15.0853 21.7106 15.4997 22.3308 16.0221 22.8532L20.0001 26.8289L23.9781 22.8532C24.5006 22.3308 24.915 21.7107 25.1978 21.0281C25.4806 20.3455 25.6261 19.614 25.6261 18.8752C25.6261 18.1364 25.4806 17.4048 25.1978 16.7222C24.915 16.0397 24.5006 15.4195 23.9781 14.8972ZM20.0001 21.1252C19.7005 21.1319 19.4025 21.0788 19.1237 20.9688C18.8449 20.8589 18.5909 20.6943 18.3765 20.4848C18.1622 20.2753 17.9919 20.0251 17.8756 19.7489C17.7592 19.4727 17.6993 19.176 17.6992 18.8763C17.6991 18.5766 17.7589 18.2799 17.8751 18.0036C17.9913 17.7273 18.1615 17.4771 18.3757 17.2675C18.5899 17.0579 18.8439 16.8932 19.1226 16.7831C19.4014 16.673 19.6993 16.6197 19.999 16.6263C20.5868 16.6393 21.1463 16.8819 21.5575 17.3022C21.9687 17.7225 22.1991 18.2872 22.1992 18.8752C22.1994 19.4632 21.9693 20.0279 21.5583 20.4484C21.1473 20.869 20.588 21.1119 20.0001 21.1252Z" fill="#252834"/>
</svg>
