<svg width="41" height="41" viewBox="0 0 41 41" fill="none" xmlns="http://www.w3.org/2000/svg">
<rect width="41" height="41" rx="20.5" fill="#D6CCFF"/>
<path d="M26.1875 13.5312H13.8125C13.4395 13.5312 13.0819 13.6794 12.8181 13.9431C12.5544 14.2069 12.4062 14.5645 12.4062 14.9375V26.1875C12.4063 26.3313 12.4431 26.4728 12.5131 26.5984C12.5832 26.724 12.6842 26.8296 12.8066 26.9052C12.9289 26.9808 13.0686 27.0239 13.2123 27.0303C13.356 27.0367 13.4989 27.0063 13.6276 26.942L15.5 26.0061L17.3724 26.942C17.4896 27.0006 17.6189 27.0312 17.75 27.0312C17.8811 27.0312 18.0104 27.0006 18.1276 26.942L20 26.0061L21.8724 26.942C21.9896 27.0006 22.1189 27.0312 22.25 27.0312C22.3811 27.0312 22.5104 27.0006 22.6276 26.942L24.5 26.0061L26.3724 26.942C26.5011 27.0063 26.644 27.0367 26.7877 27.0303C26.9314 27.0239 27.0711 26.9808 27.1934 26.9052C27.3158 26.8296 27.4168 26.724 27.4869 26.5984C27.5569 26.4728 27.5937 26.3313 27.5938 26.1875V14.9375C27.5938 14.5645 27.4456 14.2069 27.1819 13.9431C26.9181 13.6794 26.5605 13.5312 26.1875 13.5312ZM25.9062 24.822L24.8776 24.308C24.7604 24.2494 24.6311 24.2188 24.5 24.2188C24.3689 24.2188 24.2396 24.2494 24.1224 24.308L22.25 25.2439L20.3776 24.308C20.2604 24.2494 20.1311 24.2188 20 24.2188C19.8689 24.2188 19.7396 24.2494 19.6224 24.308L17.75 25.2439L15.8776 24.308C15.7604 24.2494 15.6311 24.2188 15.5 24.2188C15.3689 24.2188 15.2396 24.2494 15.1224 24.308L14.0938 24.822V15.2188H25.9062V24.822ZM20.5625 18.5938C20.5625 18.37 20.6514 18.1554 20.8096 17.9971C20.9679 17.8389 21.1825 17.75 21.4062 17.75H23.9375C24.1613 17.75 24.3759 17.8389 24.5341 17.9971C24.6924 18.1554 24.7812 18.37 24.7812 18.5938C24.7812 18.8175 24.6924 19.0321 24.5341 19.1904C24.3759 19.3486 24.1613 19.4375 23.9375 19.4375H21.4062C21.1825 19.4375 20.9679 19.3486 20.8096 19.1904C20.6514 19.0321 20.5625 18.8175 20.5625 18.5938ZM20.5625 21.4062C20.5625 21.1825 20.6514 20.9679 20.8096 20.8096C20.9679 20.6514 21.1825 20.5625 21.4062 20.5625H23.9375C24.1613 20.5625 24.3759 20.6514 24.5341 20.8096C24.6924 20.9679 24.7812 21.1825 24.7812 21.4062C24.7812 21.63 24.6924 21.8446 24.5341 22.0029C24.3759 22.1611 24.1613 22.25 23.9375 22.25H21.4062C21.1825 22.25 20.9679 22.1611 20.8096 22.0029C20.6514 21.8446 20.5625 21.63 20.5625 21.4062ZM16.0625 23.0938H18.875C19.0988 23.0938 19.3134 23.0049 19.4716 22.8466C19.6299 22.6884 19.7188 22.4738 19.7188 22.25V17.75C19.7188 17.5262 19.6299 17.3116 19.4716 17.1534C19.3134 16.9951 19.0988 16.9062 18.875 16.9062H16.0625C15.8387 16.9062 15.6241 16.9951 15.4659 17.1534C15.3076 17.3116 15.2188 17.5262 15.2188 17.75V22.25C15.2188 22.4738 15.3076 22.6884 15.4659 22.8466C15.6241 23.0049 15.8387 23.0938 16.0625 23.0938ZM16.9062 18.5938H18.0312V21.4062H16.9062V18.5938Z" fill="#252834"/>
</svg>
