<svg width="24" height="24" viewBox="0 0 24 24" fill="none" xmlns="http://www.w3.org/2000/svg">
<path d="M10.9994 14.5001L5.07437 13.7501C4.6577 13.7001 4.3867 13.4751 4.26137 13.0751C4.13603 12.6751 4.2237 12.3335 4.52437 12.0501L14.7494 2.25012C14.8327 2.16679 14.9327 2.10446 15.0494 2.06312C15.166 2.02179 15.3244 2.00079 15.5244 2.00012C15.8577 2.00012 16.112 2.14179 16.2874 2.42512C16.4627 2.70846 16.4667 3.00012 16.2994 3.30012L12.9994 9.50012L18.9244 10.2501C19.341 10.3001 19.612 10.5251 19.7374 10.9251C19.8627 11.3251 19.775 11.6668 19.4744 11.9501L9.24937 21.7501C9.16603 21.8335 9.06603 21.8961 8.94937 21.9381C8.8327 21.9801 8.67437 22.0008 8.47437 22.0001C8.14103 22.0001 7.8867 21.8585 7.71137 21.5751C7.53603 21.2918 7.53203 21.0001 7.69937 20.7001L10.9994 14.5001Z" fill="#1E558E"/>
</svg>
