<svg width="24" height="24" viewBox="0 0 24 24" fill="none" xmlns="http://www.w3.org/2000/svg">
<path d="M10.4792 21.9999C10.0125 21.9999 9.5752 21.8999 9.1672 21.6999C8.7592 21.4999 8.4132 21.2165 8.1292 20.8499L2.6792 13.9249L3.1542 13.4249C3.48753 13.0749 3.88753 12.8665 4.3542 12.7999C4.82087 12.7332 5.2542 12.8249 5.6542 13.0749L7.5042 14.1999V5.99988C7.5042 5.71654 7.6002 5.47921 7.7922 5.28788C7.9842 5.09654 8.22153 5.00054 8.5042 4.99988C8.78753 4.99988 9.0292 5.09588 9.2292 5.28788C9.4292 5.47988 9.5292 5.71721 9.5292 5.99988V10.9999H17.0042C17.8375 10.9999 18.5459 11.2915 19.1292 11.8749C19.7125 12.4582 20.0042 13.1665 20.0042 13.9999V17.9999C20.0042 19.0999 19.6125 20.0415 18.8292 20.8249C18.0459 21.6082 17.1042 21.9999 16.0042 21.9999H10.4792ZM4.1792 8.49988C3.96253 8.13321 3.79587 7.73755 3.6792 7.31288C3.56253 6.88821 3.5042 6.45054 3.5042 5.99988C3.5042 4.61654 3.99187 3.43754 4.9672 2.46288C5.94253 1.48821 7.12153 1.00054 8.5042 0.999878C9.88753 0.999878 11.0669 1.48754 12.0422 2.46288C13.0175 3.43821 13.5049 4.61721 13.5042 5.99988C13.5042 6.44988 13.4459 6.88754 13.3292 7.31288C13.2125 7.73821 13.0459 8.13388 12.8292 8.49988L11.1042 7.49988C11.2375 7.26654 11.3375 7.02921 11.4042 6.78788C11.4709 6.54654 11.5042 6.28388 11.5042 5.99988C11.5042 5.16654 11.2125 4.45821 10.6292 3.87488C10.0459 3.29154 9.33753 2.99988 8.5042 2.99988C7.67087 2.99988 6.96253 3.29154 6.3792 3.87488C5.79587 4.45821 5.5042 5.16654 5.5042 5.99988C5.5042 6.28321 5.53753 6.54588 5.6042 6.78788C5.67087 7.02988 5.77087 7.26721 5.9042 7.49988L4.1792 8.49988Z" fill="#1E558E"/>
</svg>
