<svg width="24" height="24" viewBox="0 0 24 24" fill="none" xmlns="http://www.w3.org/2000/svg">
<g clip-path="url(#clip0_6981_63469)">
<path fill-rule="evenodd" clip-rule="evenodd" d="M14.222 1.92859H18.2745C18.9157 1.92859 19.4334 2.39145 19.4334 2.96059V13.2189H4.53969L4.3734 13.2206V2.96059C4.3734 2.38973 4.89111 1.92859 5.53226 1.92859H9.58654V7.09545C9.58654 7.23259 9.64826 7.36287 9.75797 7.46059C9.87115 7.55873 10.0162 7.61235 10.166 7.61145H13.6425C13.7929 7.61276 13.9386 7.55912 14.0523 7.46059C14.1048 7.41521 14.1471 7.35919 14.1763 7.29624C14.2056 7.2333 14.2211 7.16485 14.222 7.09545V1.92859ZM4.53969 15.36H19.4677C20.5658 15.3822 21.6114 15.834 22.3801 16.6184C23.1489 17.4029 23.5794 18.4574 23.5794 19.5557C23.5794 20.654 23.1489 21.7086 22.3801 22.493C21.6114 23.2774 20.5658 23.7292 19.4677 23.7514H4.53969C3.98156 23.7627 3.42679 23.6625 2.90787 23.4568C2.38894 23.251 1.91629 22.9437 1.51759 22.553C1.11888 22.1623 0.802142 21.6959 0.58591 21.1813C0.369678 20.6666 0.258301 20.114 0.258301 19.5557C0.258301 18.9975 0.369678 18.4449 0.58591 17.9302C0.802142 17.4155 1.11888 16.9492 1.51759 16.5585C1.91629 16.1677 2.38894 15.8605 2.90787 15.6547C3.42679 15.4489 3.98156 15.3487 4.53969 15.36ZM7.55854 19.5429C7.55854 19.9407 7.40051 20.3222 7.1192 20.6035C6.8379 20.8848 6.45637 21.0429 6.05854 21.0429C5.66072 21.0429 5.27919 20.8848 4.99788 20.6035C4.71658 20.3222 4.55854 19.9407 4.55854 19.5429C4.55854 19.145 4.71658 18.7635 4.99788 18.4822C5.27919 18.2009 5.66072 18.0429 6.05854 18.0429C6.45637 18.0429 6.8379 18.2009 7.1192 18.4822C7.40051 18.7635 7.55854 19.145 7.55854 19.5429ZM13.5123 19.5429C13.5123 19.9407 13.3542 20.3222 13.0729 20.6035C12.7916 20.8848 12.4101 21.0429 12.0123 21.0429C11.6144 21.0429 11.2329 20.8848 10.9516 20.6035C10.6703 20.3222 10.5123 19.9407 10.5123 19.5429C10.5123 19.145 10.6703 18.7635 10.9516 18.4822C11.2329 18.2009 11.6144 18.0429 12.0123 18.0429C12.4101 18.0429 12.7916 18.2009 13.0729 18.4822C13.3542 18.7635 13.5123 19.145 13.5123 19.5429ZM17.9643 21.0412C18.3621 21.0412 18.7436 20.8831 19.0249 20.6018C19.3062 20.3205 19.4643 19.939 19.4643 19.5412C19.4643 19.1433 19.3062 18.7618 19.0249 18.4805C18.7436 18.1992 18.3621 18.0412 17.9643 18.0412C17.5664 18.0412 17.1849 18.1992 16.9036 18.4805C16.6223 18.7618 16.4643 19.1433 16.4643 19.5412C16.4643 19.939 16.6223 20.3205 16.9036 20.6018C17.1849 20.8831 17.5664 21.0412 17.9643 21.0412Z" fill="#1E558E"/>
</g>
<defs>
<clipPath id="clip0_6981_63469">
<rect width="24" height="24" fill="white" transform="translate(0.00390625)"/>
</clipPath>
</defs>
</svg>
