<svg width="24" height="24" viewBox="0 0 24 24" fill="none" xmlns="http://www.w3.org/2000/svg">
<path d="M6.50488 19.9999C4.98822 19.9999 3.69255 19.4749 2.61788 18.4249C1.54322 17.3749 1.00555 16.0915 1.00488 14.5749C1.00488 13.2749 1.39655 12.1165 2.17988 11.0999C2.96322 10.0832 3.98822 9.43321 5.25488 9.14988C5.67155 7.61655 6.50488 6.37488 7.75488 5.42488C9.00488 4.47488 10.4216 3.99988 12.0049 3.99988C13.9549 3.99988 15.6092 4.67921 16.9679 6.03788C18.3266 7.39655 19.0056 9.05055 19.0049 10.9999C20.1549 11.1332 21.1092 11.6292 21.8679 12.4879C22.6266 13.3465 23.0056 14.3505 23.0049 15.4999C23.0049 16.7499 22.5676 17.8125 21.6929 18.6879C20.8182 19.5632 19.7556 20.0005 18.5049 19.9999H6.50488Z" fill="#1E558E"/>
</svg>
