<svg width="25" height="25" viewBox="0 0 25 25" fill="none" xmlns="http://www.w3.org/2000/svg">
<path d="M12.5078 3.06982C10.5794 3.06982 8.69439 3.64165 7.09101 4.713C5.48763 5.78434 4.23795 7.30708 3.49999 9.08866C2.76204 10.8702 2.56895 12.8306 2.94516 14.722C3.32137 16.6133 4.24996 18.3506 5.61353 19.7141C6.97709 21.0777 8.71437 22.0063 10.6057 22.3825C12.497 22.7587 14.4574 22.5656 16.239 21.8276C18.0206 21.0897 19.5433 19.84 20.6146 18.2366C21.686 16.6333 22.2578 14.7482 22.2578 12.8198C22.2551 10.2348 21.227 7.75644 19.3991 5.92855C17.5712 4.10066 15.0928 3.07255 12.5078 3.06982ZM17.7578 13.5698H12.5078C12.3089 13.5698 12.1181 13.4908 11.9775 13.3502C11.8368 13.2095 11.7578 13.0187 11.7578 12.8198V7.56982C11.7578 7.37091 11.8368 7.18015 11.9775 7.03949C12.1181 6.89884 12.3089 6.81982 12.5078 6.81982C12.7067 6.81982 12.8975 6.89884 13.0381 7.03949C13.1788 7.18015 13.2578 7.37091 13.2578 7.56982V12.0698H17.7578C17.9567 12.0698 18.1475 12.1488 18.2881 12.2895C18.4288 12.4301 18.5078 12.6209 18.5078 12.8198C18.5078 13.0187 18.4288 13.2095 18.2881 13.3502C18.1475 13.4908 17.9567 13.5698 17.7578 13.5698Z" fill="#252834"/>
</svg>
