<svg width="28" height="28" viewBox="0 0 28 28" fill="none" xmlns="http://www.w3.org/2000/svg">
<path d="M14.3999 5.04932C14.4344 5.04938 14.4616 5.05858 14.478 5.06885C14.4897 5.07613 14.5051 5.08916 14.52 5.12451L14.521 5.12842L16.6636 10.1831L16.8989 10.7378L17.4995 10.7886L22.9731 11.2534L22.979 11.2544C23.0201 11.2577 23.0382 11.2694 23.0483 11.2778C23.0627 11.2898 23.0792 11.3113 23.0894 11.3423C23.0995 11.3734 23.099 11.4012 23.0942 11.4204C23.0907 11.4344 23.0821 11.4565 23.0493 11.4849L18.8901 15.0884L18.4341 15.4839L18.5708 16.0718L19.8179 21.4204C19.8276 21.4625 19.8213 21.485 19.8159 21.4985C19.8085 21.5169 19.7929 21.5394 19.7671 21.5581C19.7414 21.5768 19.7158 21.5842 19.6968 21.5854C19.6831 21.5863 19.6593 21.5855 19.6206 21.562L14.9175 18.7173L14.4009 18.4048L13.8833 18.7163L9.18018 21.5503L9.17822 21.5513C9.13964 21.5746 9.11567 21.5756 9.10205 21.5747C9.08308 21.5734 9.05733 21.565 9.03174 21.5464C9.00615 21.5277 8.99024 21.5052 8.98291 21.4868C8.97756 21.4733 8.9724 21.4511 8.98193 21.4097L10.228 16.0601L10.3647 15.4722L9.90869 15.0776L5.74951 11.4731C5.717 11.445 5.70815 11.4236 5.70459 11.4097C5.69975 11.3904 5.6993 11.3617 5.70947 11.3306C5.71966 11.2995 5.73711 11.278 5.75146 11.2661C5.75651 11.262 5.76329 11.2568 5.77393 11.2524L5.81982 11.2427H5.82568L11.2993 10.7778L11.8999 10.7271L12.1353 10.1724L14.2769 5.12842L14.2788 5.12451C14.2937 5.08904 14.3101 5.07614 14.3218 5.06885C14.3383 5.05866 14.3656 5.04932 14.3999 5.04932Z" stroke="#FFB700" stroke-width="2"/>
</svg>
