<svg width="35" height="34" viewBox="0 0 35 34" fill="none" xmlns="http://www.w3.org/2000/svg">
<path d="M18.676 25.0891L25.7593 18.0058C25.8883 17.871 25.9894 17.7122 26.0568 17.5383C26.1985 17.1934 26.1985 16.8065 26.0568 16.4616C25.9894 16.2877 25.8883 16.1288 25.7593 15.9941L18.676 8.91077C18.5439 8.77868 18.3871 8.67391 18.2145 8.60242C18.0419 8.53093 17.857 8.49414 17.6702 8.49414C17.2929 8.49414 16.9311 8.64401 16.6643 8.91077C16.3976 9.17753 16.2477 9.53934 16.2477 9.9166C16.2477 10.2939 16.3976 10.6557 16.6643 10.9224L21.3393 15.5833L10.5868 15.5833C10.2111 15.5833 9.85077 15.7325 9.58509 15.9982C9.31942 16.2639 9.17016 16.6242 9.17016 16.9999C9.17016 17.3757 9.31942 17.736 9.58509 18.0017C9.85077 18.2673 10.2111 18.4166 10.5868 18.4166L21.3393 18.4166L16.6643 23.0774C16.5315 23.2091 16.4261 23.3658 16.3542 23.5384C16.2823 23.7111 16.2453 23.8962 16.2453 24.0833C16.2453 24.2703 16.2823 24.4554 16.3542 24.6281C16.4261 24.8007 16.5315 24.9574 16.6643 25.0891C16.796 25.2219 16.9527 25.3273 17.1253 25.3992C17.298 25.4711 17.4831 25.5081 17.6702 25.5081C17.8572 25.5081 18.0423 25.4711 18.215 25.3992C18.3876 25.3273 18.5443 25.2219 18.676 25.0891Z" fill="white"/>
</svg>
