<svg width="24" height="24" viewBox="0 0 24 24" fill="none" xmlns="http://www.w3.org/2000/svg">
<path d="M13.0055 3.08887C12.8301 3.08887 12.6875 3.23143 12.6875 3.40711C12.6875 3.42343 12.6945 3.43759 12.6969 3.45343H12.6875V10.9985C12.6875 11.1742 12.8301 11.3168 13.0055 11.3168H20.5504V11.3074C20.5662 11.3098 20.5804 11.3168 20.5969 11.3168C20.7724 11.3168 20.9149 11.1742 20.9149 10.9985C20.8698 6.64975 17.3543 3.13423 13.0055 3.08887Z" fill="#1E558E"/>
<path d="M19.0761 12.8303C19.0761 12.6546 18.9338 12.5121 18.7581 12.5121H11.8224C11.738 12.512 11.6571 12.4784 11.5975 12.4188C11.5379 12.3591 11.5044 12.2782 11.5044 12.1938V5.28351H11.495C11.4974 5.26767 11.5044 5.25351 11.5044 5.23719C11.5044 5.06127 11.3618 4.91895 11.1861 4.91895C11.1785 4.91895 11.1722 4.92279 11.1648 4.92327V4.92111C11.1365 4.92087 11.1084 4.91895 11.0801 4.91895C6.66406 4.91895 3.08398 8.49903 3.08398 12.915C3.08398 17.331 6.66406 20.9111 11.0801 20.9111C15.4961 20.9111 19.0761 17.331 19.0761 12.915C19.0761 12.8896 19.0749 12.8644 19.0745 12.8387C19.0745 12.8356 19.0761 12.8332 19.0761 12.8303Z" fill="#1E558E"/>
</svg>
