<svg width="24" height="24" viewBox="0 0 24 24" fill="none" xmlns="http://www.w3.org/2000/svg">
<path d="M18.0672 4.50254C17.8253 4.52152 17.594 4.61104 17.4017 4.76017C17.2094 4.9093 17.0643 5.11158 16.9843 5.34234C16.9042 5.57309 16.8926 5.82233 16.9509 6.05962C17.0091 6.29691 17.1347 6.51199 17.3123 6.67861C18.0072 7.3771 18.5582 8.20704 18.9336 9.1207C19.309 10.0344 19.5014 11.0138 19.4997 12.0025C19.5008 12.9913 19.3082 13.9705 18.9328 14.8841C18.5575 15.7977 18.0068 16.6277 17.3123 17.3265C17.1916 17.4426 17.0951 17.5818 17.0286 17.7359C16.9621 17.8901 16.9268 18.0561 16.9249 18.2242C16.923 18.3922 16.9544 18.559 17.0174 18.7146C17.0804 18.8703 17.1736 19.0117 17.2917 19.1306C17.4097 19.2494 17.5501 19.3433 17.7046 19.4067C17.8592 19.4702 18.0248 19.5019 18.1917 19.4999C18.3586 19.498 18.5234 19.4625 18.6765 19.3955C18.8295 19.3285 18.9678 19.2314 19.083 19.1098C20.951 17.2229 22 14.6671 22 12.0025C22 9.33804 20.951 6.78221 19.083 4.89529C18.9688 4.77366 18.8316 4.6762 18.6795 4.60862C18.5274 4.54103 18.3634 4.50469 18.1972 4.5017C18.1539 4.49943 18.1105 4.49943 18.0672 4.5017V4.50254ZM5.64611 4.52772C5.3691 4.56472 5.11239 4.69413 4.91698 4.89529C3.04897 6.78221 2 9.33804 2 12.0025C2 14.6671 3.04897 17.2229 4.91698 19.1098C5.03225 19.2314 5.17048 19.3285 5.32355 19.3955C5.47661 19.4625 5.64144 19.498 5.80832 19.4999C5.97521 19.5019 6.1408 19.4702 6.29536 19.4067C6.44992 19.3433 6.59033 19.2494 6.70835 19.1306C6.82636 19.0117 6.9196 18.8703 6.98258 18.7146C7.04557 18.559 7.07702 18.3922 7.0751 18.2242C7.07318 18.0561 7.03792 17.8901 6.9714 17.7359C6.90488 17.5818 6.80843 17.4426 6.68773 17.3265C5.99279 16.628 5.44178 15.7981 5.06639 14.8844C4.691 13.9707 4.49863 12.9913 4.50033 12.0025C4.49917 11.0138 4.6918 10.0346 5.06716 9.12102C5.44252 8.20743 5.99323 7.37743 6.68773 6.67861C6.87668 6.49381 7.00284 6.25362 7.04819 5.99232C7.09355 5.73103 7.05578 5.46198 6.94029 5.22358C6.82479 4.98518 6.63747 4.78962 6.40506 4.66481C6.17265 4.54 5.90703 4.49147 5.64611 4.52772ZM8.82347 7.30802C8.54941 7.3377 8.29278 7.45778 8.0935 7.64957C7.48878 8.19978 7.00499 8.87126 6.6732 9.62091C6.34142 10.3706 6.16896 11.1818 6.16692 12.0025C6.16692 13.7212 6.89189 15.2839 8.06767 16.3564C8.18914 16.4683 8.33131 16.555 8.48605 16.6116C8.6408 16.6682 8.8051 16.6935 8.96957 16.6861C9.13404 16.6788 9.29545 16.6389 9.4446 16.5687C9.59376 16.4985 9.72772 16.3994 9.83884 16.2771C9.94997 16.1547 10.0361 16.0116 10.0923 15.8557C10.1485 15.6999 10.1736 15.5344 10.1663 15.3688C10.159 15.2031 10.1193 15.0406 10.0497 14.8904C9.97996 14.7401 9.88157 14.6052 9.7601 14.4933C9.41416 14.1789 9.13797 13.7946 8.94958 13.3654C8.76119 12.9362 8.66484 12.4718 8.66681 12.0025C8.66509 11.5331 8.76163 11.0686 8.95016 10.6393C9.13868 10.21 9.41494 9.8255 9.76093 9.51094C9.96063 9.33598 10.1 9.10169 10.159 8.84183C10.218 8.58197 10.1936 8.30995 10.0893 8.06497C9.98491 7.81999 9.80604 7.6147 9.57841 7.47866C9.35078 7.34262 9.08698 7.28287 8.82347 7.30802ZM14.9949 7.30802C14.747 7.32178 14.5088 7.40958 14.3106 7.56021C14.1125 7.71085 13.9633 7.9175 13.8823 8.15382C13.8012 8.39014 13.7918 8.64542 13.8554 8.88712C13.9189 9.12882 14.0525 9.34599 14.2391 9.51094C14.5853 9.82533 14.8617 10.2098 15.0502 10.6391C15.2387 11.0685 15.3352 11.5331 15.3332 12.0025C15.3349 12.472 15.2384 12.9365 15.0498 13.3658C14.8613 13.7951 14.5851 14.1796 14.2391 14.4942C14.0998 14.5989 13.9837 14.7318 13.8983 14.8843C13.8129 15.0367 13.76 15.2055 13.7431 15.3797C13.7261 15.5539 13.7454 15.7298 13.7997 15.8961C13.854 16.0624 13.9422 16.2155 14.0585 16.3455C14.1749 16.4755 14.317 16.5797 14.4756 16.6513C14.6342 16.723 14.8059 16.7605 14.9797 16.7615C15.1536 16.7625 15.3257 16.727 15.4851 16.6573C15.6445 16.5875 15.7878 16.485 15.9057 16.3564C16.5106 15.8061 16.9946 15.1345 17.3266 14.3847C17.6585 13.6349 17.831 12.8235 17.8331 12.0025C17.8362 11.1833 17.6686 10.3726 17.3412 9.62262C17.0138 8.87268 16.5338 8.20024 15.9323 7.64873C15.8076 7.53023 15.6601 7.43882 15.4988 7.38021C15.3375 7.32159 15.166 7.29702 14.9949 7.30802ZM12 10.4819C11.7014 10.4821 11.4095 10.5714 11.1614 10.7386C10.9132 10.9058 10.7198 11.1433 10.6056 11.4212C10.4914 11.6991 10.4617 12.0048 10.52 12.2997C10.5784 12.5946 10.7222 12.8655 10.9334 13.0781C11.1446 13.2907 11.4137 13.4354 11.7066 13.494C11.9994 13.5526 12.303 13.5225 12.5789 13.4074C12.8547 13.2922 13.0905 13.0973 13.2564 12.8473C13.4222 12.5972 13.5108 12.3033 13.5108 12.0025C13.5111 11.8026 13.4722 11.6047 13.3964 11.4199C13.3206 11.2352 13.2094 11.0673 13.069 10.926C12.9287 10.7846 12.762 10.6725 12.5785 10.5962C12.3951 10.5199 12.1985 10.4816 12 10.4819Z" fill="#1E558E"/>
</svg>
