<svg width="27" height="24" viewBox="0 0 27 24" fill="none" xmlns="http://www.w3.org/2000/svg">
<path d="M11.2947 15L17.0155 12L11.2947 9V15ZM24.037 7.17C24.1803 7.64 24.2795 8.27 24.3457 9.07C24.4228 9.87 24.4559 10.56 24.4559 11.16L24.522 12C24.522 14.19 24.3457 15.8 24.037 16.83C23.7614 17.73 23.1221 18.31 22.1301 18.56C21.612 18.69 20.6641 18.78 19.2091 18.84C17.7761 18.91 16.4644 18.94 15.2519 18.94L13.4993 19C8.88077 19 6.00384 18.84 4.86849 18.56C3.87645 18.31 3.23713 17.73 2.96156 16.83C2.81827 16.36 2.71906 15.73 2.65293 14.93C2.57577 14.13 2.5427 13.44 2.5427 12.84L2.47656 12C2.47656 9.81 2.65293 8.2 2.96156 7.17C3.23713 6.27 3.87645 5.69 4.86849 5.44C5.38656 5.31 6.33452 5.22 7.78952 5.16C9.22247 5.09 10.5342 5.06 11.7467 5.06L13.4993 5C18.1178 5 20.9947 5.16 22.1301 5.44C23.1221 5.69 23.7614 6.27 24.037 7.17Z" fill="white"/>
</svg>
