<svg width="25" height="25" viewBox="0 0 25 25" fill="none" xmlns="http://www.w3.org/2000/svg">
<path d="M10.25 15.5L15.44 12.5L10.25 9.5V15.5ZM21.81 7.67C21.94 8.14 22.03 8.77 22.09 9.57C22.16 10.37 22.19 11.06 22.19 11.66L22.25 12.5C22.25 14.69 22.09 16.3 21.81 17.33C21.56 18.23 20.98 18.81 20.08 19.06C19.61 19.19 18.75 19.28 17.43 19.34C16.13 19.41 14.94 19.44 13.84 19.44L12.25 19.5C8.06 19.5 5.45 19.34 4.42 19.06C3.52 18.81 2.94 18.23 2.69 17.33C2.56 16.86 2.47 16.23 2.41 15.43C2.34 14.63 2.31 13.94 2.31 13.34L2.25 12.5C2.25 10.31 2.41 8.7 2.69 7.67C2.94 6.77 3.52 6.19 4.42 5.94C4.89 5.81 5.75 5.72 7.07 5.66C8.37 5.59 9.56 5.56 10.66 5.56L12.25 5.5C16.44 5.5 19.05 5.66 20.08 5.94C20.98 6.19 21.56 6.77 21.81 7.67Z" fill="black"/>
</svg>
